<svg width="361" height="216" viewBox="0 0 361 216" fill="none" xmlns="http://www.w3.org/2000/svg">
<g opacity="0.7" style="mix-blend-mode:soft-light">
<path d="M11.5238 3.58252H-0.417969V15.5243M11.5238 3.58252V15.5243M11.5238 3.58252H23.4655M11.5238 15.5243H-0.417969M11.5238 15.5243V27.466M11.5238 15.5243H23.4655M-0.417969 15.5243V27.466M11.5238 27.466H-0.417969M11.5238 27.466V39.4078M11.5238 27.466H23.4655M-0.417969 27.466V39.4078M11.5238 39.4078H-0.417969M11.5238 39.4078V51.3495M11.5238 39.4078H23.4655M-0.417969 39.4078V51.3495M11.5238 51.3495H-0.417969M11.5238 51.3495V63.2913M11.5238 51.3495H23.4655M-0.417969 51.3495V63.2913M11.5238 63.2913H-0.417969M11.5238 63.2913V75.233M11.5238 63.2913H23.4655M-0.417969 63.2913V75.233M11.5238 75.233H-0.417969M11.5238 75.233V87.1748M11.5238 75.233H23.4655M-0.417969 75.233V87.1748M11.5238 87.1748H-0.417969M11.5238 87.1748V99.1165M11.5238 87.1748H23.4655M-0.417969 87.1748V99.1165M11.5238 99.1165H-0.417969M11.5238 99.1165V111.058M11.5238 99.1165H23.4655M-0.417969 99.1165V111.058M11.5238 111.058H-0.417969M11.5238 111.058V123M11.5238 111.058H23.4655M-0.417969 111.058V123M11.5238 123H-0.417969M11.5238 123V134.942M11.5238 123H23.4655M-0.417969 123V134.942M11.5238 134.942H-0.417969M11.5238 134.942V146.884M11.5238 134.942H23.4655M-0.417969 134.942V146.884M11.5238 146.884H-0.417969M11.5238 146.884V158.825M11.5238 146.884H23.4655M-0.417969 146.884V158.825M11.5238 158.825H-0.417969M11.5238 158.825V170.767M11.5238 158.825H23.4655M-0.417969 158.825V170.767M11.5238 170.767H-0.417969M11.5238 170.767V182.709M11.5238 170.767H23.4655M-0.417969 170.767V182.709M11.5238 182.709H-0.417969M11.5238 182.709V194.651M11.5238 182.709H23.4655M-0.417969 182.709V194.651M11.5238 194.651H-0.417969M11.5238 194.651V206.592M11.5238 194.651H23.4655M-0.417969 194.651V206.592M11.5238 206.592H-0.417969M11.5238 206.592V218.534M11.5238 206.592H23.4655M-0.417969 206.592V218.534M11.5238 218.534H-0.417969M11.5238 218.534V230.476M11.5238 218.534H23.4655M-0.417969 218.534V230.476M11.5238 230.476H-0.417969M11.5238 230.476V242.418M11.5238 230.476H23.4655M-0.417969 230.476V242.418H11.5238M11.5238 242.418H23.4655M23.4655 3.58252V15.5243M23.4655 3.58252H35.4073M23.4655 15.5243V27.466M23.4655 15.5243H35.4073M23.4655 27.466V39.4078M23.4655 27.466H35.4073M23.4655 39.4078V51.3495M23.4655 39.4078H35.4073M23.4655 51.3495V63.2913M23.4655 51.3495H35.4073M23.4655 63.2913V75.233M23.4655 63.2913H35.4073M23.4655 75.233V87.1748M23.4655 75.233H35.4073M23.4655 87.1748V99.1165M23.4655 87.1748H35.4073M23.4655 99.1165V111.058M23.4655 99.1165H35.4073M23.4655 111.058V123M23.4655 111.058H35.4073M23.4655 123V134.942M23.4655 123H35.4073M23.4655 134.942V146.884M23.4655 134.942H35.4073M23.4655 146.884V158.825M23.4655 146.884H35.4073M23.4655 158.825V170.767M23.4655 158.825H35.4073M23.4655 170.767V182.709M23.4655 170.767H35.4073M23.4655 182.709V194.651M23.4655 182.709H35.4073M23.4655 194.651V206.592M23.4655 194.651H35.4073M23.4655 206.592V218.534M23.4655 206.592H35.4073M23.4655 218.534V230.476M23.4655 218.534H35.4073M23.4655 230.476V242.418M23.4655 230.476H35.4073M23.4655 242.418H35.4073M35.4073 3.58252V15.5243M35.4073 3.58252H47.349M35.4073 15.5243V27.466M35.4073 15.5243H47.349M35.4073 27.466V39.4078M35.4073 27.466H47.349M35.4073 39.4078V51.3495M35.4073 39.4078H47.349M35.4073 51.3495V63.2913M35.4073 51.3495H47.349M35.4073 63.2913V75.233M35.4073 63.2913H47.349M35.4073 75.233V87.1748M35.4073 75.233H47.349M35.4073 87.1748V99.1165M35.4073 87.1748H47.349M35.4073 99.1165V111.058M35.4073 99.1165H47.349M35.4073 111.058V123M35.4073 111.058H47.349M35.4073 123V134.942M35.4073 123H47.349M35.4073 134.942V146.884M35.4073 134.942H47.349M35.4073 146.884V158.825M35.4073 146.884H47.349M35.4073 158.825V170.767M35.4073 158.825H47.349M35.4073 170.767V182.709M35.4073 170.767H47.349M35.4073 182.709V194.651M35.4073 182.709H47.349M35.4073 194.651V206.592M35.4073 194.651H47.349M35.4073 206.592V218.534M35.4073 206.592H47.349M35.4073 218.534V230.476M35.4073 218.534H47.349M35.4073 230.476V242.418M35.4073 230.476H47.349M35.4073 242.418H47.349M47.349 3.58252V15.5243M47.349 3.58252H59.2908M47.349 15.5243V27.466M47.349 15.5243H59.2908M47.349 27.466V39.4078M47.349 27.466H59.2908M47.349 39.4078V51.3495M47.349 39.4078H59.2908M47.349 51.3495V63.2913M47.349 51.3495H59.2908M47.349 63.2913V75.233M47.349 63.2913H59.2908M47.349 75.233V87.1748M47.349 75.233H59.2908M47.349 87.1748V99.1165M47.349 87.1748H59.2908M47.349 99.1165V111.058M47.349 99.1165H59.2908M47.349 111.058V123M47.349 111.058H59.2908M47.349 123V134.942M47.349 123H59.2908M47.349 134.942V146.884M47.349 134.942H59.2908M47.349 146.884V158.825M47.349 146.884H59.2908M47.349 158.825V170.767M47.349 158.825H59.2908M47.349 170.767V182.709M47.349 170.767H59.2908M47.349 182.709V194.651M47.349 182.709H59.2908M47.349 194.651V206.592M47.349 194.651H59.2908M47.349 206.592V218.534M47.349 206.592H59.2908M47.349 218.534V230.476M47.349 218.534H59.2908M47.349 230.476V242.418M47.349 230.476H59.2908M47.349 242.418H59.2908M59.2908 3.58252V15.5243M59.2908 3.58252H71.2325M59.2908 15.5243V27.466M59.2908 15.5243H71.2325M59.2908 27.466V39.4078M59.2908 27.466H71.2325M59.2908 39.4078V51.3495M59.2908 39.4078H71.2325M59.2908 51.3495V63.2913M59.2908 51.3495H71.2325M59.2908 63.2913V75.233M59.2908 63.2913H71.2325M59.2908 75.233V87.1748M59.2908 75.233H71.2325M59.2908 87.1748V99.1165M59.2908 87.1748H71.2325M59.2908 99.1165V111.058M59.2908 99.1165H71.2325M59.2908 111.058V123M59.2908 111.058H71.2325M59.2908 123V134.942M59.2908 123H71.2325M59.2908 134.942V146.884M59.2908 134.942H71.2325M59.2908 146.884V158.825M59.2908 146.884H71.2325M59.2908 158.825V170.767M59.2908 158.825H71.2325M59.2908 170.767V182.709M59.2908 170.767H71.2325M59.2908 182.709V194.651M59.2908 182.709H71.2325M59.2908 194.651V206.592M59.2908 194.651H71.2325M59.2908 206.592V218.534M59.2908 206.592H71.2325M59.2908 218.534V230.476M59.2908 218.534H71.2325M59.2908 230.476V242.418M59.2908 230.476H71.2325M59.2908 242.418H71.2325M71.2325 3.58252V15.5243M71.2325 3.58252H83.1743M71.2325 15.5243V27.466M71.2325 15.5243H83.1743M71.2325 27.466V39.4078M71.2325 27.466H83.1743M71.2325 39.4078V51.3495M71.2325 39.4078H83.1743M71.2325 51.3495V63.2913M71.2325 51.3495H83.1743M71.2325 63.2913V75.233M71.2325 63.2913H83.1743M71.2325 75.233V87.1748M71.2325 75.233H83.1743M71.2325 87.1748V99.1165M71.2325 87.1748H83.1743M71.2325 99.1165V111.058M71.2325 99.1165H83.1743M71.2325 111.058V123M71.2325 111.058H83.1743M71.2325 123V134.942M71.2325 123H83.1743M71.2325 134.942V146.884M71.2325 134.942H83.1743M71.2325 146.884V158.825M71.2325 146.884H83.1743M71.2325 158.825V170.767M71.2325 158.825H83.1743M71.2325 170.767V182.709M71.2325 170.767H83.1743M71.2325 182.709V194.651M71.2325 182.709H83.1743M71.2325 194.651V206.592M71.2325 194.651H83.1743M71.2325 206.592V218.534M71.2325 206.592H83.1743M71.2325 218.534V230.476M71.2325 218.534H83.1743M71.2325 230.476V242.418M71.2325 230.476H83.1743M71.2325 242.418H83.1743M83.1743 3.58252V15.5243M83.1743 3.58252H95.116M83.1743 15.5243V27.466M83.1743 15.5243H95.116M83.1743 27.466V39.4078M83.1743 27.466H95.116M83.1743 39.4078V51.3495M83.1743 39.4078H95.116M83.1743 51.3495V63.2913M83.1743 51.3495H95.116M83.1743 63.2913V75.233M83.1743 63.2913H95.116M83.1743 75.233V87.1748M83.1743 75.233H95.116M83.1743 87.1748V99.1165M83.1743 87.1748H95.116M83.1743 99.1165V111.058M83.1743 99.1165H95.116M83.1743 111.058V123M83.1743 111.058H95.116M83.1743 123V134.942M83.1743 123H95.116M83.1743 134.942V146.884M83.1743 134.942H95.116M83.1743 146.884V158.825M83.1743 146.884H95.116M83.1743 158.825V170.767M83.1743 158.825H95.116M83.1743 170.767V182.709M83.1743 170.767H95.116M83.1743 182.709V194.651M83.1743 182.709H95.116M83.1743 194.651V206.592M83.1743 194.651H95.116M83.1743 206.592V218.534M83.1743 206.592H95.116M83.1743 218.534V230.476M83.1743 218.534H95.116M83.1743 230.476V242.418M83.1743 230.476H95.116M83.1743 242.418H95.116M95.116 3.58252V15.5243M95.116 3.58252H107.058M95.116 15.5243V27.466M95.116 15.5243H107.058M95.116 27.466V39.4078M95.116 27.466H107.058M95.116 39.4078V51.3495M95.116 39.4078H107.058M95.116 51.3495V63.2913M95.116 51.3495H107.058M95.116 63.2913V75.233M95.116 63.2913H107.058M95.116 75.233V87.1748M95.116 75.233H107.058M95.116 87.1748V99.1165M95.116 87.1748H107.058M95.116 99.1165V111.058M95.116 99.1165H107.058M95.116 111.058V123M95.116 111.058H107.058M95.116 123V134.942M95.116 123H107.058M95.116 134.942V146.884M95.116 134.942H107.058M95.116 146.884V158.825M95.116 146.884H107.058M95.116 158.825V170.767M95.116 158.825H107.058M95.116 170.767V182.709M95.116 170.767H107.058M95.116 182.709V194.651M95.116 182.709H107.058M95.116 194.651V206.592M95.116 194.651H107.058M95.116 206.592V218.534M95.116 206.592H107.058M95.116 218.534V230.476M95.116 218.534H107.058M95.116 230.476V242.418M95.116 230.476H107.058M95.116 242.418H107.058M107.058 3.58252V15.5243M107.058 3.58252H119M107.058 15.5243V27.466M107.058 15.5243H119M107.058 27.466V39.4078M107.058 27.466H119M107.058 39.4078V51.3495M107.058 39.4078H119M107.058 51.3495V63.2913M107.058 51.3495H119M107.058 63.2913V75.233M107.058 63.2913H119M107.058 75.233V87.1748M107.058 75.233H119M107.058 87.1748V99.1165M107.058 87.1748H119M107.058 99.1165V111.058M107.058 99.1165H119M107.058 111.058V123M107.058 111.058H119M107.058 123V134.942M107.058 123H119M107.058 134.942V146.884M107.058 134.942H119M107.058 146.884V158.825M107.058 146.884H119M107.058 158.825V170.767M107.058 158.825H119M107.058 170.767V182.709M107.058 170.767H119M107.058 182.709V194.651M107.058 182.709H119M107.058 194.651V206.592M107.058 194.651H119M107.058 206.592V218.534M107.058 206.592H119M107.058 218.534V230.476M107.058 218.534H119M107.058 230.476V242.418M107.058 230.476H119M107.058 242.418H119M119 3.58252V15.5243M119 3.58252H130.941M119 15.5243V27.466M119 15.5243H130.941M119 27.466V39.4078M119 27.466H130.941M119 39.4078V51.3495M119 39.4078H130.941M119 51.3495V63.2913M119 51.3495H130.941M119 63.2913V75.233M119 63.2913H130.941M119 75.233V87.1748M119 75.233H130.941M119 87.1748V99.1165M119 87.1748H130.941M119 99.1165V111.058M119 99.1165H130.941M119 111.058V123M119 111.058H130.941M119 123V134.942M119 123H130.941M119 134.942V146.884M119 134.942H130.941M119 146.884V158.825M119 146.884H130.941M119 158.825V170.767M119 158.825H130.941M119 170.767V182.709M119 170.767H130.941M119 182.709V194.651M119 182.709H130.941M119 194.651V206.592M119 194.651H130.941M119 206.592V218.534M119 206.592H130.941M119 218.534V230.476M119 218.534H130.941M119 230.476V242.418M119 230.476H130.941M119 242.418H130.941M130.941 3.58252V15.5243M130.941 3.58252H142.883M130.941 15.5243V27.466M130.941 15.5243H142.883M130.941 27.466V39.4078M130.941 27.466H142.883M130.941 39.4078V51.3495M130.941 39.4078H142.883M130.941 51.3495V63.2913M130.941 51.3495H142.883M130.941 63.2913V75.233M130.941 63.2913H142.883M130.941 75.233V87.1748M130.941 75.233H142.883M130.941 87.1748V99.1165M130.941 87.1748H142.883M130.941 99.1165V111.058M130.941 99.1165H142.883M130.941 111.058V123M130.941 111.058H142.883M130.941 123V134.942M130.941 123H142.883M130.941 134.942V146.884M130.941 134.942H142.883M130.941 146.884V158.825M130.941 146.884H142.883M130.941 158.825V170.767M130.941 158.825H142.883M130.941 170.767V182.709M130.941 170.767H142.883M130.941 182.709V194.651M130.941 182.709H142.883M130.941 194.651V206.592M130.941 194.651H142.883M130.941 206.592V218.534M130.941 206.592H142.883M130.941 218.534V230.476M130.941 218.534H142.883M130.941 230.476V242.418M130.941 230.476H142.883M130.941 242.418H142.883M142.883 3.58252V15.5243M142.883 3.58252H154.825M142.883 15.5243V27.466M142.883 15.5243H154.825M142.883 27.466V39.4078M142.883 27.466H154.825M142.883 39.4078V51.3495M142.883 39.4078H154.825M142.883 51.3495V63.2913M142.883 51.3495H154.825M142.883 63.2913V75.233M142.883 63.2913H154.825M142.883 75.233V87.1748M142.883 75.233H154.825M142.883 87.1748V99.1165M142.883 87.1748H154.825M142.883 99.1165V111.058M142.883 99.1165H154.825M142.883 111.058V123M142.883 111.058H154.825M142.883 123V134.942M142.883 123H154.825M142.883 134.942V146.884M142.883 134.942H154.825M142.883 146.884V158.825M142.883 146.884H154.825M142.883 158.825V170.767M142.883 158.825H154.825M142.883 170.767V182.709M142.883 170.767H154.825M142.883 182.709V194.651M142.883 182.709H154.825M142.883 194.651V206.592M142.883 194.651H154.825M142.883 206.592V218.534M142.883 206.592H154.825M142.883 218.534V230.476M142.883 218.534H154.825M142.883 230.476V242.418M142.883 230.476H154.825M142.883 242.418H154.825M154.825 3.58252V15.5243M154.825 3.58252H166.767M154.825 15.5243V27.466M154.825 15.5243H166.767M154.825 27.466V39.4078M154.825 27.466H166.767M154.825 39.4078V51.3495M154.825 39.4078H166.767M154.825 51.3495V63.2913M154.825 51.3495H166.767M154.825 63.2913V75.233M154.825 63.2913H166.767M154.825 75.233V87.1748M154.825 75.233H166.767M154.825 87.1748V99.1165M154.825 87.1748H166.767M154.825 99.1165V111.058M154.825 99.1165H166.767M154.825 111.058V123M154.825 111.058H166.767M154.825 123V134.942M154.825 123H166.767M154.825 134.942V146.884M154.825 134.942H166.767M154.825 146.884V158.825M154.825 146.884H166.767M154.825 158.825V170.767M154.825 158.825H166.767M154.825 170.767V182.709M154.825 170.767H166.767M154.825 182.709V194.651M154.825 182.709H166.767M154.825 194.651V206.592M154.825 194.651H166.767M154.825 206.592V218.534M154.825 206.592H166.767M154.825 218.534V230.476M154.825 218.534H166.767M154.825 230.476V242.418M154.825 230.476H166.767M154.825 242.418H166.767M166.767 3.58252V15.5243M166.767 3.58252H178.708M166.767 15.5243V27.466M166.767 15.5243H178.708M166.767 27.466V39.4078M166.767 27.466H178.708M166.767 39.4078V51.3495M166.767 39.4078H178.708M166.767 51.3495V63.2913M166.767 51.3495H178.708M166.767 63.2913V75.233M166.767 63.2913H178.708M166.767 75.233V87.1748M166.767 75.233H178.708M166.767 87.1748V99.1165M166.767 87.1748H178.708M166.767 99.1165V111.058M166.767 99.1165H178.708M166.767 111.058V123M166.767 111.058H178.708M166.767 123V134.942M166.767 123H178.708M166.767 134.942V146.884M166.767 134.942H178.708M166.767 146.884V158.825M166.767 146.884H178.708M166.767 158.825V170.767M166.767 158.825H178.708M166.767 170.767V182.709M166.767 170.767H178.708M166.767 182.709V194.651M166.767 182.709H178.708M166.767 194.651V206.592M166.767 194.651H178.708M166.767 206.592V218.534M166.767 206.592H178.708M166.767 218.534V230.476M166.767 218.534H178.708M166.767 230.476V242.418M166.767 230.476H178.708M166.767 242.418H178.708M178.708 3.58252V15.5243M178.708 3.58252H190.65M178.708 15.5243V27.466M178.708 15.5243H190.65M178.708 27.466V39.4078M178.708 27.466H190.65M178.708 39.4078V51.3495M178.708 39.4078H190.65M178.708 51.3495V63.2913M178.708 51.3495H190.65M178.708 63.2913V75.233M178.708 63.2913H190.65M178.708 75.233V87.1748M178.708 75.233H190.65M178.708 87.1748V99.1165M178.708 87.1748H190.65M178.708 99.1165V111.058M178.708 99.1165H190.65M178.708 111.058V123M178.708 111.058H190.65M178.708 123V134.942M178.708 123H190.65M178.708 134.942V146.884M178.708 134.942H190.65M178.708 146.884V158.825M178.708 146.884H190.65M178.708 158.825V170.767M178.708 158.825H190.65M178.708 170.767V182.709M178.708 170.767H190.65M178.708 182.709V194.651M178.708 182.709H190.65M178.708 194.651V206.592M178.708 194.651H190.65M178.708 206.592V218.534M178.708 206.592H190.65M178.708 218.534V230.476M178.708 218.534H190.65M178.708 230.476V242.418M178.708 230.476H190.65M178.708 242.418H190.65M190.65 3.58252V15.5243M190.65 3.58252H202.592M190.65 15.5243V27.466M190.65 15.5243H202.592M190.65 27.466V39.4078M190.65 27.466H202.592M190.65 39.4078V51.3495M190.65 39.4078H202.592M190.65 51.3495V63.2913M190.65 51.3495H202.592M190.65 63.2913V75.233M190.65 63.2913H202.592M190.65 75.233V87.1748M190.65 75.233H202.592M190.65 87.1748V99.1165M190.65 87.1748H202.592M190.65 99.1165V111.058M190.65 99.1165H202.592M190.65 111.058V123M190.65 111.058H202.592M190.65 123V134.942M190.65 123H202.592M190.65 134.942V146.884M190.65 134.942H202.592M190.65 146.884V158.825M190.65 146.884H202.592M190.65 158.825V170.767M190.65 158.825H202.592M190.65 170.767V182.709M190.65 170.767H202.592M190.65 182.709V194.651M190.65 182.709H202.592M190.65 194.651V206.592M190.65 194.651H202.592M190.65 206.592V218.534M190.65 206.592H202.592M190.65 218.534V230.476M190.65 218.534H202.592M190.65 230.476V242.418M190.65 230.476H202.592M190.65 242.418H202.592M202.592 3.58252V15.5243M202.592 3.58252H214.534M202.592 15.5243V27.466M202.592 15.5243H214.534M202.592 27.466V39.4078M202.592 27.466H214.534M202.592 39.4078V51.3495M202.592 39.4078H214.534M202.592 51.3495V63.2913M202.592 51.3495H214.534M202.592 63.2913V75.233M202.592 63.2913H214.534M202.592 75.233V87.1748M202.592 75.233H214.534M202.592 87.1748V99.1165M202.592 87.1748H214.534M202.592 99.1165V111.058M202.592 99.1165H214.534M202.592 111.058V123M202.592 111.058H214.534M202.592 123V134.942M202.592 123H214.534M202.592 134.942V146.884M202.592 134.942H214.534M202.592 146.884V158.825M202.592 146.884H214.534M202.592 158.825V170.767M202.592 158.825H214.534M202.592 170.767V182.709M202.592 170.767H214.534M202.592 182.709V194.651M202.592 182.709H214.534M202.592 194.651V206.592M202.592 194.651H214.534M202.592 206.592V218.534M202.592 206.592H214.534M202.592 218.534V230.476M202.592 218.534H214.534M202.592 230.476V242.418M202.592 230.476H214.534M202.592 242.418H214.534M214.534 3.58252V15.5243M214.534 3.58252H226.475M214.534 15.5243V27.466M214.534 15.5243H226.475M214.534 27.466V39.4078M214.534 27.466H226.475M214.534 39.4078V51.3495M214.534 39.4078H226.475M214.534 51.3495V63.2913M214.534 51.3495H226.475M214.534 63.2913V75.233M214.534 63.2913H226.475M214.534 75.233V87.1748M214.534 75.233H226.475M214.534 87.1748V99.1165M214.534 87.1748H226.475M214.534 99.1165V111.058M214.534 99.1165H226.475M214.534 111.058V123M214.534 111.058H226.475M214.534 123V134.942M214.534 123H226.475M214.534 134.942V146.884M214.534 134.942H226.475M214.534 146.884V158.825M214.534 146.884H226.475M214.534 158.825V170.767M214.534 158.825H226.475M214.534 170.767V182.709M214.534 170.767H226.475M214.534 182.709V194.651M214.534 182.709H226.475M214.534 194.651V206.592M214.534 194.651H226.475M214.534 206.592V218.534M214.534 206.592H226.475M214.534 218.534V230.476M214.534 218.534H226.475M214.534 230.476V242.418M214.534 230.476H226.475M214.534 242.418H226.475M226.475 3.58252V15.5243M226.475 3.58252H238.417M226.475 15.5243V27.466M226.475 15.5243H238.417M226.475 27.466V39.4078M226.475 27.466H238.417M226.475 39.4078V51.3495M226.475 39.4078H238.417M226.475 51.3495V63.2913M226.475 51.3495H238.417M226.475 63.2913V75.233M226.475 63.2913H238.417M226.475 75.233V87.1748M226.475 75.233H238.417M226.475 87.1748V99.1165M226.475 87.1748H238.417M226.475 99.1165V111.058M226.475 99.1165H238.417M226.475 111.058V123M226.475 111.058H238.417M226.475 123V134.942M226.475 123H238.417M226.475 134.942V146.884M226.475 134.942H238.417M226.475 146.884V158.825M226.475 146.884H238.417M226.475 158.825V170.767M226.475 158.825H238.417M226.475 170.767V182.709M226.475 170.767H238.417M226.475 182.709V194.651M226.475 182.709H238.417M226.475 194.651V206.592M226.475 194.651H238.417M226.475 206.592V218.534M226.475 206.592H238.417M226.475 218.534V230.476M226.475 218.534H238.417M226.475 230.476V242.418M226.475 230.476H238.417M226.475 242.418H238.417M238.417 3.58252V15.5243M238.417 3.58252H250.359M238.417 15.5243V27.466M238.417 15.5243H250.359M238.417 27.466V39.4078M238.417 27.466H250.359M238.417 39.4078V51.3495M238.417 39.4078H250.359M238.417 51.3495V63.2913M238.417 51.3495H250.359M238.417 63.2913V75.233M238.417 63.2913H250.359M238.417 75.233V87.1748M238.417 75.233H250.359M238.417 87.1748V99.1165M238.417 87.1748H250.359M238.417 99.1165V111.058M238.417 99.1165H250.359M238.417 111.058V123M238.417 111.058H250.359M238.417 123V134.942M238.417 123H250.359M238.417 134.942V146.884M238.417 134.942H250.359M238.417 146.884V158.825M238.417 146.884H250.359M238.417 158.825V170.767M238.417 158.825H250.359M238.417 170.767V182.709M238.417 170.767H250.359M238.417 182.709V194.651M238.417 182.709H250.359M238.417 194.651V206.592M238.417 194.651H250.359M238.417 206.592V218.534M238.417 206.592H250.359M238.417 218.534V230.476M238.417 218.534H250.359M238.417 230.476V242.418M238.417 230.476H250.359M238.417 242.418H250.359M250.359 3.58252V15.5243M250.359 3.58252H262.301M250.359 15.5243V27.466M250.359 15.5243H262.301M250.359 27.466V39.4078M250.359 27.466H262.301M250.359 39.4078V51.3495M250.359 39.4078H262.301M250.359 51.3495V63.2913M250.359 51.3495H262.301M250.359 63.2913V75.233M250.359 63.2913H262.301M250.359 75.233V87.1748M250.359 75.233H262.301M250.359 87.1748V99.1165M250.359 87.1748H262.301M250.359 99.1165V111.058M250.359 99.1165H262.301M250.359 111.058V123M250.359 111.058H262.301M250.359 123V134.942M250.359 123H262.301M250.359 134.942V146.884M250.359 134.942H262.301M250.359 146.884V158.825M250.359 146.884H262.301M250.359 158.825V170.767M250.359 158.825H262.301M250.359 170.767V182.709M250.359 170.767H262.301M250.359 182.709V194.651M250.359 182.709H262.301M250.359 194.651V206.592M250.359 194.651H262.301M250.359 206.592V218.534M250.359 206.592H262.301M250.359 218.534V230.476M250.359 218.534H262.301M250.359 230.476V242.418M250.359 230.476H262.301M250.359 242.418H262.301M262.301 3.58252V15.5243M262.301 3.58252H274.242M262.301 15.5243V27.466M262.301 15.5243H274.242M262.301 27.466V39.4078M262.301 27.466H274.242M262.301 39.4078V51.3495M262.301 39.4078H274.242M262.301 51.3495V63.2913M262.301 51.3495H274.242M262.301 63.2913V75.233M262.301 63.2913H274.242M262.301 75.233V87.1748M262.301 75.233H274.242M262.301 87.1748V99.1165M262.301 87.1748H274.242M262.301 99.1165V111.058M262.301 99.1165H274.242M262.301 111.058V123M262.301 111.058H274.242M262.301 123V134.942M262.301 123H274.242M262.301 134.942V146.884M262.301 134.942H274.242M262.301 146.884V158.825M262.301 146.884H274.242M262.301 158.825V170.767M262.301 158.825H274.242M262.301 170.767V182.709M262.301 170.767H274.242M262.301 182.709V194.651M262.301 182.709H274.242M262.301 194.651V206.592M262.301 194.651H274.242M262.301 206.592V218.534M262.301 206.592H274.242M262.301 218.534V230.476M262.301 218.534H274.242M262.301 230.476V242.418M262.301 230.476H274.242M262.301 242.418H274.242M274.242 3.58252V15.5243M274.242 3.58252H286.184M274.242 15.5243V27.466M274.242 15.5243H286.184M274.242 27.466V39.4078M274.242 27.466H286.184M274.242 39.4078V51.3495M274.242 39.4078H286.184M274.242 51.3495V63.2913M274.242 51.3495H286.184M274.242 63.2913V75.233M274.242 63.2913H286.184M274.242 75.233V87.1748M274.242 75.233H286.184M274.242 87.1748V99.1165M274.242 87.1748H286.184M274.242 99.1165V111.058M274.242 99.1165H286.184M274.242 111.058V123M274.242 111.058H286.184M274.242 123V134.942M274.242 123H286.184M274.242 134.942V146.884M274.242 134.942H286.184M274.242 146.884V158.825M274.242 146.884H286.184M274.242 158.825V170.767M274.242 158.825H286.184M274.242 170.767V182.709M274.242 170.767H286.184M274.242 182.709V194.651M274.242 182.709H286.184M274.242 194.651V206.592M274.242 194.651H286.184M274.242 206.592V218.534M274.242 206.592H286.184M274.242 218.534V230.476M274.242 218.534H286.184M274.242 230.476V242.418M274.242 230.476H286.184M274.242 242.418H286.184M286.184 3.58252V15.5243M286.184 3.58252H298.126M286.184 15.5243V27.466M286.184 15.5243H298.126M286.184 27.466V39.4078M286.184 27.466H298.126M286.184 39.4078V51.3495M286.184 39.4078H298.126M286.184 51.3495V63.2913M286.184 51.3495H298.126M286.184 63.2913V75.233M286.184 63.2913H298.126M286.184 75.233V87.1748M286.184 75.233H298.126M286.184 87.1748V99.1165M286.184 87.1748H298.126M286.184 99.1165V111.058M286.184 99.1165H298.126M286.184 111.058V123M286.184 111.058H298.126M286.184 123V134.942M286.184 123H298.126M286.184 134.942V146.884M286.184 134.942H298.126M286.184 146.884V158.825M286.184 146.884H298.126M286.184 158.825V170.767M286.184 158.825H298.126M286.184 170.767V182.709M286.184 170.767H298.126M286.184 182.709V194.651M286.184 182.709H298.126M286.184 194.651V206.592M286.184 194.651H298.126M286.184 206.592V218.534M286.184 206.592H298.126M286.184 218.534V230.476M286.184 218.534H298.126M286.184 230.476V242.418M286.184 230.476H298.126M286.184 242.418H298.126M298.126 3.58252V15.5243M298.126 3.58252H310.068M298.126 15.5243V27.466M298.126 15.5243H310.068M298.126 27.466V39.4078M298.126 27.466H310.068M298.126 39.4078V51.3495M298.126 39.4078H310.068M298.126 51.3495V63.2913M298.126 51.3495H310.068M298.126 63.2913V75.233M298.126 63.2913H310.068M298.126 75.233V87.1748M298.126 75.233H310.068M298.126 87.1748V99.1165M298.126 87.1748H310.068M298.126 99.1165V111.058M298.126 99.1165H310.068M298.126 111.058V123M298.126 111.058H310.068M298.126 123V134.942M298.126 123H310.068M298.126 134.942V146.884M298.126 134.942H310.068M298.126 146.884V158.825M298.126 146.884H310.068M298.126 158.825V170.767M298.126 158.825H310.068M298.126 170.767V182.709M298.126 170.767H310.068M298.126 182.709V194.651M298.126 182.709H310.068M298.126 194.651V206.592M298.126 194.651H310.068M298.126 206.592V218.534M298.126 206.592H310.068M298.126 218.534V230.476M298.126 218.534H310.068M298.126 230.476V242.418M298.126 230.476H310.068M298.126 242.418H310.068M310.068 3.58252V15.5243M310.068 3.58252H322.009M310.068 15.5243V27.466M310.068 15.5243H322.009M310.068 27.466V39.4078M310.068 27.466H322.009M310.068 39.4078V51.3495M310.068 39.4078H322.009M310.068 51.3495V63.2913M310.068 51.3495H322.009M310.068 63.2913V75.233M310.068 63.2913H322.009M310.068 75.233V87.1748M310.068 75.233H322.009M310.068 87.1748V99.1165M310.068 87.1748H322.009M310.068 99.1165V111.058M310.068 99.1165H322.009M310.068 111.058V123M310.068 111.058H322.009M310.068 123V134.942M310.068 123H322.009M310.068 134.942V146.884M310.068 134.942H322.009M310.068 146.884V158.825M310.068 146.884H322.009M310.068 158.825V170.767M310.068 158.825H322.009M310.068 170.767V182.709M310.068 170.767H322.009M310.068 182.709V194.651M310.068 182.709H322.009M310.068 194.651V206.592M310.068 194.651H322.009M310.068 206.592V218.534M310.068 206.592H322.009M310.068 218.534V230.476M310.068 218.534H322.009M310.068 230.476V242.418M310.068 230.476H322.009M310.068 242.418H322.009M322.009 3.58252V15.5243M322.009 3.58252H333.951M322.009 15.5243V27.466M322.009 15.5243H333.951M322.009 27.466V39.4078M322.009 27.466H333.951M322.009 39.4078V51.3495M322.009 39.4078H333.951M322.009 51.3495V63.2913M322.009 51.3495H333.951M322.009 63.2913V75.233M322.009 63.2913H333.951M322.009 75.233V87.1748M322.009 75.233H333.951M322.009 87.1748V99.1165M322.009 87.1748H333.951M322.009 99.1165V111.058M322.009 99.1165H333.951M322.009 111.058V123M322.009 111.058H333.951M322.009 123V134.942M322.009 123H333.951M322.009 134.942V146.884M322.009 134.942H333.951M322.009 146.884V158.825M322.009 146.884H333.951M322.009 158.825V170.767M322.009 158.825H333.951M322.009 170.767V182.709M322.009 170.767H333.951M322.009 182.709V194.651M322.009 182.709H333.951M322.009 194.651V206.592M322.009 194.651H333.951M322.009 206.592V218.534M322.009 206.592H333.951M322.009 218.534V230.476M322.009 218.534H333.951M322.009 230.476V242.418M322.009 230.476H333.951M322.009 242.418H333.951M333.951 3.58252V15.5243M333.951 3.58252H345.893M333.951 15.5243V27.466M333.951 15.5243H345.893M333.951 27.466V39.4078M333.951 27.466H345.893M333.951 39.4078V51.3495M333.951 39.4078H345.893M333.951 51.3495V63.2913M333.951 51.3495H345.893M333.951 63.2913V75.233M333.951 63.2913H345.893M333.951 75.233V87.1748M333.951 75.233H345.893M333.951 87.1748V99.1165M333.951 87.1748H345.893M333.951 99.1165V111.058M333.951 99.1165H345.893M333.951 111.058V123M333.951 111.058H345.893M333.951 123V134.942M333.951 123H345.893M333.951 134.942V146.884M333.951 134.942H345.893M333.951 146.884V158.825M333.951 146.884H345.893M333.951 158.825V170.767M333.951 158.825H345.893M333.951 170.767V182.709M333.951 170.767H345.893M333.951 182.709V194.651M333.951 182.709H345.893M333.951 194.651V206.592M333.951 194.651H345.893M333.951 206.592V218.534M333.951 206.592H345.893M333.951 218.534V230.476M333.951 218.534H345.893M333.951 230.476V242.418M333.951 230.476H345.893M333.951 242.418H345.893M345.893 3.58252V15.5243M345.893 3.58252H357.835M345.893 15.5243V27.466M345.893 15.5243H357.835M345.893 27.466V39.4078M345.893 27.466H357.835M345.893 39.4078V51.3495M345.893 39.4078H357.835M345.893 51.3495V63.2913M345.893 51.3495H357.835M345.893 63.2913V75.233M345.893 63.2913H357.835M345.893 75.233V87.1748M345.893 75.233H357.835M345.893 87.1748V99.1165M345.893 87.1748H357.835M345.893 99.1165V111.058M345.893 99.1165H357.835M345.893 111.058V123M345.893 111.058H357.835M345.893 123V134.942M345.893 123H357.835M345.893 134.942V146.884M345.893 134.942H357.835M345.893 146.884V158.825M345.893 146.884H357.835M345.893 158.825V170.767M345.893 158.825H357.835M345.893 170.767V182.709M345.893 170.767H357.835M345.893 182.709V194.651M345.893 182.709H357.835M345.893 194.651V206.592M345.893 194.651H357.835M345.893 206.592V218.534M345.893 206.592H357.835M345.893 218.534V230.476M345.893 218.534H357.835M345.893 230.476V242.418M345.893 230.476H357.835M345.893 242.418H357.835M357.835 3.58252V15.5243M357.835 3.58252H369.776M357.835 15.5243V27.466M357.835 15.5243H369.776M357.835 27.466V39.4078M357.835 27.466H369.776M357.835 39.4078V51.3495M357.835 39.4078H369.776M357.835 51.3495V63.2913M357.835 51.3495H369.776M357.835 63.2913V75.233M357.835 63.2913H369.776M357.835 75.233V87.1748M357.835 75.233H369.776M357.835 87.1748V99.1165M357.835 87.1748H369.776M357.835 99.1165V111.058M357.835 99.1165H369.776M357.835 111.058V123M357.835 111.058H369.776M357.835 123V134.942M357.835 123H369.776M357.835 134.942V146.884M357.835 134.942H369.776M357.835 146.884V158.825M357.835 146.884H369.776M357.835 158.825V170.767M357.835 158.825H369.776M357.835 170.767V182.709M357.835 170.767H369.776M357.835 182.709V194.651M357.835 182.709H369.776M357.835 194.651V206.592M357.835 194.651H369.776M357.835 206.592V218.534M357.835 206.592H369.776M357.835 218.534V230.476M357.835 218.534H369.776M357.835 230.476V242.418M357.835 230.476H369.776M357.835 242.418H369.776M369.776 3.58252V15.5243M369.776 3.58252H381.718M369.776 15.5243V27.466M369.776 15.5243H381.718M369.776 27.466V39.4078M369.776 27.466H381.718M369.776 39.4078V51.3495M369.776 39.4078H381.718M369.776 51.3495V63.2913M369.776 51.3495H381.718M369.776 63.2913V75.233M369.776 63.2913H381.718M369.776 75.233V87.1748M369.776 75.233H381.718M369.776 87.1748V99.1165M369.776 87.1748H381.718M369.776 99.1165V111.058M369.776 99.1165H381.718M369.776 111.058V123M369.776 111.058H381.718M369.776 123V134.942M369.776 123H381.718M369.776 134.942V146.884M369.776 134.942H381.718M369.776 146.884V158.825M369.776 146.884H381.718M369.776 158.825V170.767M369.776 158.825H381.718M369.776 170.767V182.709M369.776 170.767H381.718M369.776 182.709V194.651M369.776 182.709H381.718M369.776 194.651V206.592M369.776 194.651H381.718M369.776 206.592V218.534M369.776 206.592H381.718M369.776 218.534V230.476M369.776 218.534H381.718M369.776 230.476V242.418M369.776 230.476H381.718M369.776 242.418H381.718M381.718 3.58252V15.5243M381.718 3.58252H393.66M381.718 15.5243V27.466M381.718 15.5243H393.66M381.718 27.466V39.4078M381.718 27.466H393.66M381.718 39.4078V51.3495M381.718 39.4078H393.66M381.718 51.3495V63.2913M381.718 51.3495H393.66M381.718 63.2913V75.233M381.718 63.2913H393.66M381.718 75.233V87.1748M381.718 75.233H393.66M381.718 87.1748V99.1165M381.718 87.1748H393.66M381.718 99.1165V111.058M381.718 99.1165H393.66M381.718 111.058V123M381.718 111.058H393.66M381.718 123V134.942M381.718 123H393.66M381.718 134.942V146.884M381.718 134.942H393.66M381.718 146.884V158.825M381.718 146.884H393.66M381.718 158.825V170.767M381.718 158.825H393.66M381.718 170.767V182.709M381.718 170.767H393.66M381.718 182.709V194.651M381.718 182.709H393.66M381.718 194.651V206.592M381.718 194.651H393.66M381.718 206.592V218.534M381.718 206.592H393.66M381.718 218.534V230.476M381.718 218.534H393.66M381.718 230.476V242.418M381.718 230.476H393.66M381.718 242.418H393.66M393.66 3.58252V15.5243M393.66 3.58252H405.602M393.66 15.5243V27.466M393.66 15.5243H405.602M393.66 27.466V39.4078M393.66 27.466H405.602M393.66 39.4078V51.3495M393.66 39.4078H405.602M393.66 51.3495V63.2913M393.66 51.3495H405.602M393.66 63.2913V75.233M393.66 63.2913H405.602M393.66 75.233V87.1748M393.66 75.233H405.602M393.66 87.1748V99.1165M393.66 87.1748H405.602M393.66 99.1165V111.058M393.66 99.1165H405.602M393.66 111.058V123M393.66 111.058H405.602M393.66 123V134.942M393.66 123H405.602M393.66 134.942V146.884M393.66 134.942H405.602M393.66 146.884V158.825M393.66 146.884H405.602M393.66 158.825V170.767M393.66 158.825H405.602M393.66 170.767V182.709M393.66 170.767H405.602M393.66 182.709V194.651M393.66 182.709H405.602M393.66 194.651V206.592M393.66 194.651H405.602M393.66 206.592V218.534M393.66 206.592H405.602M393.66 218.534V230.476M393.66 218.534H405.602M393.66 230.476V242.418M393.66 230.476H405.602M393.66 242.418H405.602M405.602 3.58252V15.5243M405.602 3.58252H417.543M405.602 15.5243V27.466M405.602 15.5243H417.543M405.602 27.466V39.4078M405.602 27.466H417.543M405.602 39.4078V51.3495M405.602 39.4078H417.543M405.602 51.3495V63.2913M405.602 51.3495H417.543M405.602 63.2913V75.233M405.602 63.2913H417.543M405.602 75.233V87.1748M405.602 75.233H417.543M405.602 87.1748V99.1165M405.602 87.1748H417.543M405.602 99.1165V111.058M405.602 99.1165H417.543M405.602 111.058V123M405.602 111.058H417.543M405.602 123V134.942M405.602 123H417.543M405.602 134.942V146.884M405.602 134.942H417.543M405.602 146.884V158.825M405.602 146.884H417.543M405.602 158.825V170.767M405.602 158.825H417.543M405.602 170.767V182.709M405.602 170.767H417.543M405.602 182.709V194.651M405.602 182.709H417.543M405.602 194.651V206.592M405.602 194.651H417.543M405.602 206.592V218.534M405.602 206.592H417.543M405.602 218.534V230.476M405.602 218.534H417.543M405.602 230.476V242.418M405.602 230.476H417.543M405.602 242.418H417.543M417.543 3.58252V15.5243M417.543 3.58252H429.485M417.543 15.5243V27.466M417.543 15.5243H429.485M417.543 27.466V39.4078M417.543 27.466H429.485M417.543 39.4078V51.3495M417.543 39.4078H429.485M417.543 51.3495V63.2913M417.543 51.3495H429.485M417.543 63.2913V75.233M417.543 63.2913H429.485M417.543 75.233V87.1748M417.543 75.233H429.485M417.543 87.1748V99.1165M417.543 87.1748H429.485M417.543 99.1165V111.058M417.543 99.1165H429.485M417.543 111.058V123M417.543 111.058H429.485M417.543 123V134.942M417.543 123H429.485M417.543 134.942V146.884M417.543 134.942H429.485M417.543 146.884V158.825M417.543 146.884H429.485M417.543 158.825V170.767M417.543 158.825H429.485M417.543 170.767V182.709M417.543 170.767H429.485M417.543 182.709V194.651M417.543 182.709H429.485M417.543 194.651V206.592M417.543 194.651H429.485M417.543 206.592V218.534M417.543 206.592H429.485M417.543 218.534V230.476M417.543 218.534H429.485M417.543 230.476V242.418M417.543 230.476H429.485M417.543 242.418H429.485M429.485 3.58252V15.5243M429.485 3.58252H441.427M429.485 15.5243V27.466M429.485 15.5243H441.427M429.485 27.466V39.4078M429.485 27.466H441.427M429.485 39.4078V51.3495M429.485 39.4078H441.427M429.485 51.3495V63.2913M429.485 51.3495H441.427M429.485 63.2913V75.233M429.485 63.2913H441.427M429.485 75.233V87.1748M429.485 75.233H441.427M429.485 87.1748V99.1165M429.485 87.1748H441.427M429.485 99.1165V111.058M429.485 99.1165H441.427M429.485 111.058V123M429.485 111.058H441.427M429.485 123V134.942M429.485 123H441.427M429.485 134.942V146.884M429.485 134.942H441.427M429.485 146.884V158.825M429.485 146.884H441.427M429.485 158.825V170.767M429.485 158.825H441.427M429.485 170.767V182.709M429.485 170.767H441.427M429.485 182.709V194.651M429.485 182.709H441.427M429.485 194.651V206.592M429.485 194.651H441.427M429.485 206.592V218.534M429.485 206.592H441.427M429.485 218.534V230.476M429.485 218.534H441.427M429.485 230.476V242.418M429.485 230.476H441.427M429.485 242.418H441.427M441.427 3.58252V15.5243M441.427 3.58252H453.369M441.427 15.5243V27.466M441.427 15.5243H453.369M441.427 27.466V39.4078M441.427 27.466H453.369M441.427 39.4078V51.3495M441.427 39.4078H453.369M441.427 51.3495V63.2913M441.427 51.3495H453.369M441.427 63.2913V75.233M441.427 63.2913H453.369M441.427 75.233V87.1748M441.427 75.233H453.369M441.427 87.1748V99.1165M441.427 87.1748H453.369M441.427 99.1165V111.058M441.427 99.1165H453.369M441.427 111.058V123M441.427 111.058H453.369M441.427 123V134.942M441.427 123H453.369M441.427 134.942V146.884M441.427 134.942H453.369M441.427 146.884V158.825M441.427 146.884H453.369M441.427 158.825V170.767M441.427 158.825H453.369M441.427 170.767V182.709M441.427 170.767H453.369M441.427 182.709V194.651M441.427 182.709H453.369M441.427 194.651V206.592M441.427 194.651H453.369M441.427 206.592V218.534M441.427 206.592H453.369M441.427 218.534V230.476M441.427 218.534H453.369M441.427 230.476V242.418M441.427 230.476H453.369M441.427 242.418H453.369M453.369 3.58252V15.5243M453.369 3.58252H465.31M453.369 15.5243V27.466M453.369 15.5243H465.31M453.369 27.466V39.4078M453.369 27.466H465.31M453.369 39.4078V51.3495M453.369 39.4078H465.31M453.369 51.3495V63.2913M453.369 51.3495H465.31M453.369 63.2913V75.233M453.369 63.2913H465.31M453.369 75.233V87.1748M453.369 75.233H465.31M453.369 87.1748V99.1165M453.369 87.1748H465.31M453.369 99.1165V111.058M453.369 99.1165H465.31M453.369 111.058V123M453.369 111.058H465.31M453.369 123V134.942M453.369 123H465.31M453.369 134.942V146.884M453.369 134.942H465.31M453.369 146.884V158.825M453.369 146.884H465.31M453.369 158.825V170.767M453.369 158.825H465.31M453.369 170.767V182.709M453.369 170.767H465.31M453.369 182.709V194.651M453.369 182.709H465.31M453.369 194.651V206.592M453.369 194.651H465.31M453.369 206.592V218.534M453.369 206.592H465.31M453.369 218.534V230.476M453.369 218.534H465.31M453.369 230.476V242.418M453.369 230.476H465.31M453.369 242.418H465.31M465.31 3.58252V15.5243M465.31 3.58252H477.252M465.31 15.5243V27.466M465.31 15.5243H477.252M465.31 27.466V39.4078M465.31 27.466H477.252M465.31 39.4078V51.3495M465.31 39.4078H477.252M465.31 51.3495V63.2913M465.31 51.3495H477.252M465.31 63.2913V75.233M465.31 63.2913H477.252M465.31 75.233V87.1748M465.31 75.233H477.252M465.31 87.1748V99.1165M465.31 87.1748H477.252M465.31 99.1165V111.058M465.31 99.1165H477.252M465.31 111.058V123M465.31 111.058H477.252M465.31 123V134.942M465.31 123H477.252M465.31 134.942V146.884M465.31 134.942H477.252M465.31 146.884V158.825M465.31 146.884H477.252M465.31 158.825V170.767M465.31 158.825H477.252M465.31 170.767V182.709M465.31 170.767H477.252M465.31 182.709V194.651M465.31 182.709H477.252M465.31 194.651V206.592M465.31 194.651H477.252M465.31 206.592V218.534M465.31 206.592H477.252M465.31 218.534V230.476M465.31 218.534H477.252M465.31 230.476V242.418M465.31 230.476H477.252M465.31 242.418H477.252M477.252 3.58252V15.5243M477.252 3.58252H489.194M477.252 15.5243V27.466M477.252 15.5243H489.194M477.252 27.466V39.4078M477.252 27.466H489.194M477.252 39.4078V51.3495M477.252 39.4078H489.194M477.252 51.3495V63.2913M477.252 51.3495H489.194M477.252 63.2913V75.233M477.252 63.2913H489.194M477.252 75.233V87.1748M477.252 75.233H489.194M477.252 87.1748V99.1165M477.252 87.1748H489.194M477.252 99.1165V111.058M477.252 99.1165H489.194M477.252 111.058V123M477.252 111.058H489.194M477.252 123V134.942M477.252 123H489.194M477.252 134.942V146.884M477.252 134.942H489.194M477.252 146.884V158.825M477.252 146.884H489.194M477.252 158.825V170.767M477.252 158.825H489.194M477.252 170.767V182.709M477.252 170.767H489.194M477.252 182.709V194.651M477.252 182.709H489.194M477.252 194.651V206.592M477.252 194.651H489.194M477.252 206.592V218.534M477.252 206.592H489.194M477.252 218.534V230.476M477.252 218.534H489.194M477.252 230.476V242.418M477.252 230.476H489.194M477.252 242.418H489.194M489.194 3.58252V15.5243M489.194 3.58252H501.136M489.194 15.5243V27.466M489.194 15.5243H501.136M489.194 27.466V39.4078M489.194 27.466H501.136M489.194 39.4078V51.3495M489.194 39.4078H501.136M489.194 51.3495V63.2913M489.194 51.3495H501.136M489.194 63.2913V75.233M489.194 63.2913H501.136M489.194 75.233V87.1748M489.194 75.233H501.136M489.194 87.1748V99.1165M489.194 87.1748H501.136M489.194 99.1165V111.058M489.194 99.1165H501.136M489.194 111.058V123M489.194 111.058H501.136M489.194 123V134.942M489.194 123H501.136M489.194 134.942V146.884M489.194 134.942H501.136M489.194 146.884V158.825M489.194 146.884H501.136M489.194 158.825V170.767M489.194 158.825H501.136M489.194 170.767V182.709M489.194 170.767H501.136M489.194 182.709V194.651M489.194 182.709H501.136M489.194 194.651V206.592M489.194 194.651H501.136M489.194 206.592V218.534M489.194 206.592H501.136M489.194 218.534V230.476M489.194 218.534H501.136M489.194 230.476V242.418M489.194 230.476H501.136M489.194 242.418H501.136M501.136 3.58252V15.5243M501.136 3.58252H513.077M501.136 15.5243V27.466M501.136 15.5243H513.077M501.136 27.466V39.4078M501.136 27.466H513.077M501.136 39.4078V51.3495M501.136 39.4078H513.077M501.136 51.3495V63.2913M501.136 51.3495H513.077M501.136 63.2913V75.233M501.136 63.2913H513.077M501.136 75.233V87.1748M501.136 75.233H513.077M501.136 87.1748V99.1165M501.136 87.1748H513.077M501.136 99.1165V111.058M501.136 99.1165H513.077M501.136 111.058V123M501.136 111.058H513.077M501.136 123V134.942M501.136 123H513.077M501.136 134.942V146.884M501.136 134.942H513.077M501.136 146.884V158.825M501.136 146.884H513.077M501.136 158.825V170.767M501.136 158.825H513.077M501.136 170.767V182.709M501.136 170.767H513.077M501.136 182.709V194.651M501.136 182.709H513.077M501.136 194.651V206.592M501.136 194.651H513.077M501.136 206.592V218.534M501.136 206.592H513.077M501.136 218.534V230.476M501.136 218.534H513.077M501.136 230.476V242.418M501.136 230.476H513.077M501.136 242.418H513.077M513.077 3.58252V15.5243M513.077 3.58252H525.019V15.5243M513.077 15.5243V27.466M513.077 15.5243H525.019M513.077 27.466V39.4078M513.077 27.466H525.019M513.077 39.4078V51.3495M513.077 39.4078H525.019M513.077 51.3495V63.2913M513.077 51.3495H525.019M513.077 63.2913V75.233M513.077 63.2913H525.019M513.077 75.233V87.1748M513.077 75.233H525.019M513.077 87.1748V99.1165M513.077 87.1748H525.019M513.077 99.1165V111.058M513.077 99.1165H525.019M513.077 111.058V123M513.077 111.058H525.019M513.077 123V134.942M513.077 123H525.019M513.077 134.942V146.884M513.077 134.942H525.019M513.077 146.884V158.825M513.077 146.884H525.019M513.077 158.825V170.767M513.077 158.825H525.019M513.077 170.767V182.709M513.077 170.767H525.019M513.077 182.709V194.651M513.077 182.709H525.019M513.077 194.651V206.592M513.077 194.651H525.019M513.077 206.592V218.534M513.077 206.592H525.019M513.077 218.534V230.476M513.077 218.534H525.019M513.077 230.476V242.418M513.077 230.476H525.019M513.077 242.418H525.019V230.476M525.019 15.5243V27.466M525.019 27.466V39.4078M525.019 39.4078V51.3495M525.019 51.3495V63.2913M525.019 63.2913V75.233M525.019 75.233V87.1748M525.019 87.1748V99.1165M525.019 99.1165V111.058M525.019 111.058V123M525.019 123V134.942M525.019 134.942V146.884M525.019 146.884V158.825M525.019 158.825V170.767M525.019 170.767V182.709M525.019 182.709V194.651M525.019 194.651V206.592M525.019 206.592V218.534M525.019 218.534V230.476" stroke="url(#paint0_radial_25459_6809)" stroke-opacity="0.6" stroke-width="0.149272"/>
</g>
<g opacity="0.8" style="mix-blend-mode:soft-light">
<path d="M47.3495 47.767V51.3495M47.3495 51.3495V54.932M47.3495 51.3495H43.767M47.3495 51.3495H50.9321M47.3495 143.301V146.884M47.3495 146.884V150.466M47.3495 146.884H43.767M47.3495 146.884H50.9321M47.3495 238.835V242.417M47.3495 242.417V246M47.3495 242.417H43.767M47.3495 242.417H50.9321M142.884 47.767V51.3495M142.884 51.3495V54.932M142.884 51.3495H139.301M142.884 51.3495H146.466M142.884 143.301V146.884M142.884 146.884V150.466M142.884 146.884H139.301M142.884 146.884H146.466M142.884 238.835V242.417M142.884 242.417V246M142.884 242.417H139.301M142.884 242.417H146.466M238.418 47.767V51.3495M238.418 51.3495V54.932M238.418 51.3495H234.835M238.418 51.3495H242M238.418 143.301V146.884M238.418 146.884V150.466M238.418 146.884H234.835M238.418 146.884H242M238.418 238.835V242.417M238.418 242.417V246M238.418 242.417H234.835M238.418 242.417H242M333.952 47.767V51.3495M333.952 51.3495V54.932M333.952 51.3495H330.369M333.952 51.3495H337.534M333.952 143.301V146.884M333.952 146.884V150.466M333.952 146.884H330.369M333.952 146.884H337.534M333.952 238.835V242.417M333.952 242.417V246M333.952 242.417H330.369M333.952 242.417H337.534M429.485 47.767V51.3495M429.485 51.3495V54.932M429.485 51.3495H425.903M429.485 51.3495H433.068M429.485 143.301V146.884M429.485 146.884V150.466M429.485 146.884H425.903M429.485 146.884H433.068M429.485 238.835V242.417M429.485 242.417V246M429.485 242.417H425.903M429.485 242.417H433.068M525.02 47.767V51.3495M525.02 51.3495V54.932M525.02 51.3495H521.437M525.02 51.3495H528.602M525.02 143.301V146.884M525.02 146.884V150.466M525.02 146.884H521.437M525.02 146.884H528.602M525.02 238.835V242.417M525.02 242.417V246M525.02 242.417H521.437M525.02 242.417H528.602M47.3495 0V3.58253M47.3495 3.58253V7.16505M47.3495 3.58253H43.767M47.3495 3.58253H50.9321M47.3495 95.534V99.1165M47.3495 99.1165V102.699M47.3495 99.1165H43.767M47.3495 99.1165H50.9321M47.3495 191.068V194.65M47.3495 194.65V198.233M47.3495 194.65H43.767M47.3495 194.65H50.9321M142.884 0V3.58253M142.884 3.58253V7.16505M142.884 3.58253H139.301M142.884 3.58253H146.466M142.884 95.534V99.1165M142.884 99.1165V102.699M142.884 99.1165H139.301M142.884 99.1165H146.466M142.884 191.068V194.65M142.884 194.65V198.233M142.884 194.65H139.301M142.884 194.65H146.466M238.418 0V3.58253M238.418 3.58253V7.16505M238.418 3.58253H234.835M238.418 3.58253H242M238.418 95.534V99.1165M238.418 99.1165V102.699M238.418 99.1165H234.835M238.418 99.1165H242M238.418 191.068V194.65M238.418 194.65V198.233M238.418 194.65H234.835M238.418 194.65H242M333.952 0V3.58253M333.952 3.58253V7.16505M333.952 3.58253H330.369M333.952 3.58253H337.534M333.952 95.534V99.1165M333.952 99.1165V102.699M333.952 99.1165H330.369M333.952 99.1165H337.534M333.952 191.068V194.65M333.952 194.65V198.233M333.952 194.65H330.369M333.952 194.65H337.534M429.485 0V3.58253M429.485 3.58253V7.16505M429.485 3.58253H425.903M429.485 3.58253H433.068M429.485 95.534V99.1165M429.485 99.1165V102.699M429.485 99.1165H425.903M429.485 99.1165H433.068M429.485 191.068V194.65M429.485 194.65V198.233M429.485 194.65H425.903M429.485 194.65H433.068M525.02 0V3.58253M525.02 3.58253V7.16505M525.02 3.58253H521.437M525.02 3.58253H528.602M525.02 95.534V99.1165M525.02 99.1165V102.699M525.02 99.1165H521.437M525.02 99.1165H528.602M525.02 191.068V194.65M525.02 194.65V198.233M525.02 194.65H521.437M525.02 194.65H528.602M-0.417475 47.767V51.3495M-0.417475 51.3495V54.932M-0.417475 51.3495H-4M-0.417475 51.3495H3.16505M-0.417475 143.301V146.884M-0.417475 146.884V150.466M-0.417475 146.884H-4M-0.417475 146.884H3.16505M-0.417475 238.835V242.417M-0.417475 242.417V246M-0.417475 242.417H-4M-0.417475 242.417H3.16505M95.1165 47.767V51.3495M95.1165 51.3495V54.932M95.1165 51.3495H91.534M95.1165 51.3495H98.6991M95.1165 143.301V146.884M95.1165 146.884V150.466M95.1165 146.884H91.534M95.1165 146.884H98.6991M95.1165 238.835V242.417M95.1165 242.417V246M95.1165 242.417H91.534M95.1165 242.417H98.6991M190.651 47.767V51.3495M190.651 51.3495V54.932M190.651 51.3495H187.068M190.651 51.3495H194.233M190.651 143.301V146.884M190.651 146.884V150.466M190.651 146.884H187.068M190.651 146.884H194.233M190.651 238.835V242.417M190.651 242.417V246M190.651 242.417H187.068M190.651 242.417H194.233M286.185 47.767V51.3495M286.185 51.3495V54.932M286.185 51.3495H282.602M286.185 51.3495H289.767M286.185 143.301V146.884M286.185 146.884V150.466M286.185 146.884H282.602M286.185 146.884H289.767M286.185 238.835V242.417M286.185 242.417V246M286.185 242.417H282.602M286.185 242.417H289.767M381.719 47.767V51.3495M381.719 51.3495V54.932M381.719 51.3495H378.136M381.719 51.3495H385.301M381.719 143.301V146.884M381.719 146.884V150.466M381.719 146.884H378.136M381.719 146.884H385.301M381.719 238.835V242.417M381.719 242.417V246M381.719 242.417H378.136M381.719 242.417H385.301M477.252 47.767V51.3495M477.252 51.3495V54.932M477.252 51.3495H473.67M477.252 51.3495H480.835M477.252 143.301V146.884M477.252 146.884V150.466M477.252 146.884H473.67M477.252 146.884H480.835M477.252 238.835V242.417M477.252 242.417V246M477.252 242.417H473.67M477.252 242.417H480.835M-0.417475 1.76117e-05V3.58254M-0.417475 3.58254V7.16507M-0.417475 3.58254H-4M-0.417475 3.58254H3.16505M-0.417475 95.534V99.1165M-0.417475 99.1165V102.699M-0.417475 99.1165H-4M-0.417475 99.1165H3.16505M-0.417475 191.068V194.65M-0.417475 194.65V198.233M-0.417475 194.65H-4M-0.417475 194.65H3.16505M95.1165 0V3.58253M95.1165 3.58253V7.16505M95.1165 3.58253H91.534M95.1165 3.58253H98.6991M95.1165 95.534V99.1165M95.1165 99.1165V102.699M95.1165 99.1165H91.534M95.1165 99.1165H98.6991M95.1165 191.068V194.65M95.1165 194.65V198.233M95.1165 194.65H91.534M95.1165 194.65H98.6991M190.651 0V3.58253M190.651 3.58253V7.16505M190.651 3.58253H187.068M190.651 3.58253H194.233M190.651 95.534V99.1165M190.651 99.1165V102.699M190.651 99.1165H187.068M190.651 99.1165H194.233M190.651 191.068V194.65M190.651 194.65V198.233M190.651 194.65H187.068M190.651 194.65H194.233M286.185 0V3.58253M286.185 3.58253V7.16505M286.185 3.58253H282.602M286.185 3.58253H289.767M286.185 95.534V99.1165M286.185 99.1165V102.699M286.185 99.1165H282.602M286.185 99.1165H289.767M286.185 191.068V194.65M286.185 194.65V198.233M286.185 194.65H282.602M286.185 194.65H289.767M381.719 0V3.58253M381.719 3.58253V7.16505M381.719 3.58253H378.136M381.719 3.58253H385.301M381.719 95.534V99.1165M381.719 99.1165V102.699M381.719 99.1165H378.136M381.719 99.1165H385.301M381.719 191.068V194.65M381.719 194.65V198.233M381.719 194.65H378.136M381.719 194.65H385.301M477.252 0V3.58253M477.252 3.58253V7.16505M477.252 3.58253H473.67M477.252 3.58253H480.835M477.252 95.534V99.1165M477.252 99.1165V102.699M477.252 99.1165H473.67M477.252 99.1165H480.835M477.252 191.068V194.65M477.252 194.65V198.233M477.252 194.65H473.67M477.252 194.65H480.835" stroke="url(#paint1_radial_25459_6809)" stroke-opacity="0.6" stroke-width="0.298544"/>
</g>
<defs>
<radialGradient id="paint0_radial_25459_6809" cx="0" cy="0" r="1" gradientUnits="userSpaceOnUse" gradientTransform="translate(262.301 123) rotate(90) scale(119.417 262.719)">
<stop stop-color="white"/>
<stop offset="1" stop-color="white" stop-opacity="0"/>
</radialGradient>
<radialGradient id="paint1_radial_25459_6809" cx="0" cy="0" r="1" gradientUnits="userSpaceOnUse" gradientTransform="translate(262.301 123) rotate(90) scale(123 266.301)">
<stop stop-color="white"/>
<stop offset="1" stop-color="white" stop-opacity="0"/>
</radialGradient>
</defs>
</svg>
