<svg width="40" height="40" viewBox="0 0 40 40" fill="none" xmlns="http://www.w3.org/2000/svg">
<path fill-rule="evenodd" clip-rule="evenodd" d="M25.5473 8.03997C25.6729 7.56918 25.6103 7.06798 25.3727 6.64254C25.1352 6.21711 24.7413 5.90086 24.2746 5.76079C23.8079 5.62071 23.305 5.66782 22.8725 5.89213C22.4399 6.11643 22.1117 6.50032 21.9573 6.96247L14.4573 31.9625C14.3351 32.4323 14.3999 32.9311 14.638 33.3541C14.8761 33.7771 15.269 34.0913 15.734 34.2305C16.1991 34.3698 16.7 34.3233 17.1314 34.1008C17.5628 33.8782 17.8911 33.4971 18.0473 33.0375L25.5473 8.03997ZM11.3273 12.425C11.6784 12.7765 11.8756 13.2531 11.8756 13.75C11.8756 14.2468 11.6784 14.7234 11.3273 15.075L6.40226 20L11.3273 24.925C11.6585 25.2804 11.8388 25.7505 11.8302 26.2363C11.8216 26.722 11.6248 27.1855 11.2813 27.529C10.9378 27.8726 10.4743 28.0693 9.98856 28.0779C9.50281 28.0865 9.03269 27.9062 8.67726 27.575L2.42726 21.325C2.07613 20.9734 1.87891 20.4968 1.87891 20C1.87891 19.5031 2.07613 19.0265 2.42726 18.675L8.67726 12.425C9.02882 12.0738 9.50538 11.8766 10.0023 11.8766C10.4991 11.8766 10.9757 12.0738 11.3273 12.425ZM28.6773 27.575C28.3261 27.2234 28.1289 26.7468 28.1289 26.25C28.1289 25.7531 28.3261 25.2765 28.6773 24.925L33.6023 20L28.6773 15.075C28.3461 14.7195 28.1657 14.2494 28.1743 13.7637C28.1829 13.2779 28.3797 12.8144 28.7232 12.4709C29.0667 12.1274 29.5302 11.9306 30.016 11.922C30.5017 11.9135 30.9718 12.0938 31.3273 12.425L37.5773 18.675C37.9284 19.0265 38.1256 19.5031 38.1256 20C38.1256 20.4968 37.9284 20.9734 37.5773 21.325L31.3273 27.575C30.9757 27.9261 30.4991 28.1233 30.0023 28.1233C29.5054 28.1233 29.0288 27.9261 28.6773 27.575Z" fill="#149BB0"/>
</svg>
