<svg width="34" height="37" viewBox="0 0 34 37" fill="none" xmlns="http://www.w3.org/2000/svg">
<path fill-rule="evenodd" clip-rule="evenodd" d="M14.8745 0.731134C15.3432 0.262965 15.9786 0 16.6411 0C17.3036 0 17.939 0.262965 18.4078 0.731134L23.1245 5.44447C23.3568 5.67663 23.5411 5.9523 23.6668 6.25572C23.7925 6.55914 23.8573 6.88436 23.8573 7.2128C23.8573 7.54124 23.7925 7.86646 23.6668 8.16988C23.5411 8.4733 23.3568 8.74897 23.1245 8.98113L18.4078 13.6945C17.939 14.1626 17.3036 14.4256 16.6411 14.4256C15.9786 14.4256 15.3432 14.1626 14.8745 13.6945L10.1578 8.98113C9.92548 8.74897 9.74119 8.4733 9.61545 8.16988C9.48972 7.86646 9.425 7.54124 9.425 7.2128C9.425 6.88436 9.48972 6.55914 9.61545 6.25572C9.74119 5.9523 9.92548 5.67663 10.1578 5.44447L14.8745 0.731134ZM16.6411 3.6778L13.1061 7.2128L16.6411 10.7478L20.1761 7.21447L16.6411 3.6778ZM24.3011 10.1595C24.5333 9.92715 24.809 9.74286 25.1124 9.61712C25.4158 9.49139 25.741 9.42667 26.0695 9.42667C26.3979 9.42667 26.7231 9.49139 27.0265 9.61712C27.33 9.74286 27.6056 9.92715 27.8378 10.1595L32.5511 14.8728C32.7834 15.105 32.9677 15.3806 33.0935 15.6841C33.2192 15.9875 33.2839 16.3127 33.2839 16.6411C33.2839 16.9696 33.2192 17.2948 33.0935 17.5982C32.9677 17.9016 32.7834 18.1773 32.5511 18.4095L27.8378 23.1228C27.6056 23.3551 27.33 23.5394 27.0265 23.6651C26.7231 23.7909 26.3979 23.8556 26.0695 23.8556C25.741 23.8556 25.4158 23.7909 25.1124 23.6651C24.809 23.5394 24.5333 23.3551 24.3011 23.1228L19.5878 18.4095C19.3555 18.1773 19.1712 17.9016 19.0455 17.5982C18.9197 17.2948 18.855 16.9696 18.855 16.6411C18.855 16.3127 18.9197 15.9875 19.0455 15.6841C19.1712 15.3806 19.3555 15.105 19.5878 14.8728L24.3011 10.1595ZM26.0678 13.1061L22.5345 16.6395L26.0678 20.1761L29.6061 16.6411L26.0678 13.1061ZM5.44613 10.1578C5.6783 9.92548 5.95397 9.74119 6.25739 9.61546C6.56081 9.48972 6.88603 9.425 7.21447 9.425C7.54291 9.425 7.86813 9.48972 8.17155 9.61546C8.47496 9.74119 8.75063 9.92548 8.9828 10.1578L13.6961 14.8711C13.9284 15.1033 14.1127 15.379 14.2385 15.6824C14.3642 15.9858 14.4289 16.311 14.4289 16.6395C14.4289 16.9679 14.3642 17.2931 14.2385 17.5965C14.1127 17.9 13.9284 18.1756 13.6961 18.4078L8.9828 23.1211C8.75063 23.3535 8.47496 23.5377 8.17155 23.6635C7.86813 23.7892 7.54291 23.8539 7.21447 23.8539C6.88603 23.8539 6.56081 23.7892 6.25739 23.6635C5.95397 23.5377 5.6783 23.3535 5.44613 23.1211L0.732799 18.4078C0.500483 18.1756 0.316191 17.9 0.190454 17.5965C0.0647174 17.2931 0 16.9679 0 16.6395C0 16.311 0.0647174 15.9858 0.190454 15.6824C0.316191 15.379 0.500483 15.1033 0.732799 14.8711L5.44613 10.1578ZM7.21447 13.1045L3.67947 16.6378L7.21447 20.1745L10.7478 16.6411L7.21447 13.1045ZM14.8745 19.5861C15.1066 19.3538 15.3823 19.1695 15.6857 19.0438C15.9891 18.9181 16.3144 18.8533 16.6428 18.8533C16.9712 18.8533 17.2965 18.9181 17.5999 19.0438C17.9033 19.1695 18.179 19.3538 18.4111 19.5861L23.1245 24.2995C23.5931 24.7683 23.8564 25.4041 23.8564 26.067C23.8564 26.7299 23.5931 27.3656 23.1245 27.8345L18.4111 32.5495C18.179 32.7818 17.9033 32.9661 17.5999 33.0918C17.2965 33.2176 16.9712 33.2823 16.6428 33.2823C16.3144 33.2823 15.9891 33.2176 15.6857 33.0918C15.3823 32.9661 15.1066 32.7818 14.8745 32.5495L10.1611 27.8345C9.69297 27.3657 9.43 26.7303 9.43 26.0678C9.43 25.4053 9.69297 24.7699 10.1611 24.3011L14.8745 19.5861ZM16.6411 22.5328L13.1061 26.0695L16.6411 29.6045L20.1761 26.0695L16.6411 22.5328Z" fill="#149BB0"/>
</svg>
