<svg width="40" height="40" viewBox="0 0 40 40" fill="none" xmlns="http://www.w3.org/2000/svg">
<path d="M27.2673 23.333C27.4007 22.233 27.5007 21.133 27.5007 19.9997C27.5007 18.8663 27.4007 17.7663 27.2673 16.6663H32.9007C33.1673 17.733 33.334 18.8497 33.334 19.9997C33.334 21.1497 33.1673 22.2663 32.9007 23.333M24.3173 32.5997C25.3173 30.7497 26.084 28.7497 26.6173 26.6663H31.534C29.9193 29.4468 27.3575 31.553 24.3173 32.5997ZM23.9007 23.333H16.1007C15.934 22.233 15.834 21.133 15.834 19.9997C15.834 18.8663 15.934 17.7497 16.1007 16.6663H23.9007C24.0507 17.7497 24.1673 18.8663 24.1673 19.9997C24.1673 21.133 24.0507 22.233 23.9007 23.333ZM20.0007 33.2663C18.6173 31.2663 17.5007 29.0497 16.8173 26.6663H23.184C22.5007 29.0497 21.384 31.2663 20.0007 33.2663ZM13.334 13.333H8.46732C10.0651 10.5447 12.6251 8.43508 15.6673 7.39967C14.6673 9.24967 13.9173 11.2497 13.334 13.333ZM8.46732 26.6663H13.334C13.9173 28.7497 14.6673 30.7497 15.6673 32.5997C12.6311 31.5535 10.0745 29.4467 8.46732 26.6663ZM7.10065 23.333C6.83398 22.2663 6.66732 21.1497 6.66732 19.9997C6.66732 18.8497 6.83398 17.733 7.10065 16.6663H12.734C12.6007 17.7663 12.5007 18.8663 12.5007 19.9997C12.5007 21.133 12.6007 22.233 12.734 23.333M20.0007 6.71634C21.384 8.71634 22.5007 10.9497 23.184 13.333H16.8173C17.5007 10.9497 18.6173 8.71634 20.0007 6.71634ZM31.534 13.333H26.6173C26.0949 11.269 25.3225 9.27652 24.3173 7.39967C27.384 8.44967 29.934 10.5663 31.534 13.333ZM20.0007 3.33301C10.784 3.33301 3.33398 10.833 3.33398 19.9997C3.33398 24.4199 5.08993 28.6592 8.21554 31.7848C9.76318 33.3324 11.6005 34.5601 13.6226 35.3977C15.6447 36.2352 17.812 36.6663 20.0007 36.6663C24.4209 36.6663 28.6602 34.9104 31.7858 31.7848C34.9114 28.6592 36.6673 24.4199 36.6673 19.9997C36.6673 17.811 36.2362 15.6437 35.3986 13.6216C34.5611 11.5995 33.3334 9.7622 31.7858 8.21456C30.2381 6.66692 28.4008 5.43926 26.3787 4.60168C24.3566 3.7641 22.1893 3.33301 20.0007 3.33301Z" fill="#149BB0"/>
</svg>
