<svg width="799" height="537" viewBox="0 0 799 537" fill="none" xmlns="http://www.w3.org/2000/svg">
<g opacity="0.8" style="mix-blend-mode:soft-light">
<path d="M-448.034 123.689V132.966M-448.034 132.966V142.243M-448.034 132.966H-457.311M-448.034 132.966H-438.757M-448.034 371.068V380.345M-448.034 380.345V389.621M-448.034 380.345H-457.311M-448.034 380.345H-438.757M-448.034 618.446V627.723M-448.034 627.723V637M-448.034 627.723H-457.311M-448.034 627.723H-438.757M-200.655 123.689V132.966M-200.655 132.966V142.243M-200.655 132.966H-209.932M-200.655 132.966H-191.379M-200.655 371.068V380.345M-200.655 380.345V389.621M-200.655 380.345H-209.932M-200.655 380.345H-191.379M-200.655 618.446V627.723M-200.655 627.723V637M-200.655 627.723H-209.932M-200.655 627.723H-191.379M46.7233 123.689V132.966M46.7233 132.966V142.243M46.7233 132.966H37.4466M46.7233 132.966H56M46.7233 371.068V380.345M46.7233 380.345V389.621M46.7233 380.345H37.4466M46.7233 380.345H56M46.7233 618.446V627.723M46.7233 627.723V637M46.7233 627.723H37.4466M46.7233 627.723H56M294.102 123.689V132.966M294.102 132.966V142.243M294.102 132.966H284.825M294.102 132.966H303.379M294.102 371.068V380.345M294.102 380.345V389.621M294.102 380.345H284.825M294.102 380.345H303.379M294.102 618.446V627.723M294.102 627.723V637M294.102 627.723H284.825M294.102 627.723H303.379M541.481 123.689V132.966M541.481 132.966V142.243M541.481 132.966H532.204M541.481 132.966H550.757M541.481 371.068V380.345M541.481 380.345V389.621M541.481 380.345H532.204M541.481 380.345H550.757M541.481 618.446V627.723M541.481 627.723V637M541.481 627.723H532.204M541.481 627.723H550.757M788.859 123.689V132.966M788.859 132.966V142.243M788.859 132.966H779.583M788.859 132.966H798.136M788.859 371.068V380.345M788.859 380.345V389.621M788.859 380.345H779.583M788.859 380.345H798.136M788.859 618.446V627.723M788.859 627.723V637M788.859 627.723H779.583M788.859 627.723H798.136M-448.034 0V9.2767M-448.034 9.2767V18.5534M-448.034 9.2767H-457.311M-448.034 9.2767H-438.757M-448.034 247.379V256.655M-448.034 256.655V265.932M-448.034 256.655H-457.311M-448.034 256.655H-438.757M-448.034 494.757V504.034M-448.034 504.034V513.311M-448.034 504.034H-457.311M-448.034 504.034H-438.757M-200.655 0V9.2767M-200.655 9.2767V18.5534M-200.655 9.2767H-209.932M-200.655 9.2767H-191.379M-200.655 247.379V256.655M-200.655 256.655V265.932M-200.655 256.655H-209.932M-200.655 256.655H-191.379M-200.655 494.757V504.034M-200.655 504.034V513.311M-200.655 504.034H-209.932M-200.655 504.034H-191.379M46.7233 0V9.2767M46.7233 9.2767V18.5534M46.7233 9.2767H37.4466M46.7233 9.2767H56M46.7233 247.379V256.655M46.7233 256.655V265.932M46.7233 256.655H37.4466M46.7233 256.655H56M46.7233 494.757V504.034M46.7233 504.034V513.311M46.7233 504.034H37.4466M46.7233 504.034H56M294.102 0V9.2767M294.102 9.2767V18.5534M294.102 9.2767H284.825M294.102 9.2767H303.379M294.102 247.379V256.655M294.102 256.655V265.932M294.102 256.655H284.825M294.102 256.655H303.379M294.102 494.757V504.034M294.102 504.034V513.311M294.102 504.034H284.825M294.102 504.034H303.379M541.481 0V9.2767M541.481 9.2767V18.5534M541.481 9.2767H532.204M541.481 9.2767H550.757M541.481 247.379V256.655M541.481 256.655V265.932M541.481 256.655H532.204M541.481 256.655H550.757M541.481 494.757V504.034M541.481 504.034V513.311M541.481 504.034H532.204M541.481 504.034H550.757M788.859 0V9.2767M788.859 9.2767V18.5534M788.859 9.2767H779.583M788.859 9.2767H798.136M788.859 247.379V256.655M788.859 256.655V265.932M788.859 256.655H779.583M788.859 256.655H798.136M788.859 494.757V504.034M788.859 504.034V513.311M788.859 504.034H779.583M788.859 504.034H798.136M-571.723 123.689V132.966M-571.723 132.966V142.243M-571.723 132.966H-581M-571.723 132.966H-562.447M-571.723 371.068V380.345M-571.723 380.345V389.621M-571.723 380.345H-581M-571.723 380.345H-562.447M-571.723 618.446V627.723M-571.723 627.723V637M-571.723 627.723H-581M-571.723 627.723H-562.447M-324.345 123.689V132.966M-324.345 132.966V142.243M-324.345 132.966H-333.621M-324.345 132.966H-315.068M-324.345 371.068V380.345M-324.345 380.345V389.621M-324.345 380.345H-333.621M-324.345 380.345H-315.068M-324.345 618.446V627.723M-324.345 627.723V637M-324.345 627.723H-333.621M-324.345 627.723H-315.068M-76.966 123.689V132.966M-76.966 132.966V142.243M-76.966 132.966H-86.2427M-76.966 132.966H-67.6893M-76.966 371.068V380.345M-76.966 380.345V389.621M-76.966 380.345H-86.2427M-76.966 380.345H-67.6893M-76.966 618.446V627.723M-76.966 627.723V637M-76.966 627.723H-86.2427M-76.966 627.723H-67.6893M170.413 123.689V132.966M170.413 132.966V142.243M170.413 132.966H161.136M170.413 132.966H179.689M170.413 371.068V380.345M170.413 380.345V389.621M170.413 380.345H161.136M170.413 380.345H179.689M170.413 618.446V627.723M170.413 627.723V637M170.413 627.723H161.136M170.413 627.723H179.689M417.791 123.689V132.966M417.791 132.966V142.243M417.791 132.966H408.515M417.791 132.966H427.068M417.791 371.068V380.345M417.791 380.345V389.621M417.791 380.345H408.515M417.791 380.345H427.068M417.791 618.446V627.723M417.791 627.723V637M417.791 627.723H408.515M417.791 627.723H427.068M665.17 123.689V132.966M665.17 132.966V142.243M665.17 132.966H655.893M665.17 132.966H674.447M665.17 371.068V380.345M665.17 380.345V389.621M665.17 380.345H655.893M665.17 380.345H674.447M665.17 618.446V627.723M665.17 627.723V637M665.17 627.723H655.893M665.17 627.723H674.447M-571.723 4.56043e-05V9.27675M-571.723 9.27675V18.5534M-571.723 9.27675H-581M-571.723 9.27675H-562.447M-571.723 247.379V256.655M-571.723 256.655V265.932M-571.723 256.655H-581M-571.723 256.655H-562.447M-571.723 494.757V504.034M-571.723 504.034V513.311M-571.723 504.034H-581M-571.723 504.034H-562.447M-324.345 0V9.2767M-324.345 9.2767V18.5534M-324.345 9.2767H-333.621M-324.345 9.2767H-315.068M-324.345 247.379V256.655M-324.345 256.655V265.932M-324.345 256.655H-333.621M-324.345 256.655H-315.068M-324.345 494.757V504.034M-324.345 504.034V513.311M-324.345 504.034H-333.621M-324.345 504.034H-315.068M-76.966 0V9.2767M-76.966 9.2767V18.5534M-76.966 9.2767H-86.2427M-76.966 9.2767H-67.6893M-76.966 247.379V256.655M-76.966 256.655V265.932M-76.966 256.655H-86.2427M-76.966 256.655H-67.6893M-76.966 494.757V504.034M-76.966 504.034V513.311M-76.966 504.034H-86.2427M-76.966 504.034H-67.6893M170.413 0V9.2767M170.413 9.2767V18.5534M170.413 9.2767H161.136M170.413 9.2767H179.689M170.413 247.379V256.655M170.413 256.655V265.932M170.413 256.655H161.136M170.413 256.655H179.689M170.413 494.757V504.034M170.413 504.034V513.311M170.413 504.034H161.136M170.413 504.034H179.689M417.791 0V9.2767M417.791 9.2767V18.5534M417.791 9.2767H408.515M417.791 9.2767H427.068M417.791 247.379V256.655M417.791 256.655V265.932M417.791 256.655H408.515M417.791 256.655H427.068M417.791 494.757V504.034M417.791 504.034V513.311M417.791 504.034H408.515M417.791 504.034H427.068M665.17 0V9.2767M665.17 9.2767V18.5534M665.17 9.2767H655.893M665.17 9.2767H674.447M665.17 247.379V256.655M665.17 256.655V265.932M665.17 256.655H655.893M665.17 256.655H674.447M665.17 494.757V504.034M665.17 504.034V513.311M665.17 504.034H655.893M665.17 504.034H674.447" stroke="url(#paint0_radial_25455_637)" stroke-opacity="0.6" stroke-width="0.773058"/>
</g>
<defs>
<radialGradient id="paint0_radial_25455_637" cx="0" cy="0" r="1" gradientUnits="userSpaceOnUse" gradientTransform="translate(108.568 318.5) rotate(90) scale(318.5 689.568)">
<stop stop-color="white"/>
<stop offset="1" stop-color="white" stop-opacity="0"/>
</radialGradient>
</defs>
</svg>
