<svg width="790" height="528" viewBox="0 0 790 528" fill="none" xmlns="http://www.w3.org/2000/svg">
<g opacity="0.7" style="mix-blend-mode:soft-light">
<path d="M-540.802 0.193359H-571.725V31.1157M-540.802 0.193359V31.1157M-540.802 0.193359H-509.88M-540.802 31.1157H-571.725M-540.802 31.1157V62.038M-540.802 31.1157H-509.88M-571.725 31.1157V62.038M-540.802 62.038H-571.725M-540.802 62.038V92.9604M-540.802 62.038H-509.88M-571.725 62.038V92.9604M-540.802 92.9604H-571.725M-540.802 92.9604V123.883M-540.802 92.9604H-509.88M-571.725 92.9604V123.883M-540.802 123.883H-571.725M-540.802 123.883V154.805M-540.802 123.883H-509.88M-571.725 123.883V154.805M-540.802 154.805H-571.725M-540.802 154.805V185.727M-540.802 154.805H-509.88M-571.725 154.805V185.727M-540.802 185.727H-571.725M-540.802 185.727V216.65M-540.802 185.727H-509.88M-571.725 185.727V216.65M-540.802 216.65H-571.725M-540.802 216.65V247.572M-540.802 216.65H-509.88M-571.725 216.65V247.572M-540.802 247.572H-571.725M-540.802 247.572V278.494M-540.802 247.572H-509.88M-571.725 247.572V278.494M-540.802 278.494H-571.725M-540.802 278.494V309.417M-540.802 278.494H-509.88M-571.725 278.494V309.417M-540.802 309.417H-571.725M-540.802 309.417V340.339M-540.802 309.417H-509.88M-571.725 309.417V340.339M-540.802 340.339H-571.725M-540.802 340.339V371.261M-540.802 340.339H-509.88M-571.725 340.339V371.261M-540.802 371.261H-571.725M-540.802 371.261V402.184M-540.802 371.261H-509.88M-571.725 371.261V402.184M-540.802 402.184H-571.725M-540.802 402.184V433.106M-540.802 402.184H-509.88M-571.725 402.184V433.106M-540.802 433.106H-571.725M-540.802 433.106V464.028M-540.802 433.106H-509.88M-571.725 433.106V464.028M-540.802 464.028H-571.725M-540.802 464.028V494.951M-540.802 464.028H-509.88M-571.725 464.028V494.951M-540.802 494.951H-571.725M-540.802 494.951V525.873M-540.802 494.951H-509.88M-571.725 494.951V525.873M-540.802 525.873H-571.725M-540.802 525.873V556.795M-540.802 525.873H-509.88M-571.725 525.873V556.795M-540.802 556.795H-571.725M-540.802 556.795V587.718M-540.802 556.795H-509.88M-571.725 556.795V587.718M-540.802 587.718H-571.725M-540.802 587.718V618.64M-540.802 587.718H-509.88M-571.725 587.718V618.64H-540.802M-540.802 618.64H-509.88M-509.88 0.193359V31.1157M-509.88 0.193359H-478.958M-509.88 31.1157V62.038M-509.88 31.1157H-478.958M-509.88 62.038V92.9604M-509.88 62.038H-478.958M-509.88 92.9604V123.883M-509.88 92.9604H-478.958M-509.88 123.883V154.805M-509.88 123.883H-478.958M-509.88 154.805V185.727M-509.88 154.805H-478.958M-509.88 185.727V216.65M-509.88 185.727H-478.958M-509.88 216.65V247.572M-509.88 216.65H-478.958M-509.88 247.572V278.494M-509.88 247.572H-478.958M-509.88 278.494V309.417M-509.88 278.494H-478.958M-509.88 309.417V340.339M-509.88 309.417H-478.958M-509.88 340.339V371.261M-509.88 340.339H-478.958M-509.88 371.261V402.184M-509.88 371.261H-478.958M-509.88 402.184V433.106M-509.88 402.184H-478.958M-509.88 433.106V464.028M-509.88 433.106H-478.958M-509.88 464.028V494.951M-509.88 464.028H-478.958M-509.88 494.951V525.873M-509.88 494.951H-478.958M-509.88 525.873V556.795M-509.88 525.873H-478.958M-509.88 556.795V587.718M-509.88 556.795H-478.958M-509.88 587.718V618.64M-509.88 587.718H-478.958M-509.88 618.64H-478.958M-478.958 0.193359V31.1157M-478.958 0.193359H-448.035M-478.958 31.1157V62.038M-478.958 31.1157H-448.035M-478.958 62.038V92.9604M-478.958 62.038H-448.035M-478.958 92.9604V123.883M-478.958 92.9604H-448.035M-478.958 123.883V154.805M-478.958 123.883H-448.035M-478.958 154.805V185.727M-478.958 154.805H-448.035M-478.958 185.727V216.65M-478.958 185.727H-448.035M-478.958 216.65V247.572M-478.958 216.65H-448.035M-478.958 247.572V278.494M-478.958 247.572H-448.035M-478.958 278.494V309.417M-478.958 278.494H-448.035M-478.958 309.417V340.339M-478.958 309.417H-448.035M-478.958 340.339V371.261M-478.958 340.339H-448.035M-478.958 371.261V402.184M-478.958 371.261H-448.035M-478.958 402.184V433.106M-478.958 402.184H-448.035M-478.958 433.106V464.028M-478.958 433.106H-448.035M-478.958 464.028V494.951M-478.958 464.028H-448.035M-478.958 494.951V525.873M-478.958 494.951H-448.035M-478.958 525.873V556.795M-478.958 525.873H-448.035M-478.958 556.795V587.718M-478.958 556.795H-448.035M-478.958 587.718V618.64M-478.958 587.718H-448.035M-478.958 618.64H-448.035M-448.035 0.193359V31.1157M-448.035 0.193359H-417.113M-448.035 31.1157V62.038M-448.035 31.1157H-417.113M-448.035 62.038V92.9604M-448.035 62.038H-417.113M-448.035 92.9604V123.883M-448.035 92.9604H-417.113M-448.035 123.883V154.805M-448.035 123.883H-417.113M-448.035 154.805V185.727M-448.035 154.805H-417.113M-448.035 185.727V216.65M-448.035 185.727H-417.113M-448.035 216.65V247.572M-448.035 216.65H-417.113M-448.035 247.572V278.494M-448.035 247.572H-417.113M-448.035 278.494V309.417M-448.035 278.494H-417.113M-448.035 309.417V340.339M-448.035 309.417H-417.113M-448.035 340.339V371.261M-448.035 340.339H-417.113M-448.035 371.261V402.184M-448.035 371.261H-417.113M-448.035 402.184V433.106M-448.035 402.184H-417.113M-448.035 433.106V464.028M-448.035 433.106H-417.113M-448.035 464.028V494.951M-448.035 464.028H-417.113M-448.035 494.951V525.873M-448.035 494.951H-417.113M-448.035 525.873V556.795M-448.035 525.873H-417.113M-448.035 556.795V587.718M-448.035 556.795H-417.113M-448.035 587.718V618.64M-448.035 587.718H-417.113M-448.035 618.64H-417.113M-417.113 0.193359V31.1157M-417.113 0.193359H-386.191M-417.113 31.1157V62.038M-417.113 31.1157H-386.191M-417.113 62.038V92.9604M-417.113 62.038H-386.191M-417.113 92.9604V123.883M-417.113 92.9604H-386.191M-417.113 123.883V154.805M-417.113 123.883H-386.191M-417.113 154.805V185.727M-417.113 154.805H-386.191M-417.113 185.727V216.65M-417.113 185.727H-386.191M-417.113 216.65V247.572M-417.113 216.65H-386.191M-417.113 247.572V278.494M-417.113 247.572H-386.191M-417.113 278.494V309.417M-417.113 278.494H-386.191M-417.113 309.417V340.339M-417.113 309.417H-386.191M-417.113 340.339V371.261M-417.113 340.339H-386.191M-417.113 371.261V402.184M-417.113 371.261H-386.191M-417.113 402.184V433.106M-417.113 402.184H-386.191M-417.113 433.106V464.028M-417.113 433.106H-386.191M-417.113 464.028V494.951M-417.113 464.028H-386.191M-417.113 494.951V525.873M-417.113 494.951H-386.191M-417.113 525.873V556.795M-417.113 525.873H-386.191M-417.113 556.795V587.718M-417.113 556.795H-386.191M-417.113 587.718V618.64M-417.113 587.718H-386.191M-417.113 618.64H-386.191M-386.191 0.193359V31.1157M-386.191 0.193359H-355.268M-386.191 31.1157V62.038M-386.191 31.1157H-355.268M-386.191 62.038V92.9604M-386.191 62.038H-355.268M-386.191 92.9604V123.883M-386.191 92.9604H-355.268M-386.191 123.883V154.805M-386.191 123.883H-355.268M-386.191 154.805V185.727M-386.191 154.805H-355.268M-386.191 185.727V216.65M-386.191 185.727H-355.268M-386.191 216.65V247.572M-386.191 216.65H-355.268M-386.191 247.572V278.494M-386.191 247.572H-355.268M-386.191 278.494V309.417M-386.191 278.494H-355.268M-386.191 309.417V340.339M-386.191 309.417H-355.268M-386.191 340.339V371.261M-386.191 340.339H-355.268M-386.191 371.261V402.184M-386.191 371.261H-355.268M-386.191 402.184V433.106M-386.191 402.184H-355.268M-386.191 433.106V464.028M-386.191 433.106H-355.268M-386.191 464.028V494.951M-386.191 464.028H-355.268M-386.191 494.951V525.873M-386.191 494.951H-355.268M-386.191 525.873V556.795M-386.191 525.873H-355.268M-386.191 556.795V587.718M-386.191 556.795H-355.268M-386.191 587.718V618.64M-386.191 587.718H-355.268M-386.191 618.64H-355.268M-355.268 0.193359V31.1157M-355.268 0.193359H-324.346M-355.268 31.1157V62.038M-355.268 31.1157H-324.346M-355.268 62.038V92.9604M-355.268 62.038H-324.346M-355.268 92.9604V123.883M-355.268 92.9604H-324.346M-355.268 123.883V154.805M-355.268 123.883H-324.346M-355.268 154.805V185.727M-355.268 154.805H-324.346M-355.268 185.727V216.65M-355.268 185.727H-324.346M-355.268 216.65V247.572M-355.268 216.65H-324.346M-355.268 247.572V278.494M-355.268 247.572H-324.346M-355.268 278.494V309.417M-355.268 278.494H-324.346M-355.268 309.417V340.339M-355.268 309.417H-324.346M-355.268 340.339V371.261M-355.268 340.339H-324.346M-355.268 371.261V402.184M-355.268 371.261H-324.346M-355.268 402.184V433.106M-355.268 402.184H-324.346M-355.268 433.106V464.028M-355.268 433.106H-324.346M-355.268 464.028V494.951M-355.268 464.028H-324.346M-355.268 494.951V525.873M-355.268 494.951H-324.346M-355.268 525.873V556.795M-355.268 525.873H-324.346M-355.268 556.795V587.718M-355.268 556.795H-324.346M-355.268 587.718V618.64M-355.268 587.718H-324.346M-355.268 618.64H-324.346M-324.346 0.193359V31.1157M-324.346 0.193359H-293.424M-324.346 31.1157V62.038M-324.346 31.1157H-293.424M-324.346 62.038V92.9604M-324.346 62.038H-293.424M-324.346 92.9604V123.883M-324.346 92.9604H-293.424M-324.346 123.883V154.805M-324.346 123.883H-293.424M-324.346 154.805V185.727M-324.346 154.805H-293.424M-324.346 185.727V216.65M-324.346 185.727H-293.424M-324.346 216.65V247.572M-324.346 216.65H-293.424M-324.346 247.572V278.494M-324.346 247.572H-293.424M-324.346 278.494V309.417M-324.346 278.494H-293.424M-324.346 309.417V340.339M-324.346 309.417H-293.424M-324.346 340.339V371.261M-324.346 340.339H-293.424M-324.346 371.261V402.184M-324.346 371.261H-293.424M-324.346 402.184V433.106M-324.346 402.184H-293.424M-324.346 433.106V464.028M-324.346 433.106H-293.424M-324.346 464.028V494.951M-324.346 464.028H-293.424M-324.346 494.951V525.873M-324.346 494.951H-293.424M-324.346 525.873V556.795M-324.346 525.873H-293.424M-324.346 556.795V587.718M-324.346 556.795H-293.424M-324.346 587.718V618.64M-324.346 587.718H-293.424M-324.346 618.64H-293.424M-293.424 0.193359V31.1157M-293.424 0.193359H-262.501M-293.424 31.1157V62.038M-293.424 31.1157H-262.501M-293.424 62.038V92.9604M-293.424 62.038H-262.501M-293.424 92.9604V123.883M-293.424 92.9604H-262.501M-293.424 123.883V154.805M-293.424 123.883H-262.501M-293.424 154.805V185.727M-293.424 154.805H-262.501M-293.424 185.727V216.65M-293.424 185.727H-262.501M-293.424 216.65V247.572M-293.424 216.65H-262.501M-293.424 247.572V278.494M-293.424 247.572H-262.501M-293.424 278.494V309.417M-293.424 278.494H-262.501M-293.424 309.417V340.339M-293.424 309.417H-262.501M-293.424 340.339V371.261M-293.424 340.339H-262.501M-293.424 371.261V402.184M-293.424 371.261H-262.501M-293.424 402.184V433.106M-293.424 402.184H-262.501M-293.424 433.106V464.028M-293.424 433.106H-262.501M-293.424 464.028V494.951M-293.424 464.028H-262.501M-293.424 494.951V525.873M-293.424 494.951H-262.501M-293.424 525.873V556.795M-293.424 525.873H-262.501M-293.424 556.795V587.718M-293.424 556.795H-262.501M-293.424 587.718V618.64M-293.424 587.718H-262.501M-293.424 618.64H-262.501M-262.501 0.193359V31.1157M-262.501 0.193359H-231.579M-262.501 31.1157V62.038M-262.501 31.1157H-231.579M-262.501 62.038V92.9604M-262.501 62.038H-231.579M-262.501 92.9604V123.883M-262.501 92.9604H-231.579M-262.501 123.883V154.805M-262.501 123.883H-231.579M-262.501 154.805V185.727M-262.501 154.805H-231.579M-262.501 185.727V216.65M-262.501 185.727H-231.579M-262.501 216.65V247.572M-262.501 216.65H-231.579M-262.501 247.572V278.494M-262.501 247.572H-231.579M-262.501 278.494V309.417M-262.501 278.494H-231.579M-262.501 309.417V340.339M-262.501 309.417H-231.579M-262.501 340.339V371.261M-262.501 340.339H-231.579M-262.501 371.261V402.184M-262.501 371.261H-231.579M-262.501 402.184V433.106M-262.501 402.184H-231.579M-262.501 433.106V464.028M-262.501 433.106H-231.579M-262.501 464.028V494.951M-262.501 464.028H-231.579M-262.501 494.951V525.873M-262.501 494.951H-231.579M-262.501 525.873V556.795M-262.501 525.873H-231.579M-262.501 556.795V587.718M-262.501 556.795H-231.579M-262.501 587.718V618.64M-262.501 587.718H-231.579M-262.501 618.64H-231.579M-231.579 0.193359V31.1157M-231.579 0.193359H-200.657M-231.579 31.1157V62.038M-231.579 31.1157H-200.657M-231.579 62.038V92.9604M-231.579 62.038H-200.657M-231.579 92.9604V123.883M-231.579 92.9604H-200.657M-231.579 123.883V154.805M-231.579 123.883H-200.657M-231.579 154.805V185.727M-231.579 154.805H-200.657M-231.579 185.727V216.65M-231.579 185.727H-200.657M-231.579 216.65V247.572M-231.579 216.65H-200.657M-231.579 247.572V278.494M-231.579 247.572H-200.657M-231.579 278.494V309.417M-231.579 278.494H-200.657M-231.579 309.417V340.339M-231.579 309.417H-200.657M-231.579 340.339V371.261M-231.579 340.339H-200.657M-231.579 371.261V402.184M-231.579 371.261H-200.657M-231.579 402.184V433.106M-231.579 402.184H-200.657M-231.579 433.106V464.028M-231.579 433.106H-200.657M-231.579 464.028V494.951M-231.579 464.028H-200.657M-231.579 494.951V525.873M-231.579 494.951H-200.657M-231.579 525.873V556.795M-231.579 525.873H-200.657M-231.579 556.795V587.718M-231.579 556.795H-200.657M-231.579 587.718V618.64M-231.579 587.718H-200.657M-231.579 618.64H-200.657M-200.657 0.193359V31.1157M-200.657 0.193359H-169.734M-200.657 31.1157V62.038M-200.657 31.1157H-169.734M-200.657 62.038V92.9604M-200.657 62.038H-169.734M-200.657 92.9604V123.883M-200.657 92.9604H-169.734M-200.657 123.883V154.805M-200.657 123.883H-169.734M-200.657 154.805V185.727M-200.657 154.805H-169.734M-200.657 185.727V216.65M-200.657 185.727H-169.734M-200.657 216.65V247.572M-200.657 216.65H-169.734M-200.657 247.572V278.494M-200.657 247.572H-169.734M-200.657 278.494V309.417M-200.657 278.494H-169.734M-200.657 309.417V340.339M-200.657 309.417H-169.734M-200.657 340.339V371.261M-200.657 340.339H-169.734M-200.657 371.261V402.184M-200.657 371.261H-169.734M-200.657 402.184V433.106M-200.657 402.184H-169.734M-200.657 433.106V464.028M-200.657 433.106H-169.734M-200.657 464.028V494.951M-200.657 464.028H-169.734M-200.657 494.951V525.873M-200.657 494.951H-169.734M-200.657 525.873V556.795M-200.657 525.873H-169.734M-200.657 556.795V587.718M-200.657 556.795H-169.734M-200.657 587.718V618.64M-200.657 587.718H-169.734M-200.657 618.64H-169.734M-169.734 0.193359V31.1157M-169.734 0.193359H-138.812M-169.734 31.1157V62.038M-169.734 31.1157H-138.812M-169.734 62.038V92.9604M-169.734 62.038H-138.812M-169.734 92.9604V123.883M-169.734 92.9604H-138.812M-169.734 123.883V154.805M-169.734 123.883H-138.812M-169.734 154.805V185.727M-169.734 154.805H-138.812M-169.734 185.727V216.65M-169.734 185.727H-138.812M-169.734 216.65V247.572M-169.734 216.65H-138.812M-169.734 247.572V278.494M-169.734 247.572H-138.812M-169.734 278.494V309.417M-169.734 278.494H-138.812M-169.734 309.417V340.339M-169.734 309.417H-138.812M-169.734 340.339V371.261M-169.734 340.339H-138.812M-169.734 371.261V402.184M-169.734 371.261H-138.812M-169.734 402.184V433.106M-169.734 402.184H-138.812M-169.734 433.106V464.028M-169.734 433.106H-138.812M-169.734 464.028V494.951M-169.734 464.028H-138.812M-169.734 494.951V525.873M-169.734 494.951H-138.812M-169.734 525.873V556.795M-169.734 525.873H-138.812M-169.734 556.795V587.718M-169.734 556.795H-138.812M-169.734 587.718V618.64M-169.734 587.718H-138.812M-169.734 618.64H-138.812M-138.812 0.193359V31.1157M-138.812 0.193359H-107.89M-138.812 31.1157V62.038M-138.812 31.1157H-107.89M-138.812 62.038V92.9604M-138.812 62.038H-107.89M-138.812 92.9604V123.883M-138.812 92.9604H-107.89M-138.812 123.883V154.805M-138.812 123.883H-107.89M-138.812 154.805V185.727M-138.812 154.805H-107.89M-138.812 185.727V216.65M-138.812 185.727H-107.89M-138.812 216.65V247.572M-138.812 216.65H-107.89M-138.812 247.572V278.494M-138.812 247.572H-107.89M-138.812 278.494V309.417M-138.812 278.494H-107.89M-138.812 309.417V340.339M-138.812 309.417H-107.89M-138.812 340.339V371.261M-138.812 340.339H-107.89M-138.812 371.261V402.184M-138.812 371.261H-107.89M-138.812 402.184V433.106M-138.812 402.184H-107.89M-138.812 433.106V464.028M-138.812 433.106H-107.89M-138.812 464.028V494.951M-138.812 464.028H-107.89M-138.812 494.951V525.873M-138.812 494.951H-107.89M-138.812 525.873V556.795M-138.812 525.873H-107.89M-138.812 556.795V587.718M-138.812 556.795H-107.89M-138.812 587.718V618.64M-138.812 587.718H-107.89M-138.812 618.64H-107.89M-107.89 0.193359V31.1157M-107.89 0.193359H-76.9673M-107.89 31.1157V62.038M-107.89 31.1157H-76.9673M-107.89 62.038V92.9604M-107.89 62.038H-76.9673M-107.89 92.9604V123.883M-107.89 92.9604H-76.9673M-107.89 123.883V154.805M-107.89 123.883H-76.9673M-107.89 154.805V185.727M-107.89 154.805H-76.9673M-107.89 185.727V216.65M-107.89 185.727H-76.9673M-107.89 216.65V247.572M-107.89 216.65H-76.9673M-107.89 247.572V278.494M-107.89 247.572H-76.9673M-107.89 278.494V309.417M-107.89 278.494H-76.9673M-107.89 309.417V340.339M-107.89 309.417H-76.9673M-107.89 340.339V371.261M-107.89 340.339H-76.9673M-107.89 371.261V402.184M-107.89 371.261H-76.9673M-107.89 402.184V433.106M-107.89 402.184H-76.9673M-107.89 433.106V464.028M-107.89 433.106H-76.9673M-107.89 464.028V494.951M-107.89 464.028H-76.9673M-107.89 494.951V525.873M-107.89 494.951H-76.9673M-107.89 525.873V556.795M-107.89 525.873H-76.9673M-107.89 556.795V587.718M-107.89 556.795H-76.9673M-107.89 587.718V618.64M-107.89 587.718H-76.9673M-107.89 618.64H-76.9673M-76.9673 0.193359V31.1157M-76.9673 0.193359H-46.045M-76.9673 31.1157V62.038M-76.9673 31.1157H-46.045M-76.9673 62.038V92.9604M-76.9673 62.038H-46.045M-76.9673 92.9604V123.883M-76.9673 92.9604H-46.045M-76.9673 123.883V154.805M-76.9673 123.883H-46.045M-76.9673 154.805V185.727M-76.9673 154.805H-46.045M-76.9673 185.727V216.65M-76.9673 185.727H-46.045M-76.9673 216.65V247.572M-76.9673 216.65H-46.045M-76.9673 247.572V278.494M-76.9673 247.572H-46.045M-76.9673 278.494V309.417M-76.9673 278.494H-46.045M-76.9673 309.417V340.339M-76.9673 309.417H-46.045M-76.9673 340.339V371.261M-76.9673 340.339H-46.045M-76.9673 371.261V402.184M-76.9673 371.261H-46.045M-76.9673 402.184V433.106M-76.9673 402.184H-46.045M-76.9673 433.106V464.028M-76.9673 433.106H-46.045M-76.9673 464.028V494.951M-76.9673 464.028H-46.045M-76.9673 494.951V525.873M-76.9673 494.951H-46.045M-76.9673 525.873V556.795M-76.9673 525.873H-46.045M-76.9673 556.795V587.718M-76.9673 556.795H-46.045M-76.9673 587.718V618.64M-76.9673 587.718H-46.045M-76.9673 618.64H-46.045M-46.045 0.193359V31.1157M-46.045 0.193359H-15.1227M-46.045 31.1157V62.038M-46.045 31.1157H-15.1227M-46.045 62.038V92.9604M-46.045 62.038H-15.1227M-46.045 92.9604V123.883M-46.045 92.9604H-15.1227M-46.045 123.883V154.805M-46.045 123.883H-15.1227M-46.045 154.805V185.727M-46.045 154.805H-15.1227M-46.045 185.727V216.65M-46.045 185.727H-15.1227M-46.045 216.65V247.572M-46.045 216.65H-15.1227M-46.045 247.572V278.494M-46.045 247.572H-15.1227M-46.045 278.494V309.417M-46.045 278.494H-15.1227M-46.045 309.417V340.339M-46.045 309.417H-15.1227M-46.045 340.339V371.261M-46.045 340.339H-15.1227M-46.045 371.261V402.184M-46.045 371.261H-15.1227M-46.045 402.184V433.106M-46.045 402.184H-15.1227M-46.045 433.106V464.028M-46.045 433.106H-15.1227M-46.045 464.028V494.951M-46.045 464.028H-15.1227M-46.045 494.951V525.873M-46.045 494.951H-15.1227M-46.045 525.873V556.795M-46.045 525.873H-15.1227M-46.045 556.795V587.718M-46.045 556.795H-15.1227M-46.045 587.718V618.64M-46.045 587.718H-15.1227M-46.045 618.64H-15.1227M-15.1227 0.193359V31.1157M-15.1227 0.193359H15.7996M-15.1227 31.1157V62.038M-15.1227 31.1157H15.7996M-15.1227 62.038V92.9604M-15.1227 62.038H15.7996M-15.1227 92.9604V123.883M-15.1227 92.9604H15.7996M-15.1227 123.883V154.805M-15.1227 123.883H15.7996M-15.1227 154.805V185.727M-15.1227 154.805H15.7996M-15.1227 185.727V216.65M-15.1227 185.727H15.7996M-15.1227 216.65V247.572M-15.1227 216.65H15.7996M-15.1227 247.572V278.494M-15.1227 247.572H15.7996M-15.1227 278.494V309.417M-15.1227 278.494H15.7996M-15.1227 309.417V340.339M-15.1227 309.417H15.7996M-15.1227 340.339V371.261M-15.1227 340.339H15.7996M-15.1227 371.261V402.184M-15.1227 371.261H15.7996M-15.1227 402.184V433.106M-15.1227 402.184H15.7996M-15.1227 433.106V464.028M-15.1227 433.106H15.7996M-15.1227 464.028V494.951M-15.1227 464.028H15.7996M-15.1227 494.951V525.873M-15.1227 494.951H15.7996M-15.1227 525.873V556.795M-15.1227 525.873H15.7996M-15.1227 556.795V587.718M-15.1227 556.795H15.7996M-15.1227 587.718V618.64M-15.1227 587.718H15.7996M-15.1227 618.64H15.7996M15.7996 0.193359V31.1157M15.7996 0.193359H46.722M15.7996 31.1157V62.038M15.7996 31.1157H46.722M15.7996 62.038V92.9604M15.7996 62.038H46.722M15.7996 92.9604V123.883M15.7996 92.9604H46.722M15.7996 123.883V154.805M15.7996 123.883H46.722M15.7996 154.805V185.727M15.7996 154.805H46.722M15.7996 185.727V216.65M15.7996 185.727H46.722M15.7996 216.65V247.572M15.7996 216.65H46.722M15.7996 247.572V278.494M15.7996 247.572H46.722M15.7996 278.494V309.417M15.7996 278.494H46.722M15.7996 309.417V340.339M15.7996 309.417H46.722M15.7996 340.339V371.261M15.7996 340.339H46.722M15.7996 371.261V402.184M15.7996 371.261H46.722M15.7996 402.184V433.106M15.7996 402.184H46.722M15.7996 433.106V464.028M15.7996 433.106H46.722M15.7996 464.028V494.951M15.7996 464.028H46.722M15.7996 494.951V525.873M15.7996 494.951H46.722M15.7996 525.873V556.795M15.7996 525.873H46.722M15.7996 556.795V587.718M15.7996 556.795H46.722M15.7996 587.718V618.64M15.7996 587.718H46.722M15.7996 618.64H46.722M46.722 0.193359V31.1157M46.722 0.193359H77.6443M46.722 31.1157V62.038M46.722 31.1157H77.6443M46.722 62.038V92.9604M46.722 62.038H77.6443M46.722 92.9604V123.883M46.722 92.9604H77.6443M46.722 123.883V154.805M46.722 123.883H77.6443M46.722 154.805V185.727M46.722 154.805H77.6443M46.722 185.727V216.65M46.722 185.727H77.6443M46.722 216.65V247.572M46.722 216.65H77.6443M46.722 247.572V278.494M46.722 247.572H77.6443M46.722 278.494V309.417M46.722 278.494H77.6443M46.722 309.417V340.339M46.722 309.417H77.6443M46.722 340.339V371.261M46.722 340.339H77.6443M46.722 371.261V402.184M46.722 371.261H77.6443M46.722 402.184V433.106M46.722 402.184H77.6443M46.722 433.106V464.028M46.722 433.106H77.6443M46.722 464.028V494.951M46.722 464.028H77.6443M46.722 494.951V525.873M46.722 494.951H77.6443M46.722 525.873V556.795M46.722 525.873H77.6443M46.722 556.795V587.718M46.722 556.795H77.6443M46.722 587.718V618.64M46.722 587.718H77.6443M46.722 618.64H77.6443M77.6443 0.193359V31.1157M77.6443 0.193359H108.567M77.6443 31.1157V62.038M77.6443 31.1157H108.567M77.6443 62.038V92.9604M77.6443 62.038H108.567M77.6443 92.9604V123.883M77.6443 92.9604H108.567M77.6443 123.883V154.805M77.6443 123.883H108.567M77.6443 154.805V185.727M77.6443 154.805H108.567M77.6443 185.727V216.65M77.6443 185.727H108.567M77.6443 216.65V247.572M77.6443 216.65H108.567M77.6443 247.572V278.494M77.6443 247.572H108.567M77.6443 278.494V309.417M77.6443 278.494H108.567M77.6443 309.417V340.339M77.6443 309.417H108.567M77.6443 340.339V371.261M77.6443 340.339H108.567M77.6443 371.261V402.184M77.6443 371.261H108.567M77.6443 402.184V433.106M77.6443 402.184H108.567M77.6443 433.106V464.028M77.6443 433.106H108.567M77.6443 464.028V494.951M77.6443 464.028H108.567M77.6443 494.951V525.873M77.6443 494.951H108.567M77.6443 525.873V556.795M77.6443 525.873H108.567M77.6443 556.795V587.718M77.6443 556.795H108.567M77.6443 587.718V618.64M77.6443 587.718H108.567M77.6443 618.64H108.567M108.567 0.193359V31.1157M108.567 0.193359H139.489M108.567 31.1157V62.038M108.567 31.1157H139.489M108.567 62.038V92.9604M108.567 62.038H139.489M108.567 92.9604V123.883M108.567 92.9604H139.489M108.567 123.883V154.805M108.567 123.883H139.489M108.567 154.805V185.727M108.567 154.805H139.489M108.567 185.727V216.65M108.567 185.727H139.489M108.567 216.65V247.572M108.567 216.65H139.489M108.567 247.572V278.494M108.567 247.572H139.489M108.567 278.494V309.417M108.567 278.494H139.489M108.567 309.417V340.339M108.567 309.417H139.489M108.567 340.339V371.261M108.567 340.339H139.489M108.567 371.261V402.184M108.567 371.261H139.489M108.567 402.184V433.106M108.567 402.184H139.489M108.567 433.106V464.028M108.567 433.106H139.489M108.567 464.028V494.951M108.567 464.028H139.489M108.567 494.951V525.873M108.567 494.951H139.489M108.567 525.873V556.795M108.567 525.873H139.489M108.567 556.795V587.718M108.567 556.795H139.489M108.567 587.718V618.64M108.567 587.718H139.489M108.567 618.64H139.489M139.489 0.193359V31.1157M139.489 0.193359H170.411M139.489 31.1157V62.038M139.489 31.1157H170.411M139.489 62.038V92.9604M139.489 62.038H170.411M139.489 92.9604V123.883M139.489 92.9604H170.411M139.489 123.883V154.805M139.489 123.883H170.411M139.489 154.805V185.727M139.489 154.805H170.411M139.489 185.727V216.65M139.489 185.727H170.411M139.489 216.65V247.572M139.489 216.65H170.411M139.489 247.572V278.494M139.489 247.572H170.411M139.489 278.494V309.417M139.489 278.494H170.411M139.489 309.417V340.339M139.489 309.417H170.411M139.489 340.339V371.261M139.489 340.339H170.411M139.489 371.261V402.184M139.489 371.261H170.411M139.489 402.184V433.106M139.489 402.184H170.411M139.489 433.106V464.028M139.489 433.106H170.411M139.489 464.028V494.951M139.489 464.028H170.411M139.489 494.951V525.873M139.489 494.951H170.411M139.489 525.873V556.795M139.489 525.873H170.411M139.489 556.795V587.718M139.489 556.795H170.411M139.489 587.718V618.64M139.489 587.718H170.411M139.489 618.64H170.411M170.411 0.193359V31.1157M170.411 0.193359H201.334M170.411 31.1157V62.038M170.411 31.1157H201.334M170.411 62.038V92.9604M170.411 62.038H201.334M170.411 92.9604V123.883M170.411 92.9604H201.334M170.411 123.883V154.805M170.411 123.883H201.334M170.411 154.805V185.727M170.411 154.805H201.334M170.411 185.727V216.65M170.411 185.727H201.334M170.411 216.65V247.572M170.411 216.65H201.334M170.411 247.572V278.494M170.411 247.572H201.334M170.411 278.494V309.417M170.411 278.494H201.334M170.411 309.417V340.339M170.411 309.417H201.334M170.411 340.339V371.261M170.411 340.339H201.334M170.411 371.261V402.184M170.411 371.261H201.334M170.411 402.184V433.106M170.411 402.184H201.334M170.411 433.106V464.028M170.411 433.106H201.334M170.411 464.028V494.951M170.411 464.028H201.334M170.411 494.951V525.873M170.411 494.951H201.334M170.411 525.873V556.795M170.411 525.873H201.334M170.411 556.795V587.718M170.411 556.795H201.334M170.411 587.718V618.64M170.411 587.718H201.334M170.411 618.64H201.334M201.334 0.193359V31.1157M201.334 0.193359H232.256M201.334 31.1157V62.038M201.334 31.1157H232.256M201.334 62.038V92.9604M201.334 62.038H232.256M201.334 92.9604V123.883M201.334 92.9604H232.256M201.334 123.883V154.805M201.334 123.883H232.256M201.334 154.805V185.727M201.334 154.805H232.256M201.334 185.727V216.65M201.334 185.727H232.256M201.334 216.65V247.572M201.334 216.65H232.256M201.334 247.572V278.494M201.334 247.572H232.256M201.334 278.494V309.417M201.334 278.494H232.256M201.334 309.417V340.339M201.334 309.417H232.256M201.334 340.339V371.261M201.334 340.339H232.256M201.334 371.261V402.184M201.334 371.261H232.256M201.334 402.184V433.106M201.334 402.184H232.256M201.334 433.106V464.028M201.334 433.106H232.256M201.334 464.028V494.951M201.334 464.028H232.256M201.334 494.951V525.873M201.334 494.951H232.256M201.334 525.873V556.795M201.334 525.873H232.256M201.334 556.795V587.718M201.334 556.795H232.256M201.334 587.718V618.64M201.334 587.718H232.256M201.334 618.64H232.256M232.256 0.193359V31.1157M232.256 0.193359H263.178M232.256 31.1157V62.038M232.256 31.1157H263.178M232.256 62.038V92.9604M232.256 62.038H263.178M232.256 92.9604V123.883M232.256 92.9604H263.178M232.256 123.883V154.805M232.256 123.883H263.178M232.256 154.805V185.727M232.256 154.805H263.178M232.256 185.727V216.65M232.256 185.727H263.178M232.256 216.65V247.572M232.256 216.65H263.178M232.256 247.572V278.494M232.256 247.572H263.178M232.256 278.494V309.417M232.256 278.494H263.178M232.256 309.417V340.339M232.256 309.417H263.178M232.256 340.339V371.261M232.256 340.339H263.178M232.256 371.261V402.184M232.256 371.261H263.178M232.256 402.184V433.106M232.256 402.184H263.178M232.256 433.106V464.028M232.256 433.106H263.178M232.256 464.028V494.951M232.256 464.028H263.178M232.256 494.951V525.873M232.256 494.951H263.178M232.256 525.873V556.795M232.256 525.873H263.178M232.256 556.795V587.718M232.256 556.795H263.178M232.256 587.718V618.64M232.256 587.718H263.178M232.256 618.64H263.178M263.178 0.193359V31.1157M263.178 0.193359H294.101M263.178 31.1157V62.038M263.178 31.1157H294.101M263.178 62.038V92.9604M263.178 62.038H294.101M263.178 92.9604V123.883M263.178 92.9604H294.101M263.178 123.883V154.805M263.178 123.883H294.101M263.178 154.805V185.727M263.178 154.805H294.101M263.178 185.727V216.65M263.178 185.727H294.101M263.178 216.65V247.572M263.178 216.65H294.101M263.178 247.572V278.494M263.178 247.572H294.101M263.178 278.494V309.417M263.178 278.494H294.101M263.178 309.417V340.339M263.178 309.417H294.101M263.178 340.339V371.261M263.178 340.339H294.101M263.178 371.261V402.184M263.178 371.261H294.101M263.178 402.184V433.106M263.178 402.184H294.101M263.178 433.106V464.028M263.178 433.106H294.101M263.178 464.028V494.951M263.178 464.028H294.101M263.178 494.951V525.873M263.178 494.951H294.101M263.178 525.873V556.795M263.178 525.873H294.101M263.178 556.795V587.718M263.178 556.795H294.101M263.178 587.718V618.64M263.178 587.718H294.101M263.178 618.64H294.101M294.101 0.193359V31.1157M294.101 0.193359H325.023M294.101 31.1157V62.038M294.101 31.1157H325.023M294.101 62.038V92.9604M294.101 62.038H325.023M294.101 92.9604V123.883M294.101 92.9604H325.023M294.101 123.883V154.805M294.101 123.883H325.023M294.101 154.805V185.727M294.101 154.805H325.023M294.101 185.727V216.65M294.101 185.727H325.023M294.101 216.65V247.572M294.101 216.65H325.023M294.101 247.572V278.494M294.101 247.572H325.023M294.101 278.494V309.417M294.101 278.494H325.023M294.101 309.417V340.339M294.101 309.417H325.023M294.101 340.339V371.261M294.101 340.339H325.023M294.101 371.261V402.184M294.101 371.261H325.023M294.101 402.184V433.106M294.101 402.184H325.023M294.101 433.106V464.028M294.101 433.106H325.023M294.101 464.028V494.951M294.101 464.028H325.023M294.101 494.951V525.873M294.101 494.951H325.023M294.101 525.873V556.795M294.101 525.873H325.023M294.101 556.795V587.718M294.101 556.795H325.023M294.101 587.718V618.64M294.101 587.718H325.023M294.101 618.64H325.023M325.023 0.193359V31.1157M325.023 0.193359H355.945M325.023 31.1157V62.038M325.023 31.1157H355.945M325.023 62.038V92.9604M325.023 62.038H355.945M325.023 92.9604V123.883M325.023 92.9604H355.945M325.023 123.883V154.805M325.023 123.883H355.945M325.023 154.805V185.727M325.023 154.805H355.945M325.023 185.727V216.65M325.023 185.727H355.945M325.023 216.65V247.572M325.023 216.65H355.945M325.023 247.572V278.494M325.023 247.572H355.945M325.023 278.494V309.417M325.023 278.494H355.945M325.023 309.417V340.339M325.023 309.417H355.945M325.023 340.339V371.261M325.023 340.339H355.945M325.023 371.261V402.184M325.023 371.261H355.945M325.023 402.184V433.106M325.023 402.184H355.945M325.023 433.106V464.028M325.023 433.106H355.945M325.023 464.028V494.951M325.023 464.028H355.945M325.023 494.951V525.873M325.023 494.951H355.945M325.023 525.873V556.795M325.023 525.873H355.945M325.023 556.795V587.718M325.023 556.795H355.945M325.023 587.718V618.64M325.023 587.718H355.945M325.023 618.64H355.945M355.945 0.193359V31.1157M355.945 0.193359H386.868M355.945 31.1157V62.038M355.945 31.1157H386.868M355.945 62.038V92.9604M355.945 62.038H386.868M355.945 92.9604V123.883M355.945 92.9604H386.868M355.945 123.883V154.805M355.945 123.883H386.868M355.945 154.805V185.727M355.945 154.805H386.868M355.945 185.727V216.65M355.945 185.727H386.868M355.945 216.65V247.572M355.945 216.65H386.868M355.945 247.572V278.494M355.945 247.572H386.868M355.945 278.494V309.417M355.945 278.494H386.868M355.945 309.417V340.339M355.945 309.417H386.868M355.945 340.339V371.261M355.945 340.339H386.868M355.945 371.261V402.184M355.945 371.261H386.868M355.945 402.184V433.106M355.945 402.184H386.868M355.945 433.106V464.028M355.945 433.106H386.868M355.945 464.028V494.951M355.945 464.028H386.868M355.945 494.951V525.873M355.945 494.951H386.868M355.945 525.873V556.795M355.945 525.873H386.868M355.945 556.795V587.718M355.945 556.795H386.868M355.945 587.718V618.64M355.945 587.718H386.868M355.945 618.64H386.868M386.868 0.193359V31.1157M386.868 0.193359H417.79M386.868 31.1157V62.038M386.868 31.1157H417.79M386.868 62.038V92.9604M386.868 62.038H417.79M386.868 92.9604V123.883M386.868 92.9604H417.79M386.868 123.883V154.805M386.868 123.883H417.79M386.868 154.805V185.727M386.868 154.805H417.79M386.868 185.727V216.65M386.868 185.727H417.79M386.868 216.65V247.572M386.868 216.65H417.79M386.868 247.572V278.494M386.868 247.572H417.79M386.868 278.494V309.417M386.868 278.494H417.79M386.868 309.417V340.339M386.868 309.417H417.79M386.868 340.339V371.261M386.868 340.339H417.79M386.868 371.261V402.184M386.868 371.261H417.79M386.868 402.184V433.106M386.868 402.184H417.79M386.868 433.106V464.028M386.868 433.106H417.79M386.868 464.028V494.951M386.868 464.028H417.79M386.868 494.951V525.873M386.868 494.951H417.79M386.868 525.873V556.795M386.868 525.873H417.79M386.868 556.795V587.718M386.868 556.795H417.79M386.868 587.718V618.64M386.868 587.718H417.79M386.868 618.64H417.79M417.79 0.193359V31.1157M417.79 0.193359H448.712M417.79 31.1157V62.038M417.79 31.1157H448.712M417.79 62.038V92.9604M417.79 62.038H448.712M417.79 92.9604V123.883M417.79 92.9604H448.712M417.79 123.883V154.805M417.79 123.883H448.712M417.79 154.805V185.727M417.79 154.805H448.712M417.79 185.727V216.65M417.79 185.727H448.712M417.79 216.65V247.572M417.79 216.65H448.712M417.79 247.572V278.494M417.79 247.572H448.712M417.79 278.494V309.417M417.79 278.494H448.712M417.79 309.417V340.339M417.79 309.417H448.712M417.79 340.339V371.261M417.79 340.339H448.712M417.79 371.261V402.184M417.79 371.261H448.712M417.79 402.184V433.106M417.79 402.184H448.712M417.79 433.106V464.028M417.79 433.106H448.712M417.79 464.028V494.951M417.79 464.028H448.712M417.79 494.951V525.873M417.79 494.951H448.712M417.79 525.873V556.795M417.79 525.873H448.712M417.79 556.795V587.718M417.79 556.795H448.712M417.79 587.718V618.64M417.79 587.718H448.712M417.79 618.64H448.712M448.712 0.193359V31.1157M448.712 0.193359H479.635M448.712 31.1157V62.038M448.712 31.1157H479.635M448.712 62.038V92.9604M448.712 62.038H479.635M448.712 92.9604V123.883M448.712 92.9604H479.635M448.712 123.883V154.805M448.712 123.883H479.635M448.712 154.805V185.727M448.712 154.805H479.635M448.712 185.727V216.65M448.712 185.727H479.635M448.712 216.65V247.572M448.712 216.65H479.635M448.712 247.572V278.494M448.712 247.572H479.635M448.712 278.494V309.417M448.712 278.494H479.635M448.712 309.417V340.339M448.712 309.417H479.635M448.712 340.339V371.261M448.712 340.339H479.635M448.712 371.261V402.184M448.712 371.261H479.635M448.712 402.184V433.106M448.712 402.184H479.635M448.712 433.106V464.028M448.712 433.106H479.635M448.712 464.028V494.951M448.712 464.028H479.635M448.712 494.951V525.873M448.712 494.951H479.635M448.712 525.873V556.795M448.712 525.873H479.635M448.712 556.795V587.718M448.712 556.795H479.635M448.712 587.718V618.64M448.712 587.718H479.635M448.712 618.64H479.635M479.635 0.193359V31.1157M479.635 0.193359H510.557M479.635 31.1157V62.038M479.635 31.1157H510.557M479.635 62.038V92.9604M479.635 62.038H510.557M479.635 92.9604V123.883M479.635 92.9604H510.557M479.635 123.883V154.805M479.635 123.883H510.557M479.635 154.805V185.727M479.635 154.805H510.557M479.635 185.727V216.65M479.635 185.727H510.557M479.635 216.65V247.572M479.635 216.65H510.557M479.635 247.572V278.494M479.635 247.572H510.557M479.635 278.494V309.417M479.635 278.494H510.557M479.635 309.417V340.339M479.635 309.417H510.557M479.635 340.339V371.261M479.635 340.339H510.557M479.635 371.261V402.184M479.635 371.261H510.557M479.635 402.184V433.106M479.635 402.184H510.557M479.635 433.106V464.028M479.635 433.106H510.557M479.635 464.028V494.951M479.635 464.028H510.557M479.635 494.951V525.873M479.635 494.951H510.557M479.635 525.873V556.795M479.635 525.873H510.557M479.635 556.795V587.718M479.635 556.795H510.557M479.635 587.718V618.64M479.635 587.718H510.557M479.635 618.64H510.557M510.557 0.193359V31.1157M510.557 0.193359H541.479M510.557 31.1157V62.038M510.557 31.1157H541.479M510.557 62.038V92.9604M510.557 62.038H541.479M510.557 92.9604V123.883M510.557 92.9604H541.479M510.557 123.883V154.805M510.557 123.883H541.479M510.557 154.805V185.727M510.557 154.805H541.479M510.557 185.727V216.65M510.557 185.727H541.479M510.557 216.65V247.572M510.557 216.65H541.479M510.557 247.572V278.494M510.557 247.572H541.479M510.557 278.494V309.417M510.557 278.494H541.479M510.557 309.417V340.339M510.557 309.417H541.479M510.557 340.339V371.261M510.557 340.339H541.479M510.557 371.261V402.184M510.557 371.261H541.479M510.557 402.184V433.106M510.557 402.184H541.479M510.557 433.106V464.028M510.557 433.106H541.479M510.557 464.028V494.951M510.557 464.028H541.479M510.557 494.951V525.873M510.557 494.951H541.479M510.557 525.873V556.795M510.557 525.873H541.479M510.557 556.795V587.718M510.557 556.795H541.479M510.557 587.718V618.64M510.557 587.718H541.479M510.557 618.64H541.479M541.479 0.193359V31.1157M541.479 0.193359H572.402M541.479 31.1157V62.038M541.479 31.1157H572.402M541.479 62.038V92.9604M541.479 62.038H572.402M541.479 92.9604V123.883M541.479 92.9604H572.402M541.479 123.883V154.805M541.479 123.883H572.402M541.479 154.805V185.727M541.479 154.805H572.402M541.479 185.727V216.65M541.479 185.727H572.402M541.479 216.65V247.572M541.479 216.65H572.402M541.479 247.572V278.494M541.479 247.572H572.402M541.479 278.494V309.417M541.479 278.494H572.402M541.479 309.417V340.339M541.479 309.417H572.402M541.479 340.339V371.261M541.479 340.339H572.402M541.479 371.261V402.184M541.479 371.261H572.402M541.479 402.184V433.106M541.479 402.184H572.402M541.479 433.106V464.028M541.479 433.106H572.402M541.479 464.028V494.951M541.479 464.028H572.402M541.479 494.951V525.873M541.479 494.951H572.402M541.479 525.873V556.795M541.479 525.873H572.402M541.479 556.795V587.718M541.479 556.795H572.402M541.479 587.718V618.64M541.479 587.718H572.402M541.479 618.64H572.402M572.402 0.193359V31.1157M572.402 0.193359H603.324M572.402 31.1157V62.038M572.402 31.1157H603.324M572.402 62.038V92.9604M572.402 62.038H603.324M572.402 92.9604V123.883M572.402 92.9604H603.324M572.402 123.883V154.805M572.402 123.883H603.324M572.402 154.805V185.727M572.402 154.805H603.324M572.402 185.727V216.65M572.402 185.727H603.324M572.402 216.65V247.572M572.402 216.65H603.324M572.402 247.572V278.494M572.402 247.572H603.324M572.402 278.494V309.417M572.402 278.494H603.324M572.402 309.417V340.339M572.402 309.417H603.324M572.402 340.339V371.261M572.402 340.339H603.324M572.402 371.261V402.184M572.402 371.261H603.324M572.402 402.184V433.106M572.402 402.184H603.324M572.402 433.106V464.028M572.402 433.106H603.324M572.402 464.028V494.951M572.402 464.028H603.324M572.402 494.951V525.873M572.402 494.951H603.324M572.402 525.873V556.795M572.402 525.873H603.324M572.402 556.795V587.718M572.402 556.795H603.324M572.402 587.718V618.64M572.402 587.718H603.324M572.402 618.64H603.324M603.324 0.193359V31.1157M603.324 0.193359H634.246M603.324 31.1157V62.038M603.324 31.1157H634.246M603.324 62.038V92.9604M603.324 62.038H634.246M603.324 92.9604V123.883M603.324 92.9604H634.246M603.324 123.883V154.805M603.324 123.883H634.246M603.324 154.805V185.727M603.324 154.805H634.246M603.324 185.727V216.65M603.324 185.727H634.246M603.324 216.65V247.572M603.324 216.65H634.246M603.324 247.572V278.494M603.324 247.572H634.246M603.324 278.494V309.417M603.324 278.494H634.246M603.324 309.417V340.339M603.324 309.417H634.246M603.324 340.339V371.261M603.324 340.339H634.246M603.324 371.261V402.184M603.324 371.261H634.246M603.324 402.184V433.106M603.324 402.184H634.246M603.324 433.106V464.028M603.324 433.106H634.246M603.324 464.028V494.951M603.324 464.028H634.246M603.324 494.951V525.873M603.324 494.951H634.246M603.324 525.873V556.795M603.324 525.873H634.246M603.324 556.795V587.718M603.324 556.795H634.246M603.324 587.718V618.64M603.324 587.718H634.246M603.324 618.64H634.246M634.246 0.193359V31.1157M634.246 0.193359H665.169M634.246 31.1157V62.038M634.246 31.1157H665.169M634.246 62.038V92.9604M634.246 62.038H665.169M634.246 92.9604V123.883M634.246 92.9604H665.169M634.246 123.883V154.805M634.246 123.883H665.169M634.246 154.805V185.727M634.246 154.805H665.169M634.246 185.727V216.65M634.246 185.727H665.169M634.246 216.65V247.572M634.246 216.65H665.169M634.246 247.572V278.494M634.246 247.572H665.169M634.246 278.494V309.417M634.246 278.494H665.169M634.246 309.417V340.339M634.246 309.417H665.169M634.246 340.339V371.261M634.246 340.339H665.169M634.246 371.261V402.184M634.246 371.261H665.169M634.246 402.184V433.106M634.246 402.184H665.169M634.246 433.106V464.028M634.246 433.106H665.169M634.246 464.028V494.951M634.246 464.028H665.169M634.246 494.951V525.873M634.246 494.951H665.169M634.246 525.873V556.795M634.246 525.873H665.169M634.246 556.795V587.718M634.246 556.795H665.169M634.246 587.718V618.64M634.246 587.718H665.169M634.246 618.64H665.169M665.169 0.193359V31.1157M665.169 0.193359H696.091M665.169 31.1157V62.038M665.169 31.1157H696.091M665.169 62.038V92.9604M665.169 62.038H696.091M665.169 92.9604V123.883M665.169 92.9604H696.091M665.169 123.883V154.805M665.169 123.883H696.091M665.169 154.805V185.727M665.169 154.805H696.091M665.169 185.727V216.65M665.169 185.727H696.091M665.169 216.65V247.572M665.169 216.65H696.091M665.169 247.572V278.494M665.169 247.572H696.091M665.169 278.494V309.417M665.169 278.494H696.091M665.169 309.417V340.339M665.169 309.417H696.091M665.169 340.339V371.261M665.169 340.339H696.091M665.169 371.261V402.184M665.169 371.261H696.091M665.169 402.184V433.106M665.169 402.184H696.091M665.169 433.106V464.028M665.169 433.106H696.091M665.169 464.028V494.951M665.169 464.028H696.091M665.169 494.951V525.873M665.169 494.951H696.091M665.169 525.873V556.795M665.169 525.873H696.091M665.169 556.795V587.718M665.169 556.795H696.091M665.169 587.718V618.64M665.169 587.718H696.091M665.169 618.64H696.091M696.091 0.193359V31.1157M696.091 0.193359H727.013M696.091 31.1157V62.038M696.091 31.1157H727.013M696.091 62.038V92.9604M696.091 62.038H727.013M696.091 92.9604V123.883M696.091 92.9604H727.013M696.091 123.883V154.805M696.091 123.883H727.013M696.091 154.805V185.727M696.091 154.805H727.013M696.091 185.727V216.65M696.091 185.727H727.013M696.091 216.65V247.572M696.091 216.65H727.013M696.091 247.572V278.494M696.091 247.572H727.013M696.091 278.494V309.417M696.091 278.494H727.013M696.091 309.417V340.339M696.091 309.417H727.013M696.091 340.339V371.261M696.091 340.339H727.013M696.091 371.261V402.184M696.091 371.261H727.013M696.091 402.184V433.106M696.091 402.184H727.013M696.091 433.106V464.028M696.091 433.106H727.013M696.091 464.028V494.951M696.091 464.028H727.013M696.091 494.951V525.873M696.091 494.951H727.013M696.091 525.873V556.795M696.091 525.873H727.013M696.091 556.795V587.718M696.091 556.795H727.013M696.091 587.718V618.64M696.091 587.718H727.013M696.091 618.64H727.013M727.013 0.193359V31.1157M727.013 0.193359H757.936M727.013 31.1157V62.038M727.013 31.1157H757.936M727.013 62.038V92.9604M727.013 62.038H757.936M727.013 92.9604V123.883M727.013 92.9604H757.936M727.013 123.883V154.805M727.013 123.883H757.936M727.013 154.805V185.727M727.013 154.805H757.936M727.013 185.727V216.65M727.013 185.727H757.936M727.013 216.65V247.572M727.013 216.65H757.936M727.013 247.572V278.494M727.013 247.572H757.936M727.013 278.494V309.417M727.013 278.494H757.936M727.013 309.417V340.339M727.013 309.417H757.936M727.013 340.339V371.261M727.013 340.339H757.936M727.013 371.261V402.184M727.013 371.261H757.936M727.013 402.184V433.106M727.013 402.184H757.936M727.013 433.106V464.028M727.013 433.106H757.936M727.013 464.028V494.951M727.013 464.028H757.936M727.013 494.951V525.873M727.013 494.951H757.936M727.013 525.873V556.795M727.013 525.873H757.936M727.013 556.795V587.718M727.013 556.795H757.936M727.013 587.718V618.64M727.013 587.718H757.936M727.013 618.64H757.936M757.936 0.193359V31.1157M757.936 0.193359H788.858V31.1157M757.936 31.1157V62.038M757.936 31.1157H788.858M757.936 62.038V92.9604M757.936 62.038H788.858M757.936 92.9604V123.883M757.936 92.9604H788.858M757.936 123.883V154.805M757.936 123.883H788.858M757.936 154.805V185.727M757.936 154.805H788.858M757.936 185.727V216.65M757.936 185.727H788.858M757.936 216.65V247.572M757.936 216.65H788.858M757.936 247.572V278.494M757.936 247.572H788.858M757.936 278.494V309.417M757.936 278.494H788.858M757.936 309.417V340.339M757.936 309.417H788.858M757.936 340.339V371.261M757.936 340.339H788.858M757.936 371.261V402.184M757.936 371.261H788.858M757.936 402.184V433.106M757.936 402.184H788.858M757.936 433.106V464.028M757.936 433.106H788.858M757.936 464.028V494.951M757.936 464.028H788.858M757.936 494.951V525.873M757.936 494.951H788.858M757.936 525.873V556.795M757.936 525.873H788.858M757.936 556.795V587.718M757.936 556.795H788.858M757.936 587.718V618.64M757.936 587.718H788.858M757.936 618.64H788.858V587.718M788.858 31.1157V62.038M788.858 62.038V92.9604M788.858 92.9604V123.883M788.858 123.883V154.805M788.858 154.805V185.727M788.858 185.727V216.65M788.858 216.65V247.572M788.858 247.572V278.494M788.858 278.494V309.417M788.858 309.417V340.339M788.858 340.339V371.261M788.858 371.261V402.184M788.858 402.184V433.106M788.858 433.106V464.028M788.858 464.028V494.951M788.858 494.951V525.873M788.858 525.873V556.795M788.858 556.795V587.718" stroke="url(#paint0_radial_25455_636)" stroke-opacity="0.6" stroke-width="0.386529"/>
</g>
<defs>
<radialGradient id="paint0_radial_25455_636" cx="0" cy="0" r="1" gradientUnits="userSpaceOnUse" gradientTransform="translate(108.567 309.417) rotate(90) scale(309.223 680.291)">
<stop stop-color="white"/>
<stop offset="1" stop-color="white" stop-opacity="0"/>
</radialGradient>
</defs>
</svg>
