<svg width="22" height="16" viewBox="0 0 22 16" fill="none" xmlns="http://www.w3.org/2000/svg">
<path fill-rule="evenodd" clip-rule="evenodd" d="M2.75 0C2.02065 0 1.32118 0.289731 0.805456 0.805456C0.289731 1.32118 0 2.02065 0 2.75V12.75C0 13.4793 0.289731 14.1788 0.805456 14.6945C1.32118 15.2103 2.02065 15.5 2.75 15.5H18.75C19.4793 15.5 20.1788 15.2103 20.6945 14.6945C21.2103 14.1788 21.5 13.4793 21.5 12.75V2.75C21.5 2.02065 21.2103 1.32118 20.6945 0.805456C20.1788 0.289731 19.4793 0 18.75 0H2.75ZM6.18 4.136C6.01698 4.02962 5.81899 3.99079 5.62787 4.02771C5.43674 4.06464 5.26746 4.17442 5.1558 4.33387C5.04414 4.49331 4.99884 4.68992 5.02948 4.88215C5.06012 5.07438 5.1643 5.24717 5.32 5.364L10.32 8.864C10.446 8.9522 10.5962 8.99951 10.75 8.99951C10.9038 8.99951 11.054 8.9522 11.18 8.864L16.18 5.364C16.2642 5.30904 16.3365 5.23771 16.3926 5.15425C16.4487 5.07079 16.4874 4.9769 16.5065 4.87817C16.5256 4.77943 16.5246 4.67787 16.5036 4.57952C16.4827 4.48117 16.4421 4.38804 16.3845 4.30567C16.3268 4.2233 16.2531 4.15337 16.1679 4.10005C16.0826 4.04672 15.9875 4.01108 15.8882 3.99525C15.7889 3.97942 15.6874 3.98373 15.5898 4.00791C15.4922 4.03208 15.4004 4.07565 15.32 4.136L10.75 7.335L6.18 4.136Z" fill="black"/>
</svg>
