<svg width="91" height="16" viewBox="0 0 91 16" fill="none" xmlns="http://www.w3.org/2000/svg">
<path d="M8.00159 2L9.56826 5.84L13.7083 6.14667L10.5349 8.82667L11.5283 12.8533L8.00159 10.6667L4.47492 12.8533L5.46826 8.82667L2.29492 6.14667L6.43492 5.84L8.00159 2Z" fill="#F3B64C"/>
<path d="M8.00159 2L6.43492 5.84L2.29492 6.14667L5.46826 8.82667L4.47492 12.8533L8.00159 10.6667M8.00159 2L9.56826 5.84L13.7083 6.14667L10.5349 8.82667L11.5283 12.8533L8.00159 10.6667" stroke="#F3B64C" stroke-width="1.33333" stroke-linecap="round" stroke-linejoin="round"/>
<path d="M26.6657 2L28.2323 5.84L32.3723 6.14667L29.199 8.82667L30.1923 12.8533L26.6657 10.6667L23.139 12.8533L24.1323 8.82667L20.959 6.14667L25.099 5.84L26.6657 2Z" fill="#F3B64C"/>
<path d="M26.6657 2L25.099 5.84L20.959 6.14667L24.1323 8.82667L23.139 12.8533L26.6657 10.6667M26.6657 2L28.2323 5.84L32.3723 6.14667L29.199 8.82667L30.1923 12.8533L26.6657 10.6667" stroke="#F3B64C" stroke-width="1.33333" stroke-linecap="round" stroke-linejoin="round"/>
<path d="M45.3356 2L46.9022 5.84L51.0422 6.14667L47.8689 8.82667L48.8622 12.8533L45.3356 10.6667L41.8089 12.8533L42.8022 8.82667L39.6289 6.14667L43.7689 5.84L45.3356 2Z" fill="#F3B64C"/>
<path d="M45.3356 2L43.7689 5.84L39.6289 6.14667L42.8022 8.82667L41.8089 12.8533L45.3356 10.6667M45.3356 2L46.9022 5.84L51.0422 6.14667L47.8689 8.82667L48.8622 12.8533L45.3356 10.6667" stroke="#F3B64C" stroke-width="1.33333" stroke-linecap="round" stroke-linejoin="round"/>
<path d="M64.0016 2L65.5683 5.84L69.7083 6.14667L66.5349 8.82667L67.5283 12.8533L64.0016 10.6667L60.4749 12.8533L61.4683 8.82667L58.2949 6.14667L62.4349 5.84L64.0016 2Z" fill="#F3B64C"/>
<path d="M64.0016 2L62.4349 5.84L58.2949 6.14667L61.4683 8.82667L60.4749 12.8533L64.0016 10.6667M64.0016 2L65.5683 5.84L69.7083 6.14667L66.5349 8.82667L67.5283 12.8533L64.0016 10.6667" stroke="#F3B64C" stroke-width="1.33333" stroke-linecap="round" stroke-linejoin="round"/>
<path d="M82.6657 2L84.2323 5.84L88.3723 6.14667L85.199 8.82667L86.1923 12.8533L82.6657 10.6667L79.139 12.8533L80.1323 8.82667L76.959 6.14667L81.099 5.84L82.6657 2Z" fill="#F3B64C"/>
<path d="M82.6657 2L81.099 5.84L76.959 6.14667L80.1323 8.82667L79.139 12.8533L82.6657 10.6667M82.6657 2L84.2323 5.84L88.3723 6.14667L85.199 8.82667L86.1923 12.8533L82.6657 10.6667" stroke="#F3B64C" stroke-width="1.33333" stroke-linecap="round" stroke-linejoin="round"/>
</svg>
