<svg width="393" height="384" viewBox="0 0 393 384" fill="none" xmlns="http://www.w3.org/2000/svg">
<g opacity="0.7" style="mix-blend-mode:soft-light">
<path d="M-263.282 -22.9854H-283.33V-2.9368M-263.282 -22.9854V-2.9368M-263.282 -22.9854H-243.233M-263.282 -2.9368H-283.33M-263.282 -2.9368V17.1117M-263.282 -2.9368H-243.233M-283.33 -2.9368V17.1117M-263.282 17.1117H-283.33M-263.282 17.1117V37.1603M-263.282 17.1117H-243.233M-283.33 17.1117V37.1603M-263.282 37.1603H-283.33M-263.282 37.1603V57.2088M-263.282 37.1603H-243.233M-283.33 37.1603V57.2088M-263.282 57.2088H-283.33M-263.282 57.2088V77.2574M-263.282 57.2088H-243.233M-283.33 57.2088V77.2574M-263.282 77.2574H-283.33M-263.282 77.2574V97.3059M-263.282 77.2574H-243.233M-283.33 77.2574V97.3059M-263.282 97.3059H-283.33M-263.282 97.3059V117.354M-263.282 97.3059H-243.233M-283.33 97.3059V117.354M-263.282 117.354H-283.33M-263.282 117.354V137.403M-263.282 117.354H-243.233M-283.33 117.354V137.403M-263.282 137.403H-283.33M-263.282 137.403V157.452M-263.282 137.403H-243.233M-283.33 137.403V157.452M-263.282 157.452H-283.33M-263.282 157.452V177.5M-263.282 157.452H-243.233M-283.33 157.452V177.5M-263.282 177.5H-283.33M-263.282 177.5V197.549M-263.282 177.5H-243.233M-283.33 177.5V197.549M-263.282 197.549H-283.33M-263.282 197.549V217.597M-263.282 197.549H-243.233M-283.33 197.549V217.597M-263.282 217.597H-283.33M-263.282 217.597V237.646M-263.282 217.597H-243.233M-283.33 217.597V237.646M-263.282 237.646H-283.33M-263.282 237.646V257.694M-263.282 237.646H-243.233M-283.33 237.646V257.694M-263.282 257.694H-283.33M-263.282 257.694V277.743M-263.282 257.694H-243.233M-283.33 257.694V277.743M-263.282 277.743H-283.33M-263.282 277.743V297.791M-263.282 277.743H-243.233M-283.33 277.743V297.791M-263.282 297.791H-283.33M-263.282 297.791V317.84M-263.282 297.791H-243.233M-283.33 297.791V317.84M-263.282 317.84H-283.33M-263.282 317.84V337.888M-263.282 317.84H-243.233M-283.33 317.84V337.888M-263.282 337.888H-283.33M-263.282 337.888V357.937M-263.282 337.888H-243.233M-283.33 337.888V357.937M-263.282 357.937H-283.33M-263.282 357.937V377.986M-263.282 357.937H-243.233M-283.33 357.937V377.986H-263.282M-263.282 377.986H-243.233M-243.233 -22.9854V-2.9368M-243.233 -22.9854H-223.184M-243.233 -2.9368V17.1117M-243.233 -2.9368H-223.184M-243.233 17.1117V37.1603M-243.233 17.1117H-223.184M-243.233 37.1603V57.2088M-243.233 37.1603H-223.184M-243.233 57.2088V77.2574M-243.233 57.2088H-223.184M-243.233 77.2574V97.3059M-243.233 77.2574H-223.184M-243.233 97.3059V117.354M-243.233 97.3059H-223.184M-243.233 117.354V137.403M-243.233 117.354H-223.184M-243.233 137.403V157.452M-243.233 137.403H-223.184M-243.233 157.452V177.5M-243.233 157.452H-223.184M-243.233 177.5V197.549M-243.233 177.5H-223.184M-243.233 197.549V217.597M-243.233 197.549H-223.184M-243.233 217.597V237.646M-243.233 217.597H-223.184M-243.233 237.646V257.694M-243.233 237.646H-223.184M-243.233 257.694V277.743M-243.233 257.694H-223.184M-243.233 277.743V297.791M-243.233 277.743H-223.184M-243.233 297.791V317.84M-243.233 297.791H-223.184M-243.233 317.84V337.888M-243.233 317.84H-223.184M-243.233 337.888V357.937M-243.233 337.888H-223.184M-243.233 357.937V377.986M-243.233 357.937H-223.184M-243.233 377.986H-223.184M-223.184 -22.9854V-2.9368M-223.184 -22.9854H-203.136M-223.184 -2.9368V17.1117M-223.184 -2.9368H-203.136M-223.184 17.1117V37.1603M-223.184 17.1117H-203.136M-223.184 37.1603V57.2088M-223.184 37.1603H-203.136M-223.184 57.2088V77.2574M-223.184 57.2088H-203.136M-223.184 77.2574V97.3059M-223.184 77.2574H-203.136M-223.184 97.3059V117.354M-223.184 97.3059H-203.136M-223.184 117.354V137.403M-223.184 117.354H-203.136M-223.184 137.403V157.452M-223.184 137.403H-203.136M-223.184 157.452V177.5M-223.184 157.452H-203.136M-223.184 177.5V197.549M-223.184 177.5H-203.136M-223.184 197.549V217.597M-223.184 197.549H-203.136M-223.184 217.597V237.646M-223.184 217.597H-203.136M-223.184 237.646V257.694M-223.184 237.646H-203.136M-223.184 257.694V277.743M-223.184 257.694H-203.136M-223.184 277.743V297.791M-223.184 277.743H-203.136M-223.184 297.791V317.84M-223.184 297.791H-203.136M-223.184 317.84V337.888M-223.184 317.84H-203.136M-223.184 337.888V357.937M-223.184 337.888H-203.136M-223.184 357.937V377.986M-223.184 357.937H-203.136M-223.184 377.986H-203.136M-203.136 -22.9854V-2.9368M-203.136 -22.9854H-183.087M-203.136 -2.9368V17.1117M-203.136 -2.9368H-183.087M-203.136 17.1117V37.1603M-203.136 17.1117H-183.087M-203.136 37.1603V57.2088M-203.136 37.1603H-183.087M-203.136 57.2088V77.2574M-203.136 57.2088H-183.087M-203.136 77.2574V97.3059M-203.136 77.2574H-183.087M-203.136 97.3059V117.354M-203.136 97.3059H-183.087M-203.136 117.354V137.403M-203.136 117.354H-183.087M-203.136 137.403V157.452M-203.136 137.403H-183.087M-203.136 157.452V177.5M-203.136 157.452H-183.087M-203.136 177.5V197.549M-203.136 177.5H-183.087M-203.136 197.549V217.597M-203.136 197.549H-183.087M-203.136 217.597V237.646M-203.136 217.597H-183.087M-203.136 237.646V257.694M-203.136 237.646H-183.087M-203.136 257.694V277.743M-203.136 257.694H-183.087M-203.136 277.743V297.791M-203.136 277.743H-183.087M-203.136 297.791V317.84M-203.136 297.791H-183.087M-203.136 317.84V337.888M-203.136 317.84H-183.087M-203.136 337.888V357.937M-203.136 337.888H-183.087M-203.136 357.937V377.986M-203.136 357.937H-183.087M-203.136 377.986H-183.087M-183.087 -22.9854V-2.9368M-183.087 -22.9854H-163.039M-183.087 -2.9368V17.1117M-183.087 -2.9368H-163.039M-183.087 17.1117V37.1603M-183.087 17.1117H-163.039M-183.087 37.1603V57.2088M-183.087 37.1603H-163.039M-183.087 57.2088V77.2574M-183.087 57.2088H-163.039M-183.087 77.2574V97.3059M-183.087 77.2574H-163.039M-183.087 97.3059V117.354M-183.087 97.3059H-163.039M-183.087 117.354V137.403M-183.087 117.354H-163.039M-183.087 137.403V157.452M-183.087 137.403H-163.039M-183.087 157.452V177.5M-183.087 157.452H-163.039M-183.087 177.5V197.549M-183.087 177.5H-163.039M-183.087 197.549V217.597M-183.087 197.549H-163.039M-183.087 217.597V237.646M-183.087 217.597H-163.039M-183.087 237.646V257.694M-183.087 237.646H-163.039M-183.087 257.694V277.743M-183.087 257.694H-163.039M-183.087 277.743V297.791M-183.087 277.743H-163.039M-183.087 297.791V317.84M-183.087 297.791H-163.039M-183.087 317.84V337.888M-183.087 317.84H-163.039M-183.087 337.888V357.937M-183.087 337.888H-163.039M-183.087 357.937V377.986M-183.087 357.937H-163.039M-183.087 377.986H-163.039M-163.039 -22.9854V-2.9368M-163.039 -22.9854H-142.99M-163.039 -2.9368V17.1117M-163.039 -2.9368H-142.99M-163.039 17.1117V37.1603M-163.039 17.1117H-142.99M-163.039 37.1603V57.2088M-163.039 37.1603H-142.99M-163.039 57.2088V77.2574M-163.039 57.2088H-142.99M-163.039 77.2574V97.3059M-163.039 77.2574H-142.99M-163.039 97.3059V117.354M-163.039 97.3059H-142.99M-163.039 117.354V137.403M-163.039 117.354H-142.99M-163.039 137.403V157.452M-163.039 137.403H-142.99M-163.039 157.452V177.5M-163.039 157.452H-142.99M-163.039 177.5V197.549M-163.039 177.5H-142.99M-163.039 197.549V217.597M-163.039 197.549H-142.99M-163.039 217.597V237.646M-163.039 217.597H-142.99M-163.039 237.646V257.694M-163.039 237.646H-142.99M-163.039 257.694V277.743M-163.039 257.694H-142.99M-163.039 277.743V297.791M-163.039 277.743H-142.99M-163.039 297.791V317.84M-163.039 297.791H-142.99M-163.039 317.84V337.888M-163.039 317.84H-142.99M-163.039 337.888V357.937M-163.039 337.888H-142.99M-163.039 357.937V377.986M-163.039 357.937H-142.99M-163.039 377.986H-142.99M-142.99 -22.9854V-2.9368M-142.99 -22.9854H-122.942M-142.99 -2.9368V17.1117M-142.99 -2.9368H-122.942M-142.99 17.1117V37.1603M-142.99 17.1117H-122.942M-142.99 37.1603V57.2088M-142.99 37.1603H-122.942M-142.99 57.2088V77.2574M-142.99 57.2088H-122.942M-142.99 77.2574V97.3059M-142.99 77.2574H-122.942M-142.99 97.3059V117.354M-142.99 97.3059H-122.942M-142.99 117.354V137.403M-142.99 117.354H-122.942M-142.99 137.403V157.452M-142.99 137.403H-122.942M-142.99 157.452V177.5M-142.99 157.452H-122.942M-142.99 177.5V197.549M-142.99 177.5H-122.942M-142.99 197.549V217.597M-142.99 197.549H-122.942M-142.99 217.597V237.646M-142.99 217.597H-122.942M-142.99 237.646V257.694M-142.99 237.646H-122.942M-142.99 257.694V277.743M-142.99 257.694H-122.942M-142.99 277.743V297.791M-142.99 277.743H-122.942M-142.99 297.791V317.84M-142.99 297.791H-122.942M-142.99 317.84V337.888M-142.99 317.84H-122.942M-142.99 337.888V357.937M-142.99 337.888H-122.942M-142.99 357.937V377.986M-142.99 357.937H-122.942M-142.99 377.986H-122.942M-122.942 -22.9854V-2.9368M-122.942 -22.9854H-102.893M-122.942 -2.9368V17.1117M-122.942 -2.9368H-102.893M-122.942 17.1117V37.1603M-122.942 17.1117H-102.893M-122.942 37.1603V57.2088M-122.942 37.1603H-102.893M-122.942 57.2088V77.2574M-122.942 57.2088H-102.893M-122.942 77.2574V97.3059M-122.942 77.2574H-102.893M-122.942 97.3059V117.354M-122.942 97.3059H-102.893M-122.942 117.354V137.403M-122.942 117.354H-102.893M-122.942 137.403V157.452M-122.942 137.403H-102.893M-122.942 157.452V177.5M-122.942 157.452H-102.893M-122.942 177.5V197.549M-122.942 177.5H-102.893M-122.942 197.549V217.597M-122.942 197.549H-102.893M-122.942 217.597V237.646M-122.942 217.597H-102.893M-122.942 237.646V257.694M-122.942 237.646H-102.893M-122.942 257.694V277.743M-122.942 257.694H-102.893M-122.942 277.743V297.791M-122.942 277.743H-102.893M-122.942 297.791V317.84M-122.942 297.791H-102.893M-122.942 317.84V337.888M-122.942 317.84H-102.893M-122.942 337.888V357.937M-122.942 337.888H-102.893M-122.942 357.937V377.986M-122.942 357.937H-102.893M-122.942 377.986H-102.893M-102.893 -22.9854V-2.9368M-102.893 -22.9854H-82.8446M-102.893 -2.9368V17.1117M-102.893 -2.9368H-82.8446M-102.893 17.1117V37.1603M-102.893 17.1117H-82.8446M-102.893 37.1603V57.2088M-102.893 37.1603H-82.8446M-102.893 57.2088V77.2574M-102.893 57.2088H-82.8446M-102.893 77.2574V97.3059M-102.893 77.2574H-82.8446M-102.893 97.3059V117.354M-102.893 97.3059H-82.8446M-102.893 117.354V137.403M-102.893 117.354H-82.8446M-102.893 137.403V157.452M-102.893 137.403H-82.8446M-102.893 157.452V177.5M-102.893 157.452H-82.8446M-102.893 177.5V197.549M-102.893 177.5H-82.8446M-102.893 197.549V217.597M-102.893 197.549H-82.8446M-102.893 217.597V237.646M-102.893 217.597H-82.8446M-102.893 237.646V257.694M-102.893 237.646H-82.8446M-102.893 257.694V277.743M-102.893 257.694H-82.8446M-102.893 277.743V297.791M-102.893 277.743H-82.8446M-102.893 297.791V317.84M-102.893 297.791H-82.8446M-102.893 317.84V337.888M-102.893 317.84H-82.8446M-102.893 337.888V357.937M-102.893 337.888H-82.8446M-102.893 357.937V377.986M-102.893 357.937H-82.8446M-102.893 377.986H-82.8446M-82.8446 -22.9854V-2.9368M-82.8446 -22.9854H-62.796M-82.8446 -2.9368V17.1117M-82.8446 -2.9368H-62.796M-82.8446 17.1117V37.1603M-82.8446 17.1117H-62.796M-82.8446 37.1603V57.2088M-82.8446 37.1603H-62.796M-82.8446 57.2088V77.2574M-82.8446 57.2088H-62.796M-82.8446 77.2574V97.3059M-82.8446 77.2574H-62.796M-82.8446 97.3059V117.354M-82.8446 97.3059H-62.796M-82.8446 117.354V137.403M-82.8446 117.354H-62.796M-82.8446 137.403V157.452M-82.8446 137.403H-62.796M-82.8446 157.452V177.5M-82.8446 157.452H-62.796M-82.8446 177.5V197.549M-82.8446 177.5H-62.796M-82.8446 197.549V217.597M-82.8446 197.549H-62.796M-82.8446 217.597V237.646M-82.8446 217.597H-62.796M-82.8446 237.646V257.694M-82.8446 237.646H-62.796M-82.8446 257.694V277.743M-82.8446 257.694H-62.796M-82.8446 277.743V297.791M-82.8446 277.743H-62.796M-82.8446 297.791V317.84M-82.8446 297.791H-62.796M-82.8446 317.84V337.888M-82.8446 317.84H-62.796M-82.8446 337.888V357.937M-82.8446 337.888H-62.796M-82.8446 357.937V377.986M-82.8446 357.937H-62.796M-82.8446 377.986H-62.796M-62.796 -22.9854V-2.9368M-62.796 -22.9854H-42.7475M-62.796 -2.9368V17.1117M-62.796 -2.9368H-42.7475M-62.796 17.1117V37.1603M-62.796 17.1117H-42.7475M-62.796 37.1603V57.2088M-62.796 37.1603H-42.7475M-62.796 57.2088V77.2574M-62.796 57.2088H-42.7475M-62.796 77.2574V97.3059M-62.796 77.2574H-42.7475M-62.796 97.3059V117.354M-62.796 97.3059H-42.7475M-62.796 117.354V137.403M-62.796 117.354H-42.7475M-62.796 137.403V157.452M-62.796 137.403H-42.7475M-62.796 157.452V177.5M-62.796 157.452H-42.7475M-62.796 177.5V197.549M-62.796 177.5H-42.7475M-62.796 197.549V217.597M-62.796 197.549H-42.7475M-62.796 217.597V237.646M-62.796 217.597H-42.7475M-62.796 237.646V257.694M-62.796 237.646H-42.7475M-62.796 257.694V277.743M-62.796 257.694H-42.7475M-62.796 277.743V297.791M-62.796 277.743H-42.7475M-62.796 297.791V317.84M-62.796 297.791H-42.7475M-62.796 317.84V337.888M-62.796 317.84H-42.7475M-62.796 337.888V357.937M-62.796 337.888H-42.7475M-62.796 357.937V377.986M-62.796 357.937H-42.7475M-62.796 377.986H-42.7475M-42.7475 -22.9854V-2.9368M-42.7475 -22.9854H-22.699M-42.7475 -2.9368V17.1117M-42.7475 -2.9368H-22.699M-42.7475 17.1117V37.1603M-42.7475 17.1117H-22.699M-42.7475 37.1603V57.2088M-42.7475 37.1603H-22.699M-42.7475 57.2088V77.2574M-42.7475 57.2088H-22.699M-42.7475 77.2574V97.3059M-42.7475 77.2574H-22.699M-42.7475 97.3059V117.354M-42.7475 97.3059H-22.699M-42.7475 117.354V137.403M-42.7475 117.354H-22.699M-42.7475 137.403V157.452M-42.7475 137.403H-22.699M-42.7475 157.452V177.5M-42.7475 157.452H-22.699M-42.7475 177.5V197.549M-42.7475 177.5H-22.699M-42.7475 197.549V217.597M-42.7475 197.549H-22.699M-42.7475 217.597V237.646M-42.7475 217.597H-22.699M-42.7475 237.646V257.694M-42.7475 237.646H-22.699M-42.7475 257.694V277.743M-42.7475 257.694H-22.699M-42.7475 277.743V297.791M-42.7475 277.743H-22.699M-42.7475 297.791V317.84M-42.7475 297.791H-22.699M-42.7475 317.84V337.888M-42.7475 317.84H-22.699M-42.7475 337.888V357.937M-42.7475 337.888H-22.699M-42.7475 357.937V377.986M-42.7475 357.937H-22.699M-42.7475 377.986H-22.699M-22.699 -22.9854V-2.9368M-22.699 -22.9854H-2.65041M-22.699 -2.9368V17.1117M-22.699 -2.9368H-2.65041M-22.699 17.1117V37.1603M-22.699 17.1117H-2.65041M-22.699 37.1603V57.2088M-22.699 37.1603H-2.65041M-22.699 57.2088V77.2574M-22.699 57.2088H-2.65041M-22.699 77.2574V97.3059M-22.699 77.2574H-2.65041M-22.699 97.3059V117.354M-22.699 97.3059H-2.65041M-22.699 117.354V137.403M-22.699 117.354H-2.65041M-22.699 137.403V157.452M-22.699 137.403H-2.65041M-22.699 157.452V177.5M-22.699 157.452H-2.65041M-22.699 177.5V197.549M-22.699 177.5H-2.65041M-22.699 197.549V217.597M-22.699 197.549H-2.65041M-22.699 217.597V237.646M-22.699 217.597H-2.65041M-22.699 237.646V257.694M-22.699 237.646H-2.65041M-22.699 257.694V277.743M-22.699 257.694H-2.65041M-22.699 277.743V297.791M-22.699 277.743H-2.65041M-22.699 297.791V317.84M-22.699 297.791H-2.65041M-22.699 317.84V337.888M-22.699 317.84H-2.65041M-22.699 337.888V357.937M-22.699 337.888H-2.65041M-22.699 357.937V377.986M-22.699 357.937H-2.65041M-22.699 377.986H-2.65041M-2.65041 -22.9854V-2.9368M-2.65041 -22.9854H17.3981M-2.65041 -2.9368V17.1117M-2.65041 -2.9368H17.3981M-2.65041 17.1117V37.1603M-2.65041 17.1117H17.3981M-2.65041 37.1603V57.2088M-2.65041 37.1603H17.3981M-2.65041 57.2088V77.2574M-2.65041 57.2088H17.3981M-2.65041 77.2574V97.3059M-2.65041 77.2574H17.3981M-2.65041 97.3059V117.354M-2.65041 97.3059H17.3981M-2.65041 117.354V137.403M-2.65041 117.354H17.3981M-2.65041 137.403V157.452M-2.65041 137.403H17.3981M-2.65041 157.452V177.5M-2.65041 157.452H17.3981M-2.65041 177.5V197.549M-2.65041 177.5H17.3981M-2.65041 197.549V217.597M-2.65041 197.549H17.3981M-2.65041 217.597V237.646M-2.65041 217.597H17.3981M-2.65041 237.646V257.694M-2.65041 237.646H17.3981M-2.65041 257.694V277.743M-2.65041 257.694H17.3981M-2.65041 277.743V297.791M-2.65041 277.743H17.3981M-2.65041 297.791V317.84M-2.65041 297.791H17.3981M-2.65041 317.84V337.888M-2.65041 317.84H17.3981M-2.65041 337.888V357.937M-2.65041 337.888H17.3981M-2.65041 357.937V377.986M-2.65041 357.937H17.3981M-2.65041 377.986H17.3981M17.3981 -22.9854V-2.9368M17.3981 -22.9854H37.4467M17.3981 -2.9368V17.1117M17.3981 -2.9368H37.4467M17.3981 17.1117V37.1603M17.3981 17.1117H37.4467M17.3981 37.1603V57.2088M17.3981 37.1603H37.4467M17.3981 57.2088V77.2574M17.3981 57.2088H37.4467M17.3981 77.2574V97.3059M17.3981 77.2574H37.4467M17.3981 97.3059V117.354M17.3981 97.3059H37.4467M17.3981 117.354V137.403M17.3981 117.354H37.4467M17.3981 137.403V157.452M17.3981 137.403H37.4467M17.3981 157.452V177.5M17.3981 157.452H37.4467M17.3981 177.5V197.549M17.3981 177.5H37.4467M17.3981 197.549V217.597M17.3981 197.549H37.4467M17.3981 217.597V237.646M17.3981 217.597H37.4467M17.3981 237.646V257.694M17.3981 237.646H37.4467M17.3981 257.694V277.743M17.3981 257.694H37.4467M17.3981 277.743V297.791M17.3981 277.743H37.4467M17.3981 297.791V317.84M17.3981 297.791H37.4467M17.3981 317.84V337.888M17.3981 317.84H37.4467M17.3981 337.888V357.937M17.3981 337.888H37.4467M17.3981 357.937V377.986M17.3981 357.937H37.4467M17.3981 377.986H37.4467M37.4467 -22.9854V-2.9368M37.4467 -22.9854H57.4952M37.4467 -2.9368V17.1117M37.4467 -2.9368H57.4952M37.4467 17.1117V37.1603M37.4467 17.1117H57.4952M37.4467 37.1603V57.2088M37.4467 37.1603H57.4952M37.4467 57.2088V77.2574M37.4467 57.2088H57.4952M37.4467 77.2574V97.3059M37.4467 77.2574H57.4952M37.4467 97.3059V117.354M37.4467 97.3059H57.4952M37.4467 117.354V137.403M37.4467 117.354H57.4952M37.4467 137.403V157.452M37.4467 137.403H57.4952M37.4467 157.452V177.5M37.4467 157.452H57.4952M37.4467 177.5V197.549M37.4467 177.5H57.4952M37.4467 197.549V217.597M37.4467 197.549H57.4952M37.4467 217.597V237.646M37.4467 217.597H57.4952M37.4467 237.646V257.694M37.4467 237.646H57.4952M37.4467 257.694V277.743M37.4467 257.694H57.4952M37.4467 277.743V297.791M37.4467 277.743H57.4952M37.4467 297.791V317.84M37.4467 297.791H57.4952M37.4467 317.84V337.888M37.4467 317.84H57.4952M37.4467 337.888V357.937M37.4467 337.888H57.4952M37.4467 357.937V377.986M37.4467 357.937H57.4952M37.4467 377.986H57.4952M57.4952 -22.9854V-2.9368M57.4952 -22.9854H77.5438M57.4952 -2.9368V17.1117M57.4952 -2.9368H77.5438M57.4952 17.1117V37.1603M57.4952 17.1117H77.5438M57.4952 37.1603V57.2088M57.4952 37.1603H77.5438M57.4952 57.2088V77.2574M57.4952 57.2088H77.5438M57.4952 77.2574V97.3059M57.4952 77.2574H77.5438M57.4952 97.3059V117.354M57.4952 97.3059H77.5438M57.4952 117.354V137.403M57.4952 117.354H77.5438M57.4952 137.403V157.452M57.4952 137.403H77.5438M57.4952 157.452V177.5M57.4952 157.452H77.5438M57.4952 177.5V197.549M57.4952 177.5H77.5438M57.4952 197.549V217.597M57.4952 197.549H77.5438M57.4952 217.597V237.646M57.4952 217.597H77.5438M57.4952 237.646V257.694M57.4952 237.646H77.5438M57.4952 257.694V277.743M57.4952 257.694H77.5438M57.4952 277.743V297.791M57.4952 277.743H77.5438M57.4952 297.791V317.84M57.4952 297.791H77.5438M57.4952 317.84V337.888M57.4952 317.84H77.5438M57.4952 337.888V357.937M57.4952 337.888H77.5438M57.4952 357.937V377.986M57.4952 357.937H77.5438M57.4952 377.986H77.5438M77.5438 -22.9854V-2.9368M77.5438 -22.9854H97.5923M77.5438 -2.9368V17.1117M77.5438 -2.9368H97.5923M77.5438 17.1117V37.1603M77.5438 17.1117H97.5923M77.5438 37.1603V57.2088M77.5438 37.1603H97.5923M77.5438 57.2088V77.2574M77.5438 57.2088H97.5923M77.5438 77.2574V97.3059M77.5438 77.2574H97.5923M77.5438 97.3059V117.354M77.5438 97.3059H97.5923M77.5438 117.354V137.403M77.5438 117.354H97.5923M77.5438 137.403V157.452M77.5438 137.403H97.5923M77.5438 157.452V177.5M77.5438 157.452H97.5923M77.5438 177.5V197.549M77.5438 177.5H97.5923M77.5438 197.549V217.597M77.5438 197.549H97.5923M77.5438 217.597V237.646M77.5438 217.597H97.5923M77.5438 237.646V257.694M77.5438 237.646H97.5923M77.5438 257.694V277.743M77.5438 257.694H97.5923M77.5438 277.743V297.791M77.5438 277.743H97.5923M77.5438 297.791V317.84M77.5438 297.791H97.5923M77.5438 317.84V337.888M77.5438 317.84H97.5923M77.5438 337.888V357.937M77.5438 337.888H97.5923M77.5438 357.937V377.986M77.5438 357.937H97.5923M77.5438 377.986H97.5923M97.5923 -22.9854V-2.9368M97.5923 -22.9854H117.641M97.5923 -2.9368V17.1117M97.5923 -2.9368H117.641M97.5923 17.1117V37.1603M97.5923 17.1117H117.641M97.5923 37.1603V57.2088M97.5923 37.1603H117.641M97.5923 57.2088V77.2574M97.5923 57.2088H117.641M97.5923 77.2574V97.3059M97.5923 77.2574H117.641M97.5923 97.3059V117.354M97.5923 97.3059H117.641M97.5923 117.354V137.403M97.5923 117.354H117.641M97.5923 137.403V157.452M97.5923 137.403H117.641M97.5923 157.452V177.5M97.5923 157.452H117.641M97.5923 177.5V197.549M97.5923 177.5H117.641M97.5923 197.549V217.597M97.5923 197.549H117.641M97.5923 217.597V237.646M97.5923 217.597H117.641M97.5923 237.646V257.694M97.5923 237.646H117.641M97.5923 257.694V277.743M97.5923 257.694H117.641M97.5923 277.743V297.791M97.5923 277.743H117.641M97.5923 297.791V317.84M97.5923 297.791H117.641M97.5923 317.84V337.888M97.5923 317.84H117.641M97.5923 337.888V357.937M97.5923 337.888H117.641M97.5923 357.937V377.986M97.5923 357.937H117.641M97.5923 377.986H117.641M117.641 -22.9854V-2.9368M117.641 -22.9854H137.689M117.641 -2.9368V17.1117M117.641 -2.9368H137.689M117.641 17.1117V37.1603M117.641 17.1117H137.689M117.641 37.1603V57.2088M117.641 37.1603H137.689M117.641 57.2088V77.2574M117.641 57.2088H137.689M117.641 77.2574V97.3059M117.641 77.2574H137.689M117.641 97.3059V117.354M117.641 97.3059H137.689M117.641 117.354V137.403M117.641 117.354H137.689M117.641 137.403V157.452M117.641 137.403H137.689M117.641 157.452V177.5M117.641 157.452H137.689M117.641 177.5V197.549M117.641 177.5H137.689M117.641 197.549V217.597M117.641 197.549H137.689M117.641 217.597V237.646M117.641 217.597H137.689M117.641 237.646V257.694M117.641 237.646H137.689M117.641 257.694V277.743M117.641 257.694H137.689M117.641 277.743V297.791M117.641 277.743H137.689M117.641 297.791V317.84M117.641 297.791H137.689M117.641 317.84V337.888M117.641 317.84H137.689M117.641 337.888V357.937M117.641 337.888H137.689M117.641 357.937V377.986M117.641 357.937H137.689M117.641 377.986H137.689M137.689 -22.9854V-2.9368M137.689 -22.9854H157.738M137.689 -2.9368V17.1117M137.689 -2.9368H157.738M137.689 17.1117V37.1603M137.689 17.1117H157.738M137.689 37.1603V57.2088M137.689 37.1603H157.738M137.689 57.2088V77.2574M137.689 57.2088H157.738M137.689 77.2574V97.3059M137.689 77.2574H157.738M137.689 97.3059V117.354M137.689 97.3059H157.738M137.689 117.354V137.403M137.689 117.354H157.738M137.689 137.403V157.452M137.689 137.403H157.738M137.689 157.452V177.5M137.689 157.452H157.738M137.689 177.5V197.549M137.689 177.5H157.738M137.689 197.549V217.597M137.689 197.549H157.738M137.689 217.597V237.646M137.689 217.597H157.738M137.689 237.646V257.694M137.689 237.646H157.738M137.689 257.694V277.743M137.689 257.694H157.738M137.689 277.743V297.791M137.689 277.743H157.738M137.689 297.791V317.84M137.689 297.791H157.738M137.689 317.84V337.888M137.689 317.84H157.738M137.689 337.888V357.937M137.689 337.888H157.738M137.689 357.937V377.986M137.689 357.937H157.738M137.689 377.986H157.738M157.738 -22.9854V-2.9368M157.738 -22.9854H177.787M157.738 -2.9368V17.1117M157.738 -2.9368H177.787M157.738 17.1117V37.1603M157.738 17.1117H177.787M157.738 37.1603V57.2088M157.738 37.1603H177.787M157.738 57.2088V77.2574M157.738 57.2088H177.787M157.738 77.2574V97.3059M157.738 77.2574H177.787M157.738 97.3059V117.354M157.738 97.3059H177.787M157.738 117.354V137.403M157.738 117.354H177.787M157.738 137.403V157.452M157.738 137.403H177.787M157.738 157.452V177.5M157.738 157.452H177.787M157.738 177.5V197.549M157.738 177.5H177.787M157.738 197.549V217.597M157.738 197.549H177.787M157.738 217.597V237.646M157.738 217.597H177.787M157.738 237.646V257.694M157.738 237.646H177.787M157.738 257.694V277.743M157.738 257.694H177.787M157.738 277.743V297.791M157.738 277.743H177.787M157.738 297.791V317.84M157.738 297.791H177.787M157.738 317.84V337.888M157.738 317.84H177.787M157.738 337.888V357.937M157.738 337.888H177.787M157.738 357.937V377.986M157.738 357.937H177.787M157.738 377.986H177.787M177.787 -22.9854V-2.9368M177.787 -22.9854H197.835M177.787 -2.9368V17.1117M177.787 -2.9368H197.835M177.787 17.1117V37.1603M177.787 17.1117H197.835M177.787 37.1603V57.2088M177.787 37.1603H197.835M177.787 57.2088V77.2574M177.787 57.2088H197.835M177.787 77.2574V97.3059M177.787 77.2574H197.835M177.787 97.3059V117.354M177.787 97.3059H197.835M177.787 117.354V137.403M177.787 117.354H197.835M177.787 137.403V157.452M177.787 137.403H197.835M177.787 157.452V177.5M177.787 157.452H197.835M177.787 177.5V197.549M177.787 177.5H197.835M177.787 197.549V217.597M177.787 197.549H197.835M177.787 217.597V237.646M177.787 217.597H197.835M177.787 237.646V257.694M177.787 237.646H197.835M177.787 257.694V277.743M177.787 257.694H197.835M177.787 277.743V297.791M177.787 277.743H197.835M177.787 297.791V317.84M177.787 297.791H197.835M177.787 317.84V337.888M177.787 317.84H197.835M177.787 337.888V357.937M177.787 337.888H197.835M177.787 357.937V377.986M177.787 357.937H197.835M177.787 377.986H197.835M197.835 -22.9854V-2.9368M197.835 -22.9854H217.884M197.835 -2.9368V17.1117M197.835 -2.9368H217.884M197.835 17.1117V37.1603M197.835 17.1117H217.884M197.835 37.1603V57.2088M197.835 37.1603H217.884M197.835 57.2088V77.2574M197.835 57.2088H217.884M197.835 77.2574V97.3059M197.835 77.2574H217.884M197.835 97.3059V117.354M197.835 97.3059H217.884M197.835 117.354V137.403M197.835 117.354H217.884M197.835 137.403V157.452M197.835 137.403H217.884M197.835 157.452V177.5M197.835 157.452H217.884M197.835 177.5V197.549M197.835 177.5H217.884M197.835 197.549V217.597M197.835 197.549H217.884M197.835 217.597V237.646M197.835 217.597H217.884M197.835 237.646V257.694M197.835 237.646H217.884M197.835 257.694V277.743M197.835 257.694H217.884M197.835 277.743V297.791M197.835 277.743H217.884M197.835 297.791V317.84M197.835 297.791H217.884M197.835 317.84V337.888M197.835 317.84H217.884M197.835 337.888V357.937M197.835 337.888H217.884M197.835 357.937V377.986M197.835 357.937H217.884M197.835 377.986H217.884M217.884 -22.9854V-2.9368M217.884 -22.9854H237.932M217.884 -2.9368V17.1117M217.884 -2.9368H237.932M217.884 17.1117V37.1603M217.884 17.1117H237.932M217.884 37.1603V57.2088M217.884 37.1603H237.932M217.884 57.2088V77.2574M217.884 57.2088H237.932M217.884 77.2574V97.3059M217.884 77.2574H237.932M217.884 97.3059V117.354M217.884 97.3059H237.932M217.884 117.354V137.403M217.884 117.354H237.932M217.884 137.403V157.452M217.884 137.403H237.932M217.884 157.452V177.5M217.884 157.452H237.932M217.884 177.5V197.549M217.884 177.5H237.932M217.884 197.549V217.597M217.884 197.549H237.932M217.884 217.597V237.646M217.884 217.597H237.932M217.884 237.646V257.694M217.884 237.646H237.932M217.884 257.694V277.743M217.884 257.694H237.932M217.884 277.743V297.791M217.884 277.743H237.932M217.884 297.791V317.84M217.884 297.791H237.932M217.884 317.84V337.888M217.884 317.84H237.932M217.884 337.888V357.937M217.884 337.888H237.932M217.884 357.937V377.986M217.884 357.937H237.932M217.884 377.986H237.932M237.932 -22.9854V-2.9368M237.932 -22.9854H257.981M237.932 -2.9368V17.1117M237.932 -2.9368H257.981M237.932 17.1117V37.1603M237.932 17.1117H257.981M237.932 37.1603V57.2088M237.932 37.1603H257.981M237.932 57.2088V77.2574M237.932 57.2088H257.981M237.932 77.2574V97.3059M237.932 77.2574H257.981M237.932 97.3059V117.354M237.932 97.3059H257.981M237.932 117.354V137.403M237.932 117.354H257.981M237.932 137.403V157.452M237.932 137.403H257.981M237.932 157.452V177.5M237.932 157.452H257.981M237.932 177.5V197.549M237.932 177.5H257.981M237.932 197.549V217.597M237.932 197.549H257.981M237.932 217.597V237.646M237.932 217.597H257.981M237.932 237.646V257.694M237.932 237.646H257.981M237.932 257.694V277.743M237.932 257.694H257.981M237.932 277.743V297.791M237.932 277.743H257.981M237.932 297.791V317.84M237.932 297.791H257.981M237.932 317.84V337.888M237.932 317.84H257.981M237.932 337.888V357.937M237.932 337.888H257.981M237.932 357.937V377.986M237.932 357.937H257.981M237.932 377.986H257.981M257.981 -22.9854V-2.9368M257.981 -22.9854H278.029M257.981 -2.9368V17.1117M257.981 -2.9368H278.029M257.981 17.1117V37.1603M257.981 17.1117H278.029M257.981 37.1603V57.2088M257.981 37.1603H278.029M257.981 57.2088V77.2574M257.981 57.2088H278.029M257.981 77.2574V97.3059M257.981 77.2574H278.029M257.981 97.3059V117.354M257.981 97.3059H278.029M257.981 117.354V137.403M257.981 117.354H278.029M257.981 137.403V157.452M257.981 137.403H278.029M257.981 157.452V177.5M257.981 157.452H278.029M257.981 177.5V197.549M257.981 177.5H278.029M257.981 197.549V217.597M257.981 197.549H278.029M257.981 217.597V237.646M257.981 217.597H278.029M257.981 237.646V257.694M257.981 237.646H278.029M257.981 257.694V277.743M257.981 257.694H278.029M257.981 277.743V297.791M257.981 277.743H278.029M257.981 297.791V317.84M257.981 297.791H278.029M257.981 317.84V337.888M257.981 317.84H278.029M257.981 337.888V357.937M257.981 337.888H278.029M257.981 357.937V377.986M257.981 357.937H278.029M257.981 377.986H278.029M278.029 -22.9854V-2.9368M278.029 -22.9854H298.078M278.029 -2.9368V17.1117M278.029 -2.9368H298.078M278.029 17.1117V37.1603M278.029 17.1117H298.078M278.029 37.1603V57.2088M278.029 37.1603H298.078M278.029 57.2088V77.2574M278.029 57.2088H298.078M278.029 77.2574V97.3059M278.029 77.2574H298.078M278.029 97.3059V117.354M278.029 97.3059H298.078M278.029 117.354V137.403M278.029 117.354H298.078M278.029 137.403V157.452M278.029 137.403H298.078M278.029 157.452V177.5M278.029 157.452H298.078M278.029 177.5V197.549M278.029 177.5H298.078M278.029 197.549V217.597M278.029 197.549H298.078M278.029 217.597V237.646M278.029 217.597H298.078M278.029 237.646V257.694M278.029 237.646H298.078M278.029 257.694V277.743M278.029 257.694H298.078M278.029 277.743V297.791M278.029 277.743H298.078M278.029 297.791V317.84M278.029 297.791H298.078M278.029 317.84V337.888M278.029 317.84H298.078M278.029 337.888V357.937M278.029 337.888H298.078M278.029 357.937V377.986M278.029 357.937H298.078M278.029 377.986H298.078M298.078 -22.9854V-2.9368M298.078 -22.9854H318.126M298.078 -2.9368V17.1117M298.078 -2.9368H318.126M298.078 17.1117V37.1603M298.078 17.1117H318.126M298.078 37.1603V57.2088M298.078 37.1603H318.126M298.078 57.2088V77.2574M298.078 57.2088H318.126M298.078 77.2574V97.3059M298.078 77.2574H318.126M298.078 97.3059V117.354M298.078 97.3059H318.126M298.078 117.354V137.403M298.078 117.354H318.126M298.078 137.403V157.452M298.078 137.403H318.126M298.078 157.452V177.5M298.078 157.452H318.126M298.078 177.5V197.549M298.078 177.5H318.126M298.078 197.549V217.597M298.078 197.549H318.126M298.078 217.597V237.646M298.078 217.597H318.126M298.078 237.646V257.694M298.078 237.646H318.126M298.078 257.694V277.743M298.078 257.694H318.126M298.078 277.743V297.791M298.078 277.743H318.126M298.078 297.791V317.84M298.078 297.791H318.126M298.078 317.84V337.888M298.078 317.84H318.126M298.078 337.888V357.937M298.078 337.888H318.126M298.078 357.937V377.986M298.078 357.937H318.126M298.078 377.986H318.126M318.126 -22.9854V-2.9368M318.126 -22.9854H338.175M318.126 -2.9368V17.1117M318.126 -2.9368H338.175M318.126 17.1117V37.1603M318.126 17.1117H338.175M318.126 37.1603V57.2088M318.126 37.1603H338.175M318.126 57.2088V77.2574M318.126 57.2088H338.175M318.126 77.2574V97.3059M318.126 77.2574H338.175M318.126 97.3059V117.354M318.126 97.3059H338.175M318.126 117.354V137.403M318.126 117.354H338.175M318.126 137.403V157.452M318.126 137.403H338.175M318.126 157.452V177.5M318.126 157.452H338.175M318.126 177.5V197.549M318.126 177.5H338.175M318.126 197.549V217.597M318.126 197.549H338.175M318.126 217.597V237.646M318.126 217.597H338.175M318.126 237.646V257.694M318.126 237.646H338.175M318.126 257.694V277.743M318.126 257.694H338.175M318.126 277.743V297.791M318.126 277.743H338.175M318.126 297.791V317.84M318.126 297.791H338.175M318.126 317.84V337.888M318.126 317.84H338.175M318.126 337.888V357.937M318.126 337.888H338.175M318.126 357.937V377.986M318.126 357.937H338.175M318.126 377.986H338.175M338.175 -22.9854V-2.9368M338.175 -22.9854H358.223M338.175 -2.9368V17.1117M338.175 -2.9368H358.223M338.175 17.1117V37.1603M338.175 17.1117H358.223M338.175 37.1603V57.2088M338.175 37.1603H358.223M338.175 57.2088V77.2574M338.175 57.2088H358.223M338.175 77.2574V97.3059M338.175 77.2574H358.223M338.175 97.3059V117.354M338.175 97.3059H358.223M338.175 117.354V137.403M338.175 117.354H358.223M338.175 137.403V157.452M338.175 137.403H358.223M338.175 157.452V177.5M338.175 157.452H358.223M338.175 177.5V197.549M338.175 177.5H358.223M338.175 197.549V217.597M338.175 197.549H358.223M338.175 217.597V237.646M338.175 217.597H358.223M338.175 237.646V257.694M338.175 237.646H358.223M338.175 257.694V277.743M338.175 257.694H358.223M338.175 277.743V297.791M338.175 277.743H358.223M338.175 297.791V317.84M338.175 297.791H358.223M338.175 317.84V337.888M338.175 317.84H358.223M338.175 337.888V357.937M338.175 337.888H358.223M338.175 357.937V377.986M338.175 357.937H358.223M338.175 377.986H358.223M358.223 -22.9854V-2.9368M358.223 -22.9854H378.272M358.223 -2.9368V17.1117M358.223 -2.9368H378.272M358.223 17.1117V37.1603M358.223 17.1117H378.272M358.223 37.1603V57.2088M358.223 37.1603H378.272M358.223 57.2088V77.2574M358.223 57.2088H378.272M358.223 77.2574V97.3059M358.223 77.2574H378.272M358.223 97.3059V117.354M358.223 97.3059H378.272M358.223 117.354V137.403M358.223 117.354H378.272M358.223 137.403V157.452M358.223 137.403H378.272M358.223 157.452V177.5M358.223 157.452H378.272M358.223 177.5V197.549M358.223 177.5H378.272M358.223 197.549V217.597M358.223 197.549H378.272M358.223 217.597V237.646M358.223 217.597H378.272M358.223 237.646V257.694M358.223 237.646H378.272M358.223 257.694V277.743M358.223 257.694H378.272M358.223 277.743V297.791M358.223 277.743H378.272M358.223 297.791V317.84M358.223 297.791H378.272M358.223 317.84V337.888M358.223 317.84H378.272M358.223 337.888V357.937M358.223 337.888H378.272M358.223 357.937V377.986M358.223 357.937H378.272M358.223 377.986H378.272M378.272 -22.9854V-2.9368M378.272 -22.9854H398.321M378.272 -2.9368V17.1117M378.272 -2.9368H398.321M378.272 17.1117V37.1603M378.272 17.1117H398.321M378.272 37.1603V57.2088M378.272 37.1603H398.321M378.272 57.2088V77.2574M378.272 57.2088H398.321M378.272 77.2574V97.3059M378.272 77.2574H398.321M378.272 97.3059V117.354M378.272 97.3059H398.321M378.272 117.354V137.403M378.272 117.354H398.321M378.272 137.403V157.452M378.272 137.403H398.321M378.272 157.452V177.5M378.272 157.452H398.321M378.272 177.5V197.549M378.272 177.5H398.321M378.272 197.549V217.597M378.272 197.549H398.321M378.272 217.597V237.646M378.272 217.597H398.321M378.272 237.646V257.694M378.272 237.646H398.321M378.272 257.694V277.743M378.272 257.694H398.321M378.272 277.743V297.791M378.272 277.743H398.321M378.272 297.791V317.84M378.272 297.791H398.321M378.272 317.84V337.888M378.272 317.84H398.321M378.272 337.888V357.937M378.272 337.888H398.321M378.272 357.937V377.986M378.272 357.937H398.321M378.272 377.986H398.321M398.321 -22.9854V-2.9368M398.321 -22.9854H418.369M398.321 -2.9368V17.1117M398.321 -2.9368H418.369M398.321 17.1117V37.1603M398.321 17.1117H418.369M398.321 37.1603V57.2088M398.321 37.1603H418.369M398.321 57.2088V77.2574M398.321 57.2088H418.369M398.321 77.2574V97.3059M398.321 77.2574H418.369M398.321 97.3059V117.354M398.321 97.3059H418.369M398.321 117.354V137.403M398.321 117.354H418.369M398.321 137.403V157.452M398.321 137.403H418.369M398.321 157.452V177.5M398.321 157.452H418.369M398.321 177.5V197.549M398.321 177.5H418.369M398.321 197.549V217.597M398.321 197.549H418.369M398.321 217.597V237.646M398.321 217.597H418.369M398.321 237.646V257.694M398.321 237.646H418.369M398.321 257.694V277.743M398.321 257.694H418.369M398.321 277.743V297.791M398.321 277.743H418.369M398.321 297.791V317.84M398.321 297.791H418.369M398.321 317.84V337.888M398.321 317.84H418.369M398.321 337.888V357.937M398.321 337.888H418.369M398.321 357.937V377.986M398.321 357.937H418.369M398.321 377.986H418.369M418.369 -22.9854V-2.9368M418.369 -22.9854H438.418M418.369 -2.9368V17.1117M418.369 -2.9368H438.418M418.369 17.1117V37.1603M418.369 17.1117H438.418M418.369 37.1603V57.2088M418.369 37.1603H438.418M418.369 57.2088V77.2574M418.369 57.2088H438.418M418.369 77.2574V97.3059M418.369 77.2574H438.418M418.369 97.3059V117.354M418.369 97.3059H438.418M418.369 117.354V137.403M418.369 117.354H438.418M418.369 137.403V157.452M418.369 137.403H438.418M418.369 157.452V177.5M418.369 157.452H438.418M418.369 177.5V197.549M418.369 177.5H438.418M418.369 197.549V217.597M418.369 197.549H438.418M418.369 217.597V237.646M418.369 217.597H438.418M418.369 237.646V257.694M418.369 237.646H438.418M418.369 257.694V277.743M418.369 257.694H438.418M418.369 277.743V297.791M418.369 277.743H438.418M418.369 297.791V317.84M418.369 297.791H438.418M418.369 317.84V337.888M418.369 317.84H438.418M418.369 337.888V357.937M418.369 337.888H438.418M418.369 357.937V377.986M418.369 357.937H438.418M418.369 377.986H438.418M438.418 -22.9854V-2.9368M438.418 -22.9854H458.466M438.418 -2.9368V17.1117M438.418 -2.9368H458.466M438.418 17.1117V37.1603M438.418 17.1117H458.466M438.418 37.1603V57.2088M438.418 37.1603H458.466M438.418 57.2088V77.2574M438.418 57.2088H458.466M438.418 77.2574V97.3059M438.418 77.2574H458.466M438.418 97.3059V117.354M438.418 97.3059H458.466M438.418 117.354V137.403M438.418 117.354H458.466M438.418 137.403V157.452M438.418 137.403H458.466M438.418 157.452V177.5M438.418 157.452H458.466M438.418 177.5V197.549M438.418 177.5H458.466M438.418 197.549V217.597M438.418 197.549H458.466M438.418 217.597V237.646M438.418 217.597H458.466M438.418 237.646V257.694M438.418 237.646H458.466M438.418 257.694V277.743M438.418 257.694H458.466M438.418 277.743V297.791M438.418 277.743H458.466M438.418 297.791V317.84M438.418 297.791H458.466M438.418 317.84V337.888M438.418 317.84H458.466M438.418 337.888V357.937M438.418 337.888H458.466M438.418 357.937V377.986M438.418 357.937H458.466M438.418 377.986H458.466M458.466 -22.9854V-2.9368M458.466 -22.9854H478.515M458.466 -2.9368V17.1117M458.466 -2.9368H478.515M458.466 17.1117V37.1603M458.466 17.1117H478.515M458.466 37.1603V57.2088M458.466 37.1603H478.515M458.466 57.2088V77.2574M458.466 57.2088H478.515M458.466 77.2574V97.3059M458.466 77.2574H478.515M458.466 97.3059V117.354M458.466 97.3059H478.515M458.466 117.354V137.403M458.466 117.354H478.515M458.466 137.403V157.452M458.466 137.403H478.515M458.466 157.452V177.5M458.466 157.452H478.515M458.466 177.5V197.549M458.466 177.5H478.515M458.466 197.549V217.597M458.466 197.549H478.515M458.466 217.597V237.646M458.466 217.597H478.515M458.466 237.646V257.694M458.466 237.646H478.515M458.466 257.694V277.743M458.466 257.694H478.515M458.466 277.743V297.791M458.466 277.743H478.515M458.466 297.791V317.84M458.466 297.791H478.515M458.466 317.84V337.888M458.466 317.84H478.515M458.466 337.888V357.937M458.466 337.888H478.515M458.466 357.937V377.986M458.466 357.937H478.515M458.466 377.986H478.515M478.515 -22.9854V-2.9368M478.515 -22.9854H498.563M478.515 -2.9368V17.1117M478.515 -2.9368H498.563M478.515 17.1117V37.1603M478.515 17.1117H498.563M478.515 37.1603V57.2088M478.515 37.1603H498.563M478.515 57.2088V77.2574M478.515 57.2088H498.563M478.515 77.2574V97.3059M478.515 77.2574H498.563M478.515 97.3059V117.354M478.515 97.3059H498.563M478.515 117.354V137.403M478.515 117.354H498.563M478.515 137.403V157.452M478.515 137.403H498.563M478.515 157.452V177.5M478.515 157.452H498.563M478.515 177.5V197.549M478.515 177.5H498.563M478.515 197.549V217.597M478.515 197.549H498.563M478.515 217.597V237.646M478.515 217.597H498.563M478.515 237.646V257.694M478.515 237.646H498.563M478.515 257.694V277.743M478.515 257.694H498.563M478.515 277.743V297.791M478.515 277.743H498.563M478.515 297.791V317.84M478.515 297.791H498.563M478.515 317.84V337.888M478.515 317.84H498.563M478.515 337.888V357.937M478.515 337.888H498.563M478.515 357.937V377.986M478.515 357.937H498.563M478.515 377.986H498.563M498.563 -22.9854V-2.9368M498.563 -22.9854H518.612M498.563 -2.9368V17.1117M498.563 -2.9368H518.612M498.563 17.1117V37.1603M498.563 17.1117H518.612M498.563 37.1603V57.2088M498.563 37.1603H518.612M498.563 57.2088V77.2574M498.563 57.2088H518.612M498.563 77.2574V97.3059M498.563 77.2574H518.612M498.563 97.3059V117.354M498.563 97.3059H518.612M498.563 117.354V137.403M498.563 117.354H518.612M498.563 137.403V157.452M498.563 137.403H518.612M498.563 157.452V177.5M498.563 157.452H518.612M498.563 177.5V197.549M498.563 177.5H518.612M498.563 197.549V217.597M498.563 197.549H518.612M498.563 217.597V237.646M498.563 217.597H518.612M498.563 237.646V257.694M498.563 237.646H518.612M498.563 257.694V277.743M498.563 257.694H518.612M498.563 277.743V297.791M498.563 277.743H518.612M498.563 297.791V317.84M498.563 297.791H518.612M498.563 317.84V337.888M498.563 317.84H518.612M498.563 337.888V357.937M498.563 337.888H518.612M498.563 357.937V377.986M498.563 357.937H518.612M498.563 377.986H518.612M518.612 -22.9854V-2.9368M518.612 -22.9854H538.66M518.612 -2.9368V17.1117M518.612 -2.9368H538.66M518.612 17.1117V37.1603M518.612 17.1117H538.66M518.612 37.1603V57.2088M518.612 37.1603H538.66M518.612 57.2088V77.2574M518.612 57.2088H538.66M518.612 77.2574V97.3059M518.612 77.2574H538.66M518.612 97.3059V117.354M518.612 97.3059H538.66M518.612 117.354V137.403M518.612 117.354H538.66M518.612 137.403V157.452M518.612 137.403H538.66M518.612 157.452V177.5M518.612 157.452H538.66M518.612 177.5V197.549M518.612 177.5H538.66M518.612 197.549V217.597M518.612 197.549H538.66M518.612 217.597V237.646M518.612 217.597H538.66M518.612 237.646V257.694M518.612 237.646H538.66M518.612 257.694V277.743M518.612 257.694H538.66M518.612 277.743V297.791M518.612 277.743H538.66M518.612 297.791V317.84M518.612 297.791H538.66M518.612 317.84V337.888M518.612 317.84H538.66M518.612 337.888V357.937M518.612 337.888H538.66M518.612 357.937V377.986M518.612 357.937H538.66M518.612 377.986H538.66M538.66 -22.9854V-2.9368M538.66 -22.9854H558.709M538.66 -2.9368V17.1117M538.66 -2.9368H558.709M538.66 17.1117V37.1603M538.66 17.1117H558.709M538.66 37.1603V57.2088M538.66 37.1603H558.709M538.66 57.2088V77.2574M538.66 57.2088H558.709M538.66 77.2574V97.3059M538.66 77.2574H558.709M538.66 97.3059V117.354M538.66 97.3059H558.709M538.66 117.354V137.403M538.66 117.354H558.709M538.66 137.403V157.452M538.66 137.403H558.709M538.66 157.452V177.5M538.66 157.452H558.709M538.66 177.5V197.549M538.66 177.5H558.709M538.66 197.549V217.597M538.66 197.549H558.709M538.66 217.597V237.646M538.66 217.597H558.709M538.66 237.646V257.694M538.66 237.646H558.709M538.66 257.694V277.743M538.66 257.694H558.709M538.66 277.743V297.791M538.66 277.743H558.709M538.66 297.791V317.84M538.66 297.791H558.709M538.66 317.84V337.888M538.66 317.84H558.709M538.66 337.888V357.937M538.66 337.888H558.709M538.66 357.937V377.986M538.66 357.937H558.709M538.66 377.986H558.709M558.709 -22.9854V-2.9368M558.709 -22.9854H578.757M558.709 -2.9368V17.1117M558.709 -2.9368H578.757M558.709 17.1117V37.1603M558.709 17.1117H578.757M558.709 37.1603V57.2088M558.709 37.1603H578.757M558.709 57.2088V77.2574M558.709 57.2088H578.757M558.709 77.2574V97.3059M558.709 77.2574H578.757M558.709 97.3059V117.354M558.709 97.3059H578.757M558.709 117.354V137.403M558.709 117.354H578.757M558.709 137.403V157.452M558.709 137.403H578.757M558.709 157.452V177.5M558.709 157.452H578.757M558.709 177.5V197.549M558.709 177.5H578.757M558.709 197.549V217.597M558.709 197.549H578.757M558.709 217.597V237.646M558.709 217.597H578.757M558.709 237.646V257.694M558.709 237.646H578.757M558.709 257.694V277.743M558.709 257.694H578.757M558.709 277.743V297.791M558.709 277.743H578.757M558.709 297.791V317.84M558.709 297.791H578.757M558.709 317.84V337.888M558.709 317.84H578.757M558.709 337.888V357.937M558.709 337.888H578.757M558.709 357.937V377.986M558.709 357.937H578.757M558.709 377.986H578.757M578.757 -22.9854V-2.9368M578.757 -22.9854H598.806V-2.9368M578.757 -2.9368V17.1117M578.757 -2.9368H598.806M578.757 17.1117V37.1603M578.757 17.1117H598.806M578.757 37.1603V57.2088M578.757 37.1603H598.806M578.757 57.2088V77.2574M578.757 57.2088H598.806M578.757 77.2574V97.3059M578.757 77.2574H598.806M578.757 97.3059V117.354M578.757 97.3059H598.806M578.757 117.354V137.403M578.757 117.354H598.806M578.757 137.403V157.452M578.757 137.403H598.806M578.757 157.452V177.5M578.757 157.452H598.806M578.757 177.5V197.549M578.757 177.5H598.806M578.757 197.549V217.597M578.757 197.549H598.806M578.757 217.597V237.646M578.757 217.597H598.806M578.757 237.646V257.694M578.757 237.646H598.806M578.757 257.694V277.743M578.757 257.694H598.806M578.757 277.743V297.791M578.757 277.743H598.806M578.757 297.791V317.84M578.757 297.791H598.806M578.757 317.84V337.888M578.757 317.84H598.806M578.757 337.888V357.937M578.757 337.888H598.806M578.757 357.937V377.986M578.757 357.937H598.806M578.757 377.986H598.806V357.937M598.806 -2.9368V17.1117M598.806 17.1117V37.1603M598.806 37.1603V57.2088M598.806 57.2088V77.2574M598.806 77.2574V97.3059M598.806 97.3059V117.354M598.806 117.354V137.403M598.806 137.403V157.452M598.806 157.452V177.5M598.806 177.5V197.549M598.806 197.549V217.597M598.806 217.597V237.646M598.806 237.646V257.694M598.806 257.694V277.743M598.806 277.743V297.791M598.806 297.791V317.84M598.806 317.84V337.888M598.806 337.888V357.937" stroke="url(#paint0_radial_25455_632)" stroke-opacity="0.6" stroke-width="0.250607"/>
</g>
<g opacity="0.8" style="mix-blend-mode:soft-light">
<path d="M-203.137 51.1941V57.2087M-203.137 57.2087V63.2233M-203.137 57.2087H-209.151M-203.137 57.2087H-197.122M-203.137 211.583V217.597M-203.137 217.597V223.612M-203.137 217.597H-209.151M-203.137 217.597H-197.122M-203.137 371.971V377.985M-203.137 377.985V384M-203.137 377.985H-209.151M-203.137 377.985H-197.122M-42.7485 51.1941V57.2087M-42.7485 57.2087V63.2233M-42.7485 57.2087H-48.7631M-42.7485 57.2087H-36.734M-42.7485 211.583V217.597M-42.7485 217.597V223.612M-42.7485 217.597H-48.7631M-42.7485 217.597H-36.734M-42.7485 371.971V377.985M-42.7485 377.985V384M-42.7485 377.985H-48.7631M-42.7485 377.985H-36.734M117.64 51.1941V57.2087M117.64 57.2087V63.2233M117.64 57.2087H111.625M117.64 57.2087H123.654M117.64 211.583V217.597M117.64 217.597V223.612M117.64 217.597H111.625M117.64 217.597H123.654M117.64 371.971V377.985M117.64 377.985V384M117.64 377.985H111.625M117.64 377.985H123.654M278.028 51.1941V57.2087M278.028 57.2087V63.2233M278.028 57.2087H272.014M278.028 57.2087H284.043M278.028 211.583V217.597M278.028 217.597V223.612M278.028 217.597H272.014M278.028 217.597H284.043M278.028 371.971V377.985M278.028 377.985V384M278.028 377.985H272.014M278.028 377.985H284.043M438.417 51.1941V57.2087M438.417 57.2087V63.2233M438.417 57.2087H432.402M438.417 57.2087H444.431M438.417 211.583V217.597M438.417 217.597V223.612M438.417 217.597H432.402M438.417 217.597H444.431M438.417 371.971V377.985M438.417 377.985V384M438.417 377.985H432.402M438.417 377.985H444.431M598.805 51.1941V57.2087M598.805 57.2087V63.2233M598.805 57.2087H592.79M598.805 57.2087H604.82M598.805 211.583V217.597M598.805 217.597V223.612M598.805 217.597H592.79M598.805 217.597H604.82M598.805 371.971V377.985M598.805 377.985V384M598.805 377.985H592.79M598.805 377.985H604.82M-203.137 -29V-22.9854M-203.137 -22.9854V-16.9709M-203.137 -22.9854H-209.151M-203.137 -22.9854H-197.122M-203.137 131.388V137.403M-203.137 137.403V143.418M-203.137 137.403H-209.151M-203.137 137.403H-197.122M-203.137 291.777V297.791M-203.137 297.791V303.806M-203.137 297.791H-209.151M-203.137 297.791H-197.122M-42.7485 -29V-22.9854M-42.7485 -22.9854V-16.9709M-42.7485 -22.9854H-48.7631M-42.7485 -22.9854H-36.734M-42.7485 131.388V137.403M-42.7485 137.403V143.418M-42.7485 137.403H-48.7631M-42.7485 137.403H-36.734M-42.7485 291.777V297.791M-42.7485 297.791V303.806M-42.7485 297.791H-48.7631M-42.7485 297.791H-36.734M117.64 -29V-22.9854M117.64 -22.9854V-16.9709M117.64 -22.9854H111.625M117.64 -22.9854H123.654M117.64 131.388V137.403M117.64 137.403V143.418M117.64 137.403H111.625M117.64 137.403H123.654M117.64 291.777V297.791M117.64 297.791V303.806M117.64 297.791H111.625M117.64 297.791H123.654M278.028 -29V-22.9854M278.028 -22.9854V-16.9709M278.028 -22.9854H272.014M278.028 -22.9854H284.043M278.028 131.388V137.403M278.028 137.403V143.418M278.028 137.403H272.014M278.028 137.403H284.043M278.028 291.777V297.791M278.028 297.791V303.806M278.028 297.791H272.014M278.028 297.791H284.043M438.417 -29V-22.9854M438.417 -22.9854V-16.9709M438.417 -22.9854H432.402M438.417 -22.9854H444.431M438.417 131.388V137.403M438.417 137.403V143.418M438.417 137.403H432.402M438.417 137.403H444.431M438.417 291.777V297.791M438.417 297.791V303.806M438.417 297.791H432.402M438.417 297.791H444.431M598.805 -29V-22.9854M598.805 -22.9854V-16.9709M598.805 -22.9854H592.79M598.805 -22.9854H604.82M598.805 131.388V137.403M598.805 137.403V143.418M598.805 137.403H592.79M598.805 137.403H604.82M598.805 291.777V297.791M598.805 297.791V303.806M598.805 297.791H592.79M598.805 297.791H604.82M-283.331 51.1941V57.2087M-283.331 57.2087V63.2233M-283.331 57.2087H-289.346M-283.331 57.2087H-277.317M-283.331 211.583V217.597M-283.331 217.597V223.612M-283.331 217.597H-289.346M-283.331 217.597H-277.317M-283.331 371.971V377.985M-283.331 377.985V384M-283.331 377.985H-289.346M-283.331 377.985H-277.317M-122.943 51.1941V57.2087M-122.943 57.2087V63.2233M-122.943 57.2087H-128.957M-122.943 57.2087H-116.928M-122.943 211.583V217.597M-122.943 217.597V223.612M-122.943 217.597H-128.957M-122.943 217.597H-116.928M-122.943 371.971V377.985M-122.943 377.985V384M-122.943 377.985H-128.957M-122.943 377.985H-116.928M37.4457 51.1941V57.2087M37.4457 57.2087V63.2233M37.4457 57.2087H31.4311M37.4457 57.2087H43.4602M37.4457 211.583V217.597M37.4457 217.597V223.612M37.4457 217.597H31.4311M37.4457 217.597H43.4602M37.4457 371.971V377.985M37.4457 377.985V384M37.4457 377.985H31.4311M37.4457 377.985H43.4602M197.834 51.1941V57.2087M197.834 57.2087V63.2233M197.834 57.2087H191.819M197.834 57.2087H203.849M197.834 211.583V217.597M197.834 217.597V223.612M197.834 217.597H191.819M197.834 217.597H203.849M197.834 371.971V377.985M197.834 377.985V384M197.834 377.985H191.819M197.834 377.985H203.849M358.222 51.1941V57.2087M358.222 57.2087V63.2233M358.222 57.2087H352.208M358.222 57.2087H364.237M358.222 211.583V217.597M358.222 217.597V223.612M358.222 217.597H352.208M358.222 217.597H364.237M358.222 371.971V377.985M358.222 377.985V384M358.222 377.985H352.208M358.222 377.985H364.237M518.611 51.1941V57.2087M518.611 57.2087V63.2233M518.611 57.2087H512.596M518.611 57.2087H524.625M518.611 211.583V217.597M518.611 217.597V223.612M518.611 217.597H512.596M518.611 217.597H524.625M518.611 371.971V377.985M518.611 377.985V384M518.611 377.985H512.596M518.611 377.985H524.625M-283.331 -29V-22.9854M-283.331 -22.9854V-16.9708M-283.331 -22.9854H-289.346M-283.331 -22.9854H-277.317M-283.331 131.388V137.403M-283.331 137.403V143.418M-283.331 137.403H-289.346M-283.331 137.403H-277.317M-283.331 291.777V297.791M-283.331 297.791V303.806M-283.331 297.791H-289.346M-283.331 297.791H-277.317M-122.943 -29V-22.9854M-122.943 -22.9854V-16.9709M-122.943 -22.9854H-128.957M-122.943 -22.9854H-116.928M-122.943 131.388V137.403M-122.943 137.403V143.418M-122.943 137.403H-128.957M-122.943 137.403H-116.928M-122.943 291.777V297.791M-122.943 297.791V303.806M-122.943 297.791H-128.957M-122.943 297.791H-116.928M37.4457 -29V-22.9854M37.4457 -22.9854V-16.9709M37.4457 -22.9854H31.4311M37.4457 -22.9854H43.4602M37.4457 131.388V137.403M37.4457 137.403V143.418M37.4457 137.403H31.4311M37.4457 137.403H43.4602M37.4457 291.777V297.791M37.4457 297.791V303.806M37.4457 297.791H31.4311M37.4457 297.791H43.4602M197.834 -29V-22.9854M197.834 -22.9854V-16.9709M197.834 -22.9854H191.819M197.834 -22.9854H203.849M197.834 131.388V137.403M197.834 137.403V143.418M197.834 137.403H191.819M197.834 137.403H203.849M197.834 291.777V297.791M197.834 297.791V303.806M197.834 297.791H191.819M197.834 297.791H203.849M358.222 -29V-22.9854M358.222 -22.9854V-16.9709M358.222 -22.9854H352.208M358.222 -22.9854H364.237M358.222 131.388V137.403M358.222 137.403V143.418M358.222 137.403H352.208M358.222 137.403H364.237M358.222 291.777V297.791M358.222 297.791V303.806M358.222 297.791H352.208M358.222 297.791H364.237M518.611 -29V-22.9854M518.611 -22.9854V-16.9709M518.611 -22.9854H512.596M518.611 -22.9854H524.625M518.611 131.388V137.403M518.611 137.403V143.418M518.611 137.403H512.596M518.611 137.403H524.625M518.611 291.777V297.791M518.611 297.791V303.806M518.611 297.791H512.596M518.611 297.791H524.625" stroke="url(#paint1_radial_25455_632)" stroke-opacity="0.6" stroke-width="0.501214"/>
</g>
<defs>
<radialGradient id="paint0_radial_25455_632" cx="0" cy="0" r="1" gradientUnits="userSpaceOnUse" gradientTransform="translate(157.738 177.5) rotate(90) scale(200.485 441.068)">
<stop stop-color="white"/>
<stop offset="1" stop-color="white" stop-opacity="0"/>
</radialGradient>
<radialGradient id="paint1_radial_25455_632" cx="0" cy="0" r="1" gradientUnits="userSpaceOnUse" gradientTransform="translate(157.737 177.5) rotate(90) scale(206.5 447.083)">
<stop stop-color="white"/>
<stop offset="1" stop-color="white" stop-opacity="0"/>
</radialGradient>
</defs>
</svg>
