<svg width="237" height="48" viewBox="0 0 237 48" fill="none" xmlns="http://www.w3.org/2000/svg">
<path d="M177.315 13.9296H175.709V15.5358C175.709 15.9488 175.893 16.4535 176.719 16.4535H178.325V14.8474C178.325 14.4803 178.187 13.9296 177.315 13.9296Z" fill="#356AE6"/>
<path d="M177.178 19.1151H175.893V32.3771C175.893 32.9278 176.26 33.2949 176.765 33.3408V33.3866H178.233V20.0788C178.187 19.4822 177.866 19.1151 177.178 19.1151Z" fill="#356AE6"/>
<path d="M99.4417 29.486C98.891 28.9354 98.2027 29.073 97.7897 29.4402C96.0918 30.8627 94.5315 31.4134 92.5124 31.4134C88.4742 31.4134 85.2619 28.0176 85.2619 23.6581C85.2619 19.2987 88.3824 15.9488 92.5124 15.9488C94.4857 15.9488 96.1377 16.5453 97.6979 17.8761C98.065 18.1973 98.7075 18.335 99.1664 17.8302C99.5794 17.4172 99.9923 16.9583 99.9923 16.9583L100.084 16.8665L99.9923 16.7748C98.3403 15.1686 96.2753 13.7002 92.5124 13.7002C87.0516 13.7002 82.8298 18.1055 82.8298 23.704C82.8298 29.3484 86.9598 33.6161 92.4665 33.6161C95.5411 33.6161 97.7897 32.6065 100.084 30.2203L100.13 30.1285L100.084 30.0367C100.084 30.1285 99.9465 29.9449 99.4417 29.486Z" fill="#356AE6"/>
<path d="M134.317 18.7939C132.298 18.7939 130.692 19.6658 129.453 21.4096C128.902 20.3082 127.618 18.7021 124.956 18.7021C122.662 18.7021 121.423 19.8952 120.505 21.0884V20.0788C120.505 19.3905 120.092 18.9775 119.449 18.9775H118.164V33.249H119.449C120.092 33.249 120.459 33.0654 120.459 32.2853V25.1725C120.459 22.6945 122.065 20.8589 124.222 20.8589C126.424 20.8589 127.709 22.3732 127.709 24.943V32.2853C127.709 32.9736 128.076 33.2949 128.719 33.2949H130.004V25.1266C130.004 22.1897 131.885 20.9048 133.767 20.9048C136.015 20.9048 137.3 22.4191 137.3 24.9889V32.1476C137.3 32.7442 137.438 33.2949 138.356 33.2949H139.595V24.53C139.641 20.9966 137.621 18.7939 134.317 18.7939Z" fill="#356AE6"/>
<path d="M150.883 18.8398C148.772 18.8398 147.029 19.7575 145.606 21.7308V20.2623C145.606 19.5281 145.193 19.161 144.459 19.161H143.312V36.6906C143.312 37.379 143.633 37.7002 144.321 37.7002H145.606V30.9086C147.029 32.7441 148.726 33.6619 150.883 33.6619C154.187 33.6619 157.675 31.0463 157.675 26.2279C157.675 21.4095 154.187 18.8398 150.883 18.8398ZM155.289 26.2279C155.289 29.3484 153.315 31.5051 150.47 31.5051C148.038 31.5051 145.514 29.486 145.514 26.182C145.514 22.878 148.038 20.8589 150.47 20.8589C152.856 20.9048 155.289 22.7403 155.289 26.2279Z" fill="#356AE6"/>
<path d="M193.331 20.1247V21.3178C192.367 20.0788 190.669 18.7021 187.962 18.7021C186.264 18.7021 184.566 19.3446 183.327 20.4918C181.996 21.7308 181.262 23.5205 181.262 25.4478C181.262 29.8073 184.704 32.1476 187.962 32.1476C190.073 32.1476 191.862 31.2757 193.377 29.4402V30.8168C193.377 33.9373 191.541 35.727 188.421 35.727C186.906 35.727 185.438 35.3599 184.061 34.5797C183.694 34.3503 183.419 34.2585 183.189 34.2585C182.914 34.2585 182.639 34.3962 182.455 34.7174C182.088 35.314 181.95 35.5893 181.95 35.5893L181.904 35.6811L181.996 35.727C183.878 37.0578 186.034 37.7002 188.421 37.7002C193.01 37.7002 195.671 35.1763 195.671 30.771V19.0692H194.386C193.973 19.0692 193.331 19.4363 193.331 20.1247ZM193.468 25.5855C193.468 28.5224 190.899 30.2662 188.421 30.2662C185.713 30.2662 183.694 28.2471 183.694 25.5855C183.694 22.878 185.713 20.9507 188.421 20.9507C190.853 20.9048 193.468 22.5109 193.468 25.5855Z" fill="#356AE6"/>
<path d="M206.501 18.8398C204.482 18.8398 202.922 19.6658 201.82 21.3178V20.1246C201.82 19.4363 201.27 19.161 200.719 19.161H199.434V33.4325H201.774L201.729 25.2642C201.729 22.7403 203.426 20.9965 205.859 20.9965C208.245 20.9965 209.621 22.5109 209.621 25.1266V32.4688C209.621 33.1572 209.943 33.4325 210.539 33.4325H211.916V24.53C211.962 21.0424 209.851 18.8398 206.501 18.8398Z" fill="#356AE6"/>
<path d="M166.302 18.8857C164.513 18.8857 162.906 19.2528 161.163 20.0329L161.071 20.0788L161.117 20.1706C161.117 20.1706 161.346 20.813 161.53 21.2719C161.713 21.7308 162.264 21.7767 162.677 21.5931C163.87 21.1343 164.926 20.9048 166.119 20.9048C168.734 20.9048 170.157 22.2356 170.157 24.6218V28.0635C170.157 30.2203 168.23 31.7346 165.568 31.7346C163.916 31.7346 162.126 30.9086 162.126 29.0731C162.126 27.3293 163.549 26.3656 166.119 26.3656H167.266C167.954 26.3656 168.275 26.0444 168.275 25.4019V24.6218H165.889C161.989 24.6218 159.786 26.2738 159.786 29.119C159.786 31.2757 161.438 33.662 165.155 33.662C167.174 33.662 168.872 32.8819 170.111 31.4134V32.3771C170.111 33.0195 170.432 33.2949 171.121 33.2949H172.405V24.5759C172.36 20.9507 170.203 18.8857 166.302 18.8857Z" fill="#356AE6"/>
<path d="M108.528 18.8857C106.325 18.8857 104.765 19.4364 103.388 20.0329L103.296 20.1247L103.342 20.2165C103.342 20.2165 103.572 20.8589 103.755 21.3178C103.939 21.7767 104.489 21.8226 104.902 21.639C106.096 21.1801 107.151 20.9507 108.344 20.9507C110.96 20.9507 112.428 22.2815 112.428 24.6677V28.0635C112.428 30.2203 110.501 31.7346 107.839 31.7346C106.187 31.7346 104.444 30.9086 104.444 29.0731C104.444 27.3293 105.866 26.3656 108.39 26.3656H109.537C110.226 26.3656 110.547 26.0444 110.547 25.4019V24.6218H108.206C104.306 24.6218 102.057 26.2738 102.057 29.119C102.057 31.2757 103.709 33.662 107.38 33.662C109.4 33.662 111.097 32.8819 112.382 31.4134V32.3771C112.382 33.0195 112.704 33.2949 113.346 33.2949H114.631V24.5759C114.585 20.9507 112.428 18.8857 108.528 18.8857Z" fill="#356AE6"/>
<path d="M235.549 24.2088C235.228 23.9335 222.149 14.8016 221.553 14.4344L221.369 14.2968V16.5453C221.369 17.2796 221.736 17.509 222.195 17.8761L222.287 17.922C222.929 18.3809 232.245 24.8513 233.484 25.7232C232.245 26.5951 222.792 33.1572 222.195 33.5243C221.461 33.9832 221.415 34.3044 221.415 34.9469V37.1037C221.415 37.1037 235.319 27.4211 235.595 27.1916C236.237 26.7327 236.375 26.1362 236.375 25.7691V25.4937C236.375 25.0348 236.099 24.5759 235.549 24.2088Z" fill="#356AE6"/>
<path d="M227.381 26.7327C227.748 26.7327 228.115 26.595 228.482 26.3197C228.941 25.9985 229.354 25.7231 229.354 25.7231L229.492 25.6313L229.354 25.5396C229.308 25.4937 223.205 21.2719 222.562 20.8589C222.287 20.6294 221.92 20.5835 221.69 20.7212C221.461 20.8589 221.277 21.0883 221.277 21.4554V22.878L221.323 22.9239C221.369 22.9698 225.545 25.8608 226.371 26.4115C226.738 26.6409 227.059 26.7327 227.381 26.7327Z" fill="#356AE6"/>
<path d="M32.7647 30.0826C32.26 29.5778 31.6175 29.899 31.3422 30.1285C30.2867 31.0922 29.0936 31.5511 27.8087 31.5511C25.0095 31.5511 22.8068 29.2107 22.8068 26.182C22.8068 23.1992 24.9636 20.8589 27.671 20.8589C29.2313 20.8589 30.2408 21.5472 31.0668 22.1897C31.6634 22.6945 32.1682 22.7403 32.5812 22.2815C32.9483 21.9143 33.3613 21.4555 33.3613 21.4555L33.4531 21.3637L33.3613 21.2719C31.7552 19.5281 29.9655 18.748 27.671 18.748C23.5869 18.748 20.3288 22.0061 20.3288 26.182C20.3288 30.2662 23.6328 33.6161 27.671 33.6161C30.6538 33.6161 32.3517 32.1017 33.4531 30.8168H33.5448L33.4531 30.7251C33.4531 30.7251 33.2236 30.5415 32.7647 30.0826Z" fill="#356AE6"/>
<path d="M48 13.9296H46.3939V15.5358C46.3939 15.9488 46.5775 16.4535 47.4035 16.4535H49.0096V15.031C49.0555 14.3885 48.6425 13.9296 48 13.9296Z" fill="#356AE6"/>
<path d="M47.8164 19.1151H46.4856V32.3771C46.4856 32.9278 46.8527 33.2949 47.3575 33.3408V33.3866H48.8259V20.0788C48.8718 19.4822 48.5047 19.1151 47.8164 19.1151Z" fill="#356AE6"/>
<path d="M62.9139 19.8952C62.7303 20.4 59.2427 28.8436 58.5544 30.4038C57.912 28.7977 54.4244 20.3541 54.2408 19.8952C54.0114 19.3445 53.5525 19.0233 52.9559 19.0233H51.3039L51.3957 19.161C51.4416 19.3445 56.9942 32.1476 57.2236 32.6524C57.4531 33.2489 57.8202 33.3866 58.4167 33.3866H58.6921C59.2427 33.3866 59.6099 33.1572 59.8393 32.6524C60.0687 32.1476 65.6213 19.4363 65.6672 19.2987L65.759 19.1151H64.1529C63.5563 19.1151 63.1433 19.3445 62.9139 19.8952Z" fill="#356AE6"/>
<path d="M77.2773 25.4019H71.8165C71.2199 25.4019 70.8528 25.769 70.8528 26.3656V27.2834H70.9905C73.6062 27.2375 76.6348 27.2375 77.8738 27.2375C78.6081 27.2375 79.1587 27.0539 79.5717 26.6409C79.9389 26.2279 80.1224 25.5855 80.0765 24.8512C79.6635 21.1801 77.0478 18.7939 73.4685 18.7939C69.5679 18.7939 66.5851 22.0061 66.5851 26.2279C66.5851 30.4956 69.6597 33.6619 73.7438 33.6619C76.1301 33.6619 77.9197 32.8359 79.6176 31.0004L79.7094 30.9086L79.6176 30.8168C79.6176 30.8168 79.2964 30.5415 78.9293 30.2203C78.3786 29.7614 77.8738 29.9449 77.5985 30.2203C76.589 31.138 75.35 31.5969 73.8356 31.5969C71.2199 31.5969 69.2926 29.7155 68.9714 26.9162C68.9714 26.9162 68.9255 26.595 68.9255 26.182C68.9255 25.7231 68.9714 25.4019 68.9714 25.4019C69.2467 22.6486 71.0823 20.7212 73.4226 20.7212C75.7629 20.7212 77.4608 22.2814 77.6903 24.6677C77.7362 24.8971 77.6903 25.0807 77.6444 25.1725C77.5067 25.356 77.415 25.4019 77.2773 25.4019Z" fill="#356AE6"/>
<path d="M11.2887 14.6639C11.0134 14.1132 10.6922 13.9296 10.0956 13.9296H9.54493C9.08604 13.9296 8.67304 14.205 8.4436 14.618C8.26004 15.031 0.183555 33.0195 0.0917768 33.2031L0 33.3866H1.51434C2.15679 33.3866 2.56979 33.1113 2.89101 32.4688C3.16635 31.9182 4.49713 28.8895 4.72658 28.3847H10.6463C11.3805 28.3847 11.8394 27.9258 11.8394 27.2375V26.2279H5.64436L9.82027 16.8665C10.6922 18.7939 16.5201 32.1017 16.7954 32.6524C17.1625 33.3866 18.0344 33.3866 18.3098 33.3866H19.6864L19.5946 33.2031C19.5946 33.0195 11.5641 15.2604 11.2887 14.6639Z" fill="#356AE6"/>
<path d="M43.0899 31.3216C42.8605 31.1839 42.5392 31.138 42.218 31.2298C41.7132 31.3675 41.3461 31.4593 40.8872 31.4593C39.4188 31.4593 38.6387 30.725 38.6387 29.2107V21.1801H43.0899V20.2164C43.0899 19.4822 42.4475 19.1151 41.8968 19.1151H38.5928V15.0769C38.5928 14.4344 38.1339 13.9755 37.4456 13.9755H36.2983V29.5319C36.2983 32.1476 37.7209 33.6161 40.3825 33.6161C41.392 33.6161 42.5392 33.3866 43.2735 33.0195L43.3194 32.9736V32.9277C43.3194 32.9277 43.3652 32.5147 43.3652 32.0099C43.4111 31.6428 43.2276 31.4593 43.0899 31.3216Z" fill="#356AE6"/>
</svg>
