<svg width="168" height="48" viewBox="0 0 168 48" fill="none" xmlns="http://www.w3.org/2000/svg">
<path d="M144.458 22.585C146.578 22.585 147.396 23.8826 147.51 25.0124C147.511 25.0295 147.51 25.0466 147.504 25.0629C147.499 25.0791 147.49 25.094 147.478 25.1067C147.467 25.1193 147.453 25.1294 147.437 25.1363C147.421 25.1431 147.404 25.1466 147.387 25.1466H141.564C141.546 25.1466 141.529 25.1429 141.513 25.1357C141.497 25.1285 141.483 25.1181 141.472 25.105C141.46 25.092 141.451 25.0766 141.446 25.06C141.441 25.0434 141.44 25.0258 141.442 25.0086C141.599 23.9046 142.577 22.585 144.458 22.585ZM147.65 29.7685C147.611 29.7683 147.573 29.7773 147.538 29.7948C147.504 29.8123 147.474 29.8377 147.451 29.8691C146.926 30.6089 146.071 31.065 144.795 31.065C143.037 31.065 141.51 29.9093 141.345 28.2716C141.344 28.2546 141.345 28.2375 141.351 28.2213C141.356 28.2052 141.365 28.1903 141.376 28.1777C141.388 28.165 141.402 28.1549 141.417 28.148C141.433 28.1411 141.45 28.1375 141.467 28.1374H151.931C151.96 28.0454 152.022 27.344 152.022 26.7028C152.022 21.8232 149.112 18.9253 144.396 18.9253C140.446 18.9253 136.802 22.0359 136.802 26.9165C136.802 32.0109 140.538 34.9998 144.734 34.9998C148.526 34.9998 150.928 32.8781 151.707 30.3137C151.712 30.2984 151.738 30.2026 151.767 30.0627C151.774 30.0271 151.773 29.9903 151.765 29.955C151.756 29.9196 151.74 29.8867 151.717 29.8585C151.694 29.8303 151.665 29.8076 151.632 29.792C151.599 29.7765 151.563 29.7684 151.527 29.7685H147.65ZM156.902 26.8389L151.941 19.7667C151.915 19.73 151.9 19.6869 151.898 19.6423C151.895 19.5976 151.904 19.553 151.925 19.5134C151.946 19.4737 151.977 19.4405 152.015 19.4174C152.054 19.3943 152.098 19.3822 152.142 19.3824H157.02C157.103 19.3824 157.18 19.4236 157.226 19.4926L159.775 23.3737C159.823 23.4475 159.932 23.4465 159.98 23.3718L162.471 19.4955C162.493 19.4608 162.523 19.4323 162.559 19.4125C162.595 19.3928 162.636 19.3824 162.677 19.3824H167.275C167.474 19.3824 167.59 19.6057 167.476 19.7676L162.581 26.654C162.552 26.6949 162.536 26.7439 162.536 26.7942C162.536 26.8445 162.551 26.8936 162.58 26.9348C164.182 29.2155 166.014 31.8508 167.657 34.1575C167.772 34.3194 167.657 34.5418 167.458 34.5418H162.614C162.573 34.5419 162.533 34.532 162.497 34.5129C162.462 34.4939 162.431 34.4662 162.409 34.4325L159.766 30.4249C159.754 30.4081 159.739 30.3943 159.721 30.3848C159.704 30.3753 159.684 30.3703 159.664 30.3703C159.643 30.3703 159.623 30.3753 159.606 30.3848C159.588 30.3943 159.573 30.4081 159.561 30.4249C158.77 31.6017 157.735 33.2404 156.95 34.4325C156.928 34.4663 156.897 34.494 156.861 34.5131C156.826 34.5321 156.786 34.542 156.745 34.5418H152.23C152.185 34.542 152.141 34.53 152.103 34.5071C152.065 34.4842 152.033 34.4512 152.013 34.4117C151.992 34.3723 151.982 34.3279 151.985 34.2834C151.988 34.2389 152.003 34.196 152.028 34.1594L156.903 27.1168C156.932 27.076 156.947 27.0276 156.947 26.9779C156.947 26.9282 156.932 26.8797 156.903 26.8389H156.902ZM130.616 34.2983V12.703C130.616 12.5679 130.726 12.4587 130.861 12.4587H135.026C135.161 12.4587 135.271 12.5679 135.271 12.703V34.2983C135.271 34.4325 135.161 34.5418 135.026 34.5418H130.861C130.829 34.5419 130.797 34.5357 130.768 34.5235C130.738 34.5114 130.711 34.4935 130.688 34.4709C130.665 34.4483 130.647 34.4214 130.635 34.3918C130.623 34.3622 130.616 34.3304 130.616 34.2983ZM123.756 34.2983V12.703C123.756 12.5679 123.867 12.4587 124.002 12.4587H128.167C128.302 12.4587 128.411 12.5679 128.411 12.703V34.2983C128.411 34.4325 128.302 34.5418 128.167 34.5418H124.002C123.97 34.5419 123.938 34.5357 123.908 34.5235C123.879 34.5114 123.852 34.4935 123.829 34.4709C123.806 34.4483 123.788 34.4214 123.775 34.3918C123.763 34.3622 123.757 34.3304 123.756 34.2983ZM113.457 30.973C115.325 30.973 116.917 29.5097 116.917 26.9472C116.917 24.3243 115.355 22.9511 113.457 22.9511C111.466 22.9511 109.966 24.3243 109.966 26.9472C109.966 29.4484 111.528 30.974 113.457 30.974V30.973ZM116.948 32.5897C116.274 34.054 114.744 34.9692 112.844 34.9692C108.373 34.9692 105.28 31.5835 105.28 26.9165C105.28 22.4029 108.19 18.9243 112.691 18.9243C115.416 18.9243 116.61 20.4193 116.917 21.1207V19.6258C116.917 19.4916 117.026 19.3824 117.162 19.3824H121.174C121.308 19.3824 121.418 19.4916 121.418 19.6267V34.2983C121.418 34.4325 121.309 34.5418 121.174 34.5418H117.165C117.133 34.5418 117.101 34.5353 117.071 34.5229C117.041 34.5104 117.014 34.4922 116.991 34.4692C116.969 34.4462 116.951 34.4189 116.939 34.3889C116.927 34.3589 116.921 34.3268 116.921 34.2945C116.929 33.7435 116.948 32.4699 116.948 32.5897ZM95.3476 19.5501L98.1372 28.0004C98.1756 28.1154 98.3385 28.1115 98.3711 27.9956L100.754 19.5606C100.769 19.5092 100.8 19.464 100.842 19.4318C100.885 19.3996 100.937 19.3823 100.99 19.3824H105.034C105.2 19.3824 105.318 19.5415 105.269 19.6986L100.705 34.3702C100.689 34.4202 100.658 34.4639 100.616 34.495C100.574 34.526 100.523 34.5428 100.471 34.5427H96.2034C96.1522 34.5426 96.1022 34.5265 96.0607 34.4966C96.0191 34.4667 95.9879 34.4245 95.9715 34.376L92.8378 25.0977C92.7995 24.9865 92.6414 24.9875 92.605 25.0977L89.5288 34.3741C89.5127 34.4228 89.4816 34.4653 89.44 34.4954C89.3983 34.5255 89.3483 34.5417 89.2969 34.5418H84.9376C84.8856 34.5418 84.8349 34.5253 84.7928 34.4946C84.7508 34.464 84.7196 34.4207 84.7038 34.3712L80.08 19.6996C80.0685 19.6629 80.0659 19.6241 80.0722 19.5863C80.0786 19.5485 80.0938 19.5126 80.1165 19.4817C80.1393 19.4509 80.169 19.4258 80.2033 19.4085C80.2376 19.3912 80.2754 19.3823 80.3138 19.3824H84.6338C84.7431 19.3824 84.8398 19.4552 84.8695 19.5606L87.2528 27.9688C87.2854 28.0838 87.4483 28.0876 87.4867 27.9736L90.306 19.5501C90.3223 19.5012 90.3535 19.4587 90.3953 19.4286C90.4371 19.3985 90.4874 19.3823 90.5389 19.3824H95.1147C95.2202 19.3824 95.315 19.4495 95.3476 19.5501ZM78.8169 23.6583C78.8169 23.694 78.8091 23.7292 78.794 23.7615C78.7789 23.7938 78.757 23.8224 78.7297 23.8453C78.7024 23.8682 78.6704 23.8849 78.636 23.8942C78.6015 23.9034 78.5655 23.905 78.5304 23.8989C78.1394 23.8328 77.7434 23.8013 77.3469 23.8049C75.4782 23.8049 73.7945 24.9032 73.7945 27.9228V34.2983C73.7945 34.4325 73.6852 34.5418 73.5501 34.5418H69.3853C69.3532 34.5419 69.3214 34.5357 69.2917 34.5235C69.262 34.5114 69.235 34.4935 69.2122 34.4709C69.1895 34.4483 69.1714 34.4214 69.159 34.3918C69.1466 34.3622 69.1401 34.3304 69.14 34.2983V19.6267C69.14 19.4926 69.2492 19.3824 69.3853 19.3824H73.3968C73.5319 19.3824 73.6411 19.4916 73.6411 19.6267V21.4264C74.4375 19.7178 76.3675 19.23 77.5922 19.23C77.964 19.23 78.3358 19.2703 78.6262 19.3335C78.7383 19.3584 78.8169 19.4581 78.8169 19.5721V23.6583ZM62.1885 34.2983V19.6267C62.1885 19.4926 62.2987 19.3824 62.4338 19.3824H66.5986C66.7337 19.3824 66.8439 19.4916 66.8439 19.6267V34.2983C66.8439 34.4325 66.7337 34.5418 66.5986 34.5418H62.4338C62.4017 34.5419 62.3699 34.5357 62.3402 34.5235C62.3105 34.5114 62.2835 34.4935 62.2607 34.4709C62.2379 34.4483 62.2198 34.4214 62.2074 34.3918C62.195 34.3622 62.1886 34.3304 62.1885 34.2983ZM64.4855 12.0312C66.0169 12.0312 67.2416 13.2512 67.2416 14.7461C67.2416 16.2411 66.0169 17.461 64.4855 17.461C63.0155 17.461 61.7908 16.2411 61.7908 14.7461C61.7908 13.2512 63.0155 12.0312 64.4855 12.0312ZM47.3568 25.757H52.2787C52.363 25.757 52.4224 25.6746 52.3937 25.595L49.9634 18.6129C49.9552 18.5887 49.9396 18.5677 49.9189 18.5528C49.8982 18.5379 49.8733 18.5298 49.8478 18.5297C49.8223 18.5296 49.7974 18.5375 49.7765 18.5522C49.7557 18.5669 49.7399 18.5878 49.7315 18.6119L47.2428 25.595C47.2141 25.6736 47.2735 25.758 47.3578 25.758L47.3568 25.757ZM53.8091 30.1499H45.7642C45.7137 30.1499 45.6645 30.1656 45.6233 30.1948C45.5821 30.224 45.551 30.2652 45.5342 30.3128L44.0871 34.3798C44.0702 34.4275 44.039 34.4688 43.9976 34.498C43.9562 34.5272 43.9068 34.5428 43.8562 34.5427H39.3004C39.2608 34.5429 39.2217 34.5335 39.1865 34.5152C39.1513 34.497 39.1211 34.4704 39.0985 34.4379C39.0758 34.4054 39.0614 34.3678 39.0565 34.3285C39.0517 34.2891 39.0564 34.2492 39.0704 34.2121L47.0626 13.0739C47.0802 13.0274 47.1115 12.9873 47.1525 12.959C47.1934 12.9308 47.242 12.9157 47.2917 12.9158H52.5566C52.6582 12.9158 52.7502 12.979 52.7856 13.0748L60.6878 34.2131C60.7014 34.25 60.7058 34.2898 60.7008 34.3288C60.6957 34.3679 60.6812 34.4052 60.6586 34.4375C60.6361 34.4698 60.606 34.4961 60.571 34.5143C60.536 34.5324 60.4972 34.5419 60.4578 34.5418H55.7171C55.6665 34.5417 55.6171 34.5261 55.5758 34.4969C55.5344 34.4677 55.5031 34.4265 55.4861 34.3788L54.0391 30.3128C54.0221 30.2653 53.991 30.2241 53.9498 30.195C53.9087 30.1658 53.8595 30.1501 53.8091 30.1499Z" fill="black"/>
<path fill-rule="evenodd" clip-rule="evenodd" d="M33.1709 21.0289C33.767 21.6091 34.1805 22.351 34.3605 23.1631C34.5404 23.9753 34.479 24.8223 34.1839 25.6L31.9347 31.7101C31.3444 33.3143 29.999 34.5553 28.3363 34.8793C27.5046 35.0457 26.6434 34.9829 25.8446 34.6977C25.0459 34.4124 24.3397 33.9154 23.8016 33.2597L10.3145 17.1008C10.281 17.0611 10.2376 17.0308 10.1887 17.0131C10.1398 16.9953 10.0871 16.9908 10.0359 16.9998C9.98463 17.0088 9.93667 17.0311 9.89677 17.0645C9.85687 17.0979 9.82644 17.1411 9.80851 17.19L5.42045 29.0585C5.32941 29.3039 5.5709 29.5415 5.81048 29.4438L11.1952 27.2445C11.4987 27.1214 11.8245 27.0624 12.1519 27.0711C12.4794 27.0799 12.8015 27.1562 13.0981 27.2953C13.3946 27.4344 13.6593 27.6333 13.8753 27.8795C14.0914 28.1257 14.2543 28.4139 14.3537 28.726C14.7514 29.9459 14.0825 31.2636 12.9048 31.7446L5.87085 34.6167C4.56852 35.1485 3.07261 35.0546 1.89965 34.2717C1.10031 33.7375 0.504373 32.9495 0.20808 32.0348C-0.0882119 31.1202 -0.0675584 30.1325 0.266705 29.231L5.45112 15.213C6.06539 13.5513 7.46451 12.3783 9.19424 12.0755C10.0366 11.9246 10.904 12.0008 11.707 12.2964C12.5101 12.592 13.22 13.0963 13.7634 13.7573L21.5046 23.0337L28.6248 20.1252C30.2069 19.4793 31.9491 19.8253 33.1709 21.0289ZM29.0646 25.6882C29.1547 25.4429 28.9132 25.2052 28.6736 25.3039L24.7398 26.91L27.0991 29.738C27.1326 29.7782 27.1761 29.8089 27.2252 29.8269C27.2744 29.845 27.3274 29.8497 27.3789 29.8407C27.4305 29.8316 27.4787 29.8091 27.5188 29.7754C27.5588 29.7417 27.5893 29.6981 27.607 29.6488L29.0637 25.6882H29.0646Z" fill="url(#paint0_linear_23421_3263)"/>
<defs>
<linearGradient id="paint0_linear_23421_3263" x1="0" y1="12" x2="21.2018" y2="43.8084" gradientUnits="userSpaceOnUse">
<stop stop-color="#FF4244"/>
<stop offset="1" stop-color="#FF8E3C"/>
</linearGradient>
</defs>
</svg>
