<svg width="150" height="48" viewBox="0 0 150 48" fill="none" xmlns="http://www.w3.org/2000/svg">
<path fill-rule="evenodd" clip-rule="evenodd" d="M44 24V34.2489L43.9975 34.7785C43.9614 38.4667 43.539 39.8831 42.7756 41.3105C41.9767 42.8044 40.8044 43.9767 39.3105 44.7756L39.1112 44.8799C37.6799 45.6115 36.1534 46 32.2489 46H22V24H44Z" fill="url(#paint0_linear_23421_3336)"/>
<path fill-rule="evenodd" clip-rule="evenodd" d="M39.3105 3.22436C40.8044 4.02327 41.9767 5.19563 42.7756 6.68946L42.8799 6.88879C43.6115 8.32014 44 9.84662 44 13.7511V24H22V2H32.2489C36.335 2 37.8167 2.42545 39.3105 3.22436Z" fill="url(#paint1_linear_23421_3336)"/>
<path fill-rule="evenodd" clip-rule="evenodd" d="M22 2V46H11.7511L11.2215 45.9975C7.53328 45.9614 6.11689 45.539 4.68946 44.7756C3.19563 43.9767 2.02327 42.8044 1.22436 41.3105L1.12006 41.1112C0.388473 39.6799 0 38.1534 0 34.2489V13.7511C0 9.66501 0.425451 8.18328 1.22436 6.68946C2.02327 5.19563 3.19563 4.02327 4.68946 3.22436L4.88879 3.12005C6.32014 2.38847 7.84662 2 11.7511 2H22Z" fill="url(#paint2_linear_23421_3336)"/>
<path fill-rule="evenodd" clip-rule="evenodd" d="M75.0289 18.565C74.5689 17.9407 73.9694 17.4849 73.2302 17.1974C72.491 16.91 71.7682 16.7662 71.0619 16.7662C70.1584 16.7662 69.3371 16.9305 68.5979 17.259C67.8587 17.5876 67.2221 18.0393 66.6883 18.6142C66.1544 19.1892 65.7437 19.8627 65.4563 20.6347C65.1688 21.4068 65.0251 22.2445 65.0251 23.148C65.0251 24.1007 65.1647 24.9713 65.4439 25.7598C65.7232 26.5483 66.1215 27.2259 66.639 27.7926C67.1564 28.3594 67.7765 28.7988 68.4993 29.1109C69.2221 29.423 70.0352 29.579 70.9387 29.579C71.875 29.579 72.7045 29.3942 73.4273 29.0246C74.1501 28.655 74.7332 28.1663 75.1767 27.5586L77.6654 29.308C76.8933 30.2772 75.9488 31.0287 74.8318 31.5625C73.7148 32.0964 72.4088 32.3633 70.914 32.3633C69.5506 32.3633 68.2981 32.1375 67.1564 31.6857C66.0148 31.234 65.0333 30.6016 64.2119 29.7885C63.3906 28.9753 62.75 28.0062 62.29 26.881C61.8301 25.7557 61.6001 24.5114 61.6001 23.148C61.6001 21.7517 61.8424 20.491 62.327 19.3658C62.8116 18.2405 63.4768 17.2837 64.3228 16.4952C65.1688 15.7067 66.1667 15.0989 67.3166 14.6718C68.4664 14.2447 69.7149 14.0312 71.0619 14.0312C71.6204 14.0312 72.2035 14.0846 72.8113 14.1914C73.4191 14.2981 74.0022 14.4624 74.5607 14.6842C75.1192 14.9059 75.6449 15.1811 76.1377 15.5096C76.6305 15.8381 77.0494 16.2324 77.3943 16.6923L75.0289 18.565ZM79.4887 13.292H82.4455V31.9198H79.4887V13.292ZM93.4913 24.8235C93.4913 24.4457 93.4379 24.0843 93.3311 23.7394C93.2243 23.3944 93.056 23.0905 92.826 22.8277C92.596 22.5648 92.3045 22.3554 91.9513 22.1994C91.5981 22.0433 91.1833 21.9653 90.707 21.9653C89.8199 21.9653 89.0684 22.2322 88.4524 22.7661C87.8364 23.2999 87.4956 23.9857 87.4298 24.8235H93.4913ZM96.4481 26.1541V26.5483C96.4481 26.6797 96.4399 26.8111 96.4234 26.9426H87.4298C87.4627 27.3696 87.5736 27.7598 87.7625 28.1129C87.9514 28.4661 88.2019 28.77 88.514 29.0246C88.8261 29.2792 89.1793 29.4805 89.5735 29.6283C89.9678 29.7761 90.3784 29.8501 90.8055 29.8501C91.5447 29.8501 92.1689 29.7146 92.6782 29.4435C93.1874 29.1725 93.6063 28.7988 93.9348 28.3224L95.906 29.8994C94.7397 31.4763 93.0478 32.2648 90.8302 32.2648C89.9103 32.2648 89.0643 32.1211 88.2922 31.8336C87.5202 31.5461 86.8508 31.1396 86.2841 30.6139C85.7174 30.0883 85.2739 29.4435 84.9535 28.6797C84.6332 27.9158 84.473 27.0493 84.473 26.0802C84.473 25.1274 84.6332 24.2609 84.9535 23.4806C85.2739 22.7004 85.7133 22.0351 86.2718 21.4848C86.8303 20.9345 87.4914 20.5074 88.2553 20.2035C89.0191 19.8996 89.8446 19.7477 90.7316 19.7477C91.5529 19.7477 92.3127 19.8832 93.0108 20.1542C93.7089 20.4253 94.3126 20.8277 94.8218 21.3616C95.3311 21.8955 95.7294 22.5607 96.0169 23.3574C96.3044 24.1541 96.4481 25.0863 96.4481 26.1541ZM106.501 30.4168H106.427C106.132 30.9424 105.655 31.3736 104.998 31.7104C104.341 32.0471 103.594 32.2155 102.756 32.2155C102.28 32.2155 101.783 32.1539 101.265 32.0307C100.748 31.9075 100.271 31.7022 99.8361 31.4147C99.4008 31.1272 99.0394 30.7494 98.7519 30.2813C98.4645 29.8131 98.3207 29.2341 98.3207 28.5442C98.3207 27.6571 98.5712 26.9508 99.0722 26.4251C99.5733 25.8995 100.218 25.497 101.006 25.2178C101.795 24.9385 102.67 24.7537 103.631 24.6634C104.592 24.573 105.532 24.5278 106.452 24.5278V24.2322C106.452 23.4929 106.185 22.9468 105.651 22.5936C105.117 22.2404 104.481 22.0638 103.742 22.0638C103.117 22.0638 102.518 22.1952 101.943 22.4581C101.368 22.7209 100.891 23.0412 100.514 23.419L98.986 21.6203C99.6595 20.9961 100.436 20.5279 101.314 20.2158C102.193 19.9037 103.084 19.7477 103.988 19.7477C105.039 19.7477 105.906 19.8955 106.587 20.1912C107.269 20.4869 107.807 20.8729 108.201 21.3493C108.596 21.8256 108.871 22.3595 109.027 22.9509C109.183 23.5422 109.261 24.1336 109.261 24.7249V31.9198H106.501V30.4168ZM106.452 26.5237H105.787C105.31 26.5237 104.809 26.5442 104.284 26.5853C103.758 26.6263 103.273 26.7167 102.83 26.8563C102.386 26.9959 102.017 27.1931 101.721 27.4477C101.425 27.7023 101.278 28.0513 101.278 28.4949C101.278 28.7741 101.339 29.0082 101.462 29.1971C101.586 29.386 101.746 29.538 101.943 29.6529C102.14 29.7679 102.362 29.8501 102.608 29.8994C102.854 29.9486 103.101 29.9733 103.347 29.9733C104.366 29.9733 105.138 29.7022 105.663 29.1602C106.189 28.6181 106.452 27.8789 106.452 26.9426V26.5237ZM111.83 20.0926H114.664V22.0638H114.713C115.042 21.3739 115.502 20.8154 116.093 20.3883C116.685 19.9612 117.374 19.7477 118.163 19.7477C118.278 19.7477 118.401 19.7518 118.533 19.76C118.664 19.7682 118.779 19.7887 118.878 19.8216V22.532C118.68 22.4827 118.512 22.4499 118.372 22.4334C118.233 22.417 118.097 22.4088 117.966 22.4088C117.292 22.4088 116.75 22.532 116.34 22.7784C115.929 23.0248 115.609 23.3205 115.379 23.6654C115.149 24.0104 114.993 24.3636 114.91 24.7249C114.828 25.0863 114.787 25.3738 114.787 25.5874V31.9198H111.83V20.0926ZM123.806 13.292V21.5957H123.879C124.027 21.3986 124.216 21.1932 124.446 20.9797C124.676 20.7661 124.951 20.569 125.272 20.3883C125.592 20.2076 125.966 20.0557 126.393 19.9325C126.82 19.8093 127.304 19.7477 127.846 19.7477C128.684 19.7477 129.456 19.9078 130.163 20.2282C130.869 20.5485 131.477 20.9879 131.986 21.5464C132.495 22.1049 132.889 22.762 133.169 23.5176C133.448 24.2732 133.588 25.0863 133.588 25.957C133.588 26.8276 133.452 27.6448 133.181 28.4086C132.91 29.1725 132.524 29.8377 132.023 30.4045C131.522 30.9712 130.914 31.4229 130.2 31.7597C129.485 32.0964 128.676 32.2648 127.773 32.2648C126.935 32.2648 126.15 32.0841 125.419 31.7227C124.688 31.3613 124.118 30.8357 123.707 30.1458H123.658V31.9198H120.849V13.292H123.806ZM130.582 25.957C130.582 25.497 130.512 25.0412 130.372 24.5894C130.232 24.1377 130.023 23.7311 129.744 23.3698C129.465 23.0084 129.111 22.7168 128.684 22.495C128.257 22.2733 127.756 22.1624 127.181 22.1624C126.639 22.1624 126.155 22.2774 125.727 22.5074C125.3 22.7373 124.935 23.033 124.631 23.3944C124.327 23.7558 124.097 24.1664 123.941 24.6264C123.785 25.0863 123.707 25.5463 123.707 26.0062C123.707 26.4662 123.785 26.922 123.941 27.3737C124.097 27.8255 124.327 28.232 124.631 28.5934C124.935 28.9548 125.3 29.2464 125.727 29.4681C126.155 29.6899 126.639 29.8008 127.181 29.8008C127.756 29.8008 128.257 29.6858 128.684 29.4558C129.111 29.2259 129.465 28.9302 129.744 28.5688C130.023 28.2074 130.232 27.7967 130.372 27.3368C130.512 26.8768 130.582 26.4169 130.582 25.957ZM135.615 20.0926H138.572V31.9198H135.615V20.0926ZM135.196 16.0763C135.196 15.5999 135.373 15.1852 135.726 14.832C136.079 14.4788 136.527 14.3022 137.069 14.3022C137.611 14.3022 138.067 14.4706 138.436 14.8074C138.806 15.1441 138.991 15.5671 138.991 16.0763C138.991 16.5855 138.806 17.0085 138.436 17.3453C138.067 17.682 137.611 17.8504 137.069 17.8504C136.527 17.8504 136.079 17.6738 135.726 17.3206C135.373 16.9675 135.196 16.5527 135.196 16.0763ZM140.469 22.4581V20.0926H142.539V16.6677H145.446V20.0926H148.403V22.4581H145.446V27.9528C145.446 28.4784 145.541 28.9137 145.73 29.2587C145.919 29.6037 146.342 29.7761 146.999 29.7761C147.196 29.7761 147.409 29.7556 147.639 29.7145C147.869 29.6735 148.075 29.6119 148.255 29.5297L148.354 31.8459C148.091 31.9445 147.779 32.0225 147.418 32.08C147.056 32.1375 146.711 32.1662 146.383 32.1662C145.594 32.1662 144.954 32.0554 144.461 31.8336C143.968 31.6118 143.578 31.3079 143.29 30.9219C143.003 30.5359 142.806 30.0924 142.699 29.5913C142.592 29.0903 142.539 28.5524 142.539 27.9774V22.4581H140.469Z" fill="#27282A"/>
<defs>
<linearGradient id="paint0_linear_23421_3336" x1="33" y1="24" x2="44" y2="46" gradientUnits="userSpaceOnUse">
<stop stop-color="#DEF2FE"/>
<stop offset="1" stop-color="#DBF1FE"/>
</linearGradient>
<linearGradient id="paint1_linear_23421_3336" x1="22" y1="2" x2="33" y2="24" gradientUnits="userSpaceOnUse">
<stop stop-color="#57BCFD"/>
<stop offset="1" stop-color="#51B5FD"/>
</linearGradient>
<linearGradient id="paint2_linear_23421_3336" x1="8.25" y1="2" x2="26.95" y2="39.4" gradientUnits="userSpaceOnUse">
<stop stop-color="#1CA7FD"/>
<stop offset="1" stop-color="#148CFC"/>
</linearGradient>
</defs>
</svg>
