<svg width="160" height="48" viewBox="0 0 160 48" fill="none" xmlns="http://www.w3.org/2000/svg">
<path d="M38.8888 9.33887C34.8721 9.33887 33.4623 12.1319 33.4623 14.7387V16.3347H32.6111C31.9993 16.3347 31.5205 16.8135 31.5205 17.4253C31.5205 18.0371 31.9993 18.5159 32.6111 18.5159H33.4623V29.5284C33.4623 30.1668 33.9677 30.6988 34.6327 30.6988C35.2711 30.6988 35.8031 30.1934 35.8031 29.5284V18.5159H38.3833C38.9951 18.5159 39.474 18.0371 39.474 17.4253C39.474 16.8135 38.9951 16.3347 38.3833 16.3347H35.8031V14.7387C35.8031 13.2757 36.3351 11.5467 38.9153 11.5467C39.5272 11.5467 40.006 11.0679 40.006 10.4561C39.9794 9.81767 39.5006 9.33887 38.8888 9.33887Z" fill="#4D4D4D"/>
<path d="M47.9331 15.9614C46.2041 15.9614 44.7411 16.6796 43.9165 17.85V17.2382C43.9165 16.5998 43.4111 16.0678 42.7461 16.0678C42.1077 16.0678 41.5757 16.5732 41.5757 17.2382V29.5275C41.5757 30.1659 42.0811 30.6979 42.7461 30.6979C43.3845 30.6979 43.9165 30.1925 43.9165 29.5275V22.7445C43.9165 19.8982 45.4327 18.1958 47.9331 18.1958C48.5449 18.1958 49.0503 17.6904 49.0503 17.0786C49.0769 16.4668 48.5715 15.9614 47.9331 15.9614Z" fill="#4D4D4D"/>
<path d="M62.1645 21.9996C62.1645 21.3346 62.0581 19.6056 61.0473 18.1692C60.0098 16.6796 58.3872 15.9082 56.1794 15.9082C52.083 15.9082 49.7422 18.6214 49.7422 23.3562C49.7422 28.2507 52.083 30.8575 56.472 30.8575C59.4246 30.8575 61.0472 29.3945 61.3399 29.1019C61.5261 28.9157 61.7389 28.6763 61.7389 28.2773C61.7389 27.6921 61.2601 27.2133 60.6748 27.2133C60.3822 27.2133 60.196 27.2931 60.0098 27.4261C59.1586 28.0645 58.1744 28.7029 56.4986 28.7029C53.8652 28.7029 52.1894 26.9739 52.1096 24.1543H60.7546C62.1645 24.1277 62.1645 22.8508 62.1645 21.9996ZM56.1794 18.0362C58.5734 18.0362 59.8236 19.3928 59.8768 22.0528H52.1362C52.349 19.4726 53.7854 18.0362 56.1794 18.0362Z" fill="#4D4D4D"/>
<path d="M69.985 22.1866C68.2559 21.6014 66.7663 21.0694 66.7663 19.7926C66.7663 18.3828 68.3357 18.17 69.2667 18.17C70.9426 18.17 71.7672 18.7552 72.4322 19.3936C72.645 19.6064 72.911 19.7128 73.2036 19.7128C73.7888 19.7128 74.2676 19.234 74.2676 18.6488C74.2676 18.3296 74.1346 18.1168 74.0282 17.9572C73.044 16.6538 71.3682 15.9355 69.2667 15.9355C66.2875 15.9355 64.4521 17.4252 64.4521 19.7926C64.4521 22.692 67.0057 23.5698 69.2401 24.3146C70.9426 24.8998 72.4056 25.3786 72.4056 26.6288C72.4056 28.3312 70.5169 28.5972 69.3731 28.5972C67.8303 28.5972 66.6333 28.1184 65.6491 27.1608C65.3565 26.8682 65.0373 26.815 64.8511 26.815C64.2659 26.815 63.7871 27.2938 63.7871 27.879C63.7871 28.1184 63.8669 28.3046 64.0531 28.5706C64.9309 29.6878 66.9259 30.8316 69.3731 30.8316C72.7248 30.8316 74.7198 29.2622 74.7198 26.6554C74.7198 23.8358 72.2194 22.958 69.985 22.1866Z" fill="#4D4D4D"/>
<path d="M83.7904 15.9085C82.1944 15.9085 80.758 16.5469 79.96 17.5577V9.68408C79.96 9.04567 79.4545 8.51367 78.7895 8.51367C78.1511 8.51367 77.6191 9.01907 77.6191 9.68408V29.5544C77.6191 30.1928 78.1245 30.7248 78.7895 30.7248C79.4279 30.7248 79.96 30.2194 79.96 29.5544V22.0797C79.96 19.3931 81.2634 18.0365 83.7904 18.0365C86.2376 18.0365 87.2484 19.1537 87.2484 21.8669V29.5544C87.2484 30.1928 87.7538 30.7248 88.4188 30.7248C89.0572 30.7248 89.5892 30.2194 89.5892 29.5544V21.4679C89.536 17.7705 87.5942 15.9085 83.7904 15.9085Z" fill="#4D4D4D"/>
<path d="M108.927 16.0952C108.422 16.0952 108.023 16.3878 107.837 16.8666L104.512 26.3363L101.798 16.8666C101.692 16.4942 101.293 16.0952 100.708 16.0952C100.123 16.0952 99.7235 16.4942 99.6171 16.8666L96.9039 26.3097L93.5789 16.84C93.3927 16.3612 92.9937 16.0952 92.4883 16.0952C91.8499 16.0952 91.3179 16.6006 91.3179 17.2656C91.3179 17.4252 91.3445 17.5848 91.4243 17.7444L95.8665 29.9539C96.0527 30.4327 96.4517 30.6987 96.9571 30.6987C97.4891 30.6987 97.9413 30.3529 98.0743 29.8741L100.681 20.9098L103.288 29.8741C103.421 30.3529 103.9 30.6987 104.405 30.6987C104.911 30.6987 105.31 30.4061 105.496 29.9273L109.938 17.7178C110.018 17.5582 110.044 17.372 110.044 17.2124C110.071 16.6006 109.566 16.0952 108.927 16.0952Z" fill="#4D4D4D"/>
<path d="M117.386 15.9082C113.157 15.9082 110.842 18.5682 110.842 23.3562C110.842 28.1975 113.157 30.8575 117.386 30.8575C121.615 30.8575 123.93 28.1975 123.93 23.3562C123.93 18.5416 121.589 15.9082 117.386 15.9082ZM117.386 28.7295C114.566 28.7295 113.183 26.9739 113.183 23.3828C113.183 19.845 114.593 18.0628 117.386 18.0628C120.179 18.0628 121.589 19.845 121.589 23.3828C121.589 26.9739 120.206 28.7295 117.386 28.7295Z" fill="#4D4D4D"/>
<path d="M132.921 15.9614C131.192 15.9614 129.729 16.6796 128.904 17.85V17.2382C128.904 16.5998 128.399 16.0678 127.734 16.0678C127.095 16.0678 126.563 16.5732 126.563 17.2382V29.5275C126.563 30.1659 127.069 30.6979 127.734 30.6979C128.372 30.6979 128.904 30.1925 128.904 29.5275V22.7445C128.904 19.8982 130.42 18.1958 132.921 18.1958C133.533 18.1958 134.038 17.6904 134.038 17.0786C134.038 16.4668 133.533 15.9614 132.921 15.9614Z" fill="#4D4D4D"/>
<path d="M141.752 22.0265L146.567 18.1695C146.966 17.8503 147.019 17.4513 147.019 17.2385C147.019 16.6001 146.514 16.0681 145.849 16.0681C145.662 16.0681 145.343 16.0947 145.051 16.3607L138.214 21.9467V9.68408C138.214 9.04567 137.709 8.51367 137.044 8.51367C136.406 8.51367 135.874 9.01907 135.874 9.68408V29.5544C135.874 30.1928 136.379 30.7248 137.044 30.7248C137.682 30.7248 138.214 30.2194 138.214 29.5544V24.7664L139.837 23.463L145.077 30.1928C145.37 30.5386 145.689 30.7248 146.061 30.7248C146.7 30.7248 147.232 30.2194 147.232 29.5544C147.232 29.3682 147.205 29.1022 146.992 28.8362L141.752 22.0265Z" fill="#4D4D4D"/>
<path d="M154.866 22.1866C153.137 21.6014 151.648 21.0694 151.648 19.7926C151.648 18.3828 153.217 18.17 154.148 18.17C155.824 18.17 156.649 18.7552 157.314 19.3936C157.526 19.6064 157.792 19.7128 158.085 19.7128C158.67 19.7128 159.149 19.234 159.149 18.6488C159.149 18.303 158.963 18.0636 158.91 17.9572C157.925 16.6538 156.249 15.9355 154.148 15.9355C151.169 15.9355 149.333 17.4252 149.333 19.7926C149.333 22.692 151.887 23.5698 154.121 24.3146C155.824 24.8998 157.287 25.3786 157.287 26.6288C157.287 28.3312 155.398 28.5972 154.254 28.5972C152.712 28.5972 151.515 28.1184 150.53 27.1608C150.238 26.8682 149.945 26.815 149.732 26.815C149.147 26.815 148.668 27.2938 148.668 27.879C148.668 28.1184 148.748 28.3046 148.934 28.5706C149.812 29.6878 151.807 30.8316 154.254 30.8316C157.606 30.8316 159.601 29.2622 159.601 26.6554C159.601 23.8358 157.101 22.958 154.866 22.1866Z" fill="#4D4D4D"/>
<path d="M0.159668 28.8891C0.611871 31.8417 1.99508 34.5017 3.99009 36.4967L8.64512 31.8417C8.64512 27.1335 11.0923 22.5583 15.4548 20.0312L0.159668 28.8891Z" fill="#9B65C3"/>
<path d="M8.64512 31.8425C6.3309 31.8425 3.99009 31.2573 1.83548 30.0071C1.25027 29.6613 0.691671 29.2889 0.159668 28.8633C0.611871 31.8159 1.99508 34.4759 3.99009 36.4709L8.64512 31.8425Z" fill="#9B65C3"/>
<path d="M8.64477 31.8419L3.98975 36.4969C6.01136 38.5185 8.64477 39.9017 11.5974 40.3273L20.4286 25.0322C17.9282 29.3947 13.353 31.8419 8.64477 31.8419Z" fill="#BE63C5"/>
<path d="M10.4802 38.6778C9.22998 36.5232 8.64477 34.1824 8.64477 31.8682L3.98975 36.5232C6.01136 38.5448 8.64477 39.928 11.5974 40.3536C11.1984 39.8216 10.826 39.263 10.4802 38.6778Z" fill="#BF63C6"/>
<path d="M25.9886 13.9658L15.4815 20.0573C11.1191 22.5843 5.93209 22.3981 1.86227 20.0573C0.691859 22.0523 0.0268555 24.3931 0.0268555 26.8669C0.0268555 27.5585 0.0800554 28.2235 0.186456 28.8885C0.718459 29.3141 1.27706 29.6865 1.86227 30.0323C4.01688 31.2825 6.35769 31.8677 8.6719 31.8677L26.2812 14.2584C26.1748 14.152 26.095 14.0456 25.9886 13.9658Z" fill="#3278B1"/>
<path d="M1.83522 30.0334C3.98984 31.2836 6.33065 31.8688 8.64486 31.8688C8.64486 27.1606 11.0921 22.5854 15.4545 20.0583L0.132812 28.8896C0.691416 29.2886 1.25002 29.6876 1.83522 30.0334Z" fill="#3278B2"/>
<path d="M1.83541 20.0583C0.665004 22.0534 0 24.3942 0 26.868C0 27.5596 0.0532004 28.2246 0.159601 28.8896L15.4813 20.0583C11.0923 22.5588 5.90523 22.3992 1.83541 20.0583Z" fill="#45A4EC"/>
<path d="M26.281 14.2325C26.2012 14.1527 26.0948 14.0463 25.9884 13.9665C25.8554 13.8601 25.7224 13.7537 25.5628 13.6739C25.0574 13.3813 24.4722 13.2217 23.8604 13.2217H13.6459C8.59189 13.2217 4.20286 15.9615 1.83545 20.0313C5.90527 22.3721 11.0923 22.5583 15.4547 20.0313C11.0923 22.5583 8.64509 27.1336 8.64509 31.8418C13.3533 31.8418 17.9285 29.3946 20.4556 25.0322L26.5204 14.5251C26.4406 14.4187 26.3608 14.3123 26.281 14.2325Z" fill="#19BB7D"/>
<path d="M15.4813 20.0576L25.9884 13.9928C25.8554 13.8864 25.7224 13.78 25.5628 13.7002L1.83545 20.0576C5.90527 22.3984 11.0923 22.558 15.4813 20.0576Z" fill="#08C7FB"/>
<path d="M23.8604 13.2217H13.6459C8.59189 13.2217 4.20286 15.9615 1.83545 20.0313L25.5628 13.6739C25.0574 13.4079 24.4988 13.2217 23.8604 13.2217Z" fill="#59F2F6"/>
<path d="M20.4555 25.0316L26.5203 14.5245C26.4405 14.4181 26.3607 14.3383 26.2543 14.2319L8.64502 31.8412C8.64502 34.1554 9.23022 36.4963 10.4804 38.6509C10.8262 39.2361 11.1986 39.7947 11.6242 40.3267C12.2892 40.4331 12.9542 40.4863 13.6458 40.4863C16.1197 40.4863 18.4605 39.8213 20.4555 38.6509C18.1147 34.581 17.9285 29.394 20.4555 25.0316Z" fill="#DA3757"/>
<path d="M8.64502 31.8419C8.64502 34.1561 9.23022 36.4969 10.4804 38.6515C10.8262 39.2367 11.1986 39.7953 11.6242 40.3273L20.4555 25.0322C17.9285 29.3947 13.3532 31.8419 8.64502 31.8419Z" fill="#D33C4E"/>
<path d="M20.4558 25.0322L11.6245 40.3539C12.2895 40.4603 12.9545 40.5135 13.6461 40.5135C16.1199 40.5135 18.4608 39.8485 20.4558 38.6781C18.1149 34.5817 17.9287 29.3947 20.4558 25.0322Z" fill="#EE5A24"/>
<path d="M26.8132 14.9503C26.7334 14.7907 26.627 14.6577 26.5206 14.5247C26.4408 14.4183 26.361 14.3385 26.2546 14.2321C26.1748 14.1523 26.0684 14.0459 25.962 13.9661L15.4815 20.0575C11.1191 22.5845 8.67188 27.1597 8.67188 31.868C13.3801 31.868 17.9553 29.4207 20.4823 25.0583C17.9553 29.4207 18.1415 34.6078 20.4823 38.6776C24.5522 36.3102 27.292 31.9212 27.292 26.8671V16.6527C27.2654 16.0143 27.1058 15.4291 26.8132 14.9503Z" fill="#8BDF55"/>
<path d="M25.9886 13.9661L15.4815 20.0575C11.1191 22.5845 8.67188 27.1597 8.67188 31.868L26.2812 14.2587C26.1748 14.1523 26.095 14.0459 25.9886 13.9661Z" fill="#25C16F"/>
<path d="M8.64502 31.8412C13.3532 31.8412 17.9285 29.394 20.4555 25.0316L26.5203 14.5245C26.4405 14.4181 26.3607 14.3383 26.2543 14.2319L8.64502 31.8412Z" fill="#8BDF55"/>
<path d="M26.5203 14.5254L20.4555 25.0325C17.9285 29.3949 18.1147 34.5819 20.4555 38.6517L26.8129 14.9244C26.7331 14.7914 26.6267 14.6584 26.5203 14.5254Z" fill="#FFBB00"/>
<path d="M20.4551 38.678C24.5249 36.3106 27.2647 31.9216 27.2647 26.8676V16.6531C27.2647 16.0413 27.1051 15.4561 26.8125 14.9507L20.4551 38.678Z" fill="#FFA800"/>
</svg>
