<svg width="136" height="48" viewBox="0 0 136 48" fill="none" xmlns="http://www.w3.org/2000/svg">
<g clip-path="url(#clip0_23421_3448)">
<path d="M98.4337 14.0518H95.7616V34.0578H106.602V31.5734H98.4337V14.0518ZM116.921 30.5491C116.248 31.2465 115.118 31.9438 113.597 31.9438C111.555 31.9438 110.73 30.9414 110.73 29.612C110.73 27.6288 112.098 26.6699 115.031 26.6699C115.574 26.6699 116.465 26.7353 116.921 26.8225V30.5491ZM114.162 18.4322C111.99 18.4322 110.013 19.195 108.47 20.4807L109.426 22.137C110.512 21.505 111.859 20.8512 113.793 20.8512C115.987 20.8512 116.965 21.9845 116.965 23.8804V24.8611C116.53 24.774 115.661 24.7086 115.096 24.7086C110.404 24.7086 108.036 26.3648 108.036 29.8081C108.036 32.9027 109.926 34.45 112.794 34.45C114.727 34.45 116.574 33.5565 117.204 32.1182L117.682 34.0796H119.572V23.8369C119.55 20.5897 118.138 18.4322 114.162 18.4322ZM128.196 32.0528C127.197 32.0528 126.306 31.9221 125.633 31.6169V22.3767C126.545 21.614 127.675 21.0692 129.109 21.0692C131.694 21.0692 132.693 22.8998 132.693 25.8636C132.715 30.0696 131.086 32.0528 128.196 32.0528ZM129.326 18.4322C126.936 18.4322 125.633 20.0667 125.633 20.0667V17.4733V14.0518H123.004V33.5783C124.308 34.1231 126.111 34.4282 128.066 34.4282C133.062 34.4282 135.474 31.2247 135.474 25.6893C135.474 21.3307 133.258 18.4322 129.326 18.4322ZM69.2795 16.2311C71.6474 16.2311 73.1899 17.0157 74.1892 17.822L75.3406 15.817C73.7764 14.4441 71.6474 13.7031 69.4098 13.7031C63.718 13.7031 59.7207 17.19 59.7207 24.2073C59.7207 31.5734 64.0221 34.45 68.9536 34.45C71.4302 34.45 73.5157 33.8616 74.8844 33.295L74.8192 25.4277V22.9216H67.4981V25.406H72.1688L72.234 31.3772C71.6257 31.6823 70.5612 31.9221 69.1274 31.9221C65.1735 31.9221 62.5232 29.4159 62.5232 24.1638C62.5232 18.8245 65.2604 16.2311 69.2795 16.2311ZM88.1363 14.0518H85.5076V17.4079V29.0236C85.5076 32.2707 86.9197 34.4282 90.8953 34.4282C91.4384 34.4282 91.9815 34.3847 92.5029 34.2757V31.9221C92.1336 31.9874 91.7208 32.0092 91.2863 32.0092C89.0922 32.0092 88.1146 30.876 88.1146 28.98V20.982H92.5029V18.8027H88.1146L88.1363 14.0518ZM78.86 34.0578H81.4886V18.8027H78.86V34.0578ZM78.86 16.6888H81.4886V14.0518H78.86V16.6888Z" fill="#888F9B"/>
<path d="M23.8099 46L32.5866 18.9331H15.0332L23.8099 46Z" fill="#D74B3A"/>
<path d="M23.8098 46L15.0331 18.9331H2.75879L23.8098 46Z" fill="#F36F3C"/>
<path d="M2.75921 18.9331L0.0871002 27.1491C-0.151869 27.89 0.108825 28.7181 0.738834 29.1758L23.7885 45.9782L2.75921 18.9331Z" fill="#F3993F"/>
<path d="M2.75879 18.9332H15.0548L9.75406 2.63207C9.49337 1.78215 8.29852 1.78215 8.03783 2.63207L2.75879 18.9332Z" fill="#D74B3A"/>
<path d="M23.8101 46L32.5867 18.9331H44.8828L23.8101 46Z" fill="#F36F3C"/>
<path d="M44.8613 18.9331L47.5334 27.1491C47.7724 27.89 47.5117 28.7181 46.8817 29.1758L23.832 45.9782L44.8613 18.9331Z" fill="#F3993F"/>
<path d="M44.861 18.9332H32.5649L37.844 2.63209C38.1264 1.80395 39.2995 1.80395 39.5602 2.63209L44.861 18.9332Z" fill="#D74B3A"/>
</g>
<defs>
<clipPath id="clip0_23421_3448">
<rect width="136" height="48" fill="white"/>
</clipPath>
</defs>
</svg>
