<svg width="180" height="48" viewBox="0 0 180 48" fill="none" xmlns="http://www.w3.org/2000/svg">
<path fill-rule="evenodd" clip-rule="evenodd" d="M54.542 34.3796C53.8831 34.1284 53.4517 33.5966 53.4517 32.8874C53.4517 32.029 54.1609 31.3213 55.0237 31.3213C55.2778 31.3213 55.4817 31.3716 55.659 31.4469C56.8356 31.9895 58.1174 32.2659 59.4131 32.2565C62.0532 32.2565 63.2957 30.9933 63.2957 28.5645V27.907C62.1537 29.2736 60.9112 30.1084 58.8561 30.1084C55.6841 30.1084 52.8164 27.8066 52.8164 23.785V23.7363C52.8164 19.6896 55.7343 17.4144 58.8561 17.4144C60.9614 17.4144 62.2039 18.3009 63.244 19.4385V19.4119C63.244 18.3747 64.1068 17.5164 65.1735 17.5164C66.2373 17.5164 67.1001 18.3747 67.1001 19.437V28.1611C67.1001 30.5885 66.518 32.357 65.3759 33.4946C64.1068 34.7608 62.1537 35.3163 59.515 35.3163C57.8121 35.3312 56.1228 35.013 54.542 34.3796ZM63.2957 23.7865V23.7363C63.2957 21.8895 61.8479 20.5997 59.9715 20.5997C58.0952 20.5997 56.6739 21.8895 56.6739 23.7363V23.7865C56.6739 25.6569 58.0952 26.9216 59.9715 26.9216C61.8479 26.9216 63.2957 25.6318 63.2957 23.7865ZM69.2837 19.437C69.2837 18.3747 70.1465 17.5164 71.2117 17.5164C72.2784 17.5164 73.1398 18.3747 73.1398 19.437V20.0427C73.6982 18.7293 74.6113 17.5164 75.7548 17.5164C76.9471 17.5164 77.6311 18.2994 77.6311 19.3868C77.6311 20.3973 76.9722 21.0045 76.1847 21.1818C74.2316 21.6383 73.1412 23.1291 73.1412 25.8593V29.4494C73.1412 30.5117 72.2784 31.3716 71.2117 31.3716C70.959 31.3721 70.7086 31.3229 70.4749 31.2267C70.2412 31.1305 70.0288 30.9891 69.8497 30.8108C69.6707 30.6324 69.5285 30.4205 69.4314 30.1872C69.3343 29.9538 69.2841 29.7037 69.2837 29.4509V19.437ZM77.1746 27.3264V27.2762C77.1746 24.3169 79.4321 22.9518 82.6558 22.9518C84.0254 22.9518 85.0152 23.1793 85.98 23.5073V23.2798C85.98 21.6886 84.9901 20.8021 83.0621 20.8021C82.1595 20.7925 81.2608 20.9205 80.3968 21.1818C80.2185 21.2479 80.03 21.2824 79.8398 21.2838C79.6313 21.2877 79.4241 21.25 79.2303 21.1729C79.0365 21.0958 78.8601 20.9809 78.7112 20.8348C78.5624 20.6887 78.4442 20.5144 78.3635 20.3221C78.2828 20.1298 78.2412 19.9233 78.2413 19.7147C78.2413 19.0322 78.6697 18.4516 79.2814 18.2226C80.4988 17.7675 81.8181 17.5164 83.6191 17.5164C85.7244 17.5164 87.2476 18.0719 88.2109 19.0322C89.2259 20.0427 89.6839 21.5364 89.6839 23.3566V29.5248C89.6839 30.5619 88.8462 31.3716 87.8061 31.3716C86.6891 31.3716 85.9534 30.5885 85.9534 29.7789V29.7523C85.0152 30.7895 83.7225 31.472 81.8432 31.472C79.2814 31.472 77.1746 30.0064 77.1746 27.3264ZM86.0302 26.4399V25.7589C85.2547 25.4181 84.4159 25.2454 83.5688 25.2521C81.9186 25.2521 80.9051 25.9096 80.9051 27.124V27.1742C80.9051 28.2114 81.7679 28.8186 83.0104 28.8186C84.8128 28.8186 86.0302 27.8317 86.0302 26.4399ZM91.739 19.437C91.739 18.3747 92.6018 17.5164 93.6685 17.5164C94.7337 17.5164 95.5965 18.3747 95.5965 19.437V19.5892C96.4829 18.4516 97.6516 17.4144 99.6047 17.4144C101.381 17.4144 102.725 18.1974 103.436 19.5641C104.628 18.1738 106.051 17.4144 107.9 17.4144C110.768 17.4144 112.495 19.1341 112.495 22.3963V29.4494C112.495 30.5117 111.631 31.3716 110.566 31.3716C110.313 31.3721 110.062 31.3229 109.829 31.2267C109.595 31.1305 109.382 30.9892 109.203 30.8109C109.024 30.6325 108.882 30.4206 108.784 30.1873C108.687 29.9539 108.637 29.7037 108.636 29.4509V23.6594C108.636 21.8393 107.824 20.9041 106.379 20.9041C104.932 20.9041 104.044 21.8393 104.044 23.6594V29.4509C104.044 30.5117 103.183 31.3716 102.116 31.3716C101.606 31.3723 101.116 31.1705 100.755 30.8103C100.393 30.4502 100.189 29.9612 100.188 29.4509V23.6594C100.188 21.8393 99.3757 20.9041 97.9308 20.9041C96.4829 20.9041 95.5965 21.8393 95.5965 23.6594V29.4509C95.5965 30.5117 94.7337 31.3716 93.6685 31.3716C93.4156 31.3723 93.1651 31.3233 92.9312 31.2271C92.6973 31.131 92.4847 30.9897 92.3055 30.8113C92.1263 30.6329 91.984 30.4209 91.8868 30.1875C91.7896 29.9541 91.7393 29.7038 91.739 29.4509V19.437ZM114.575 19.437C114.575 18.3747 115.438 17.5164 116.503 17.5164C117.57 17.5164 118.433 18.3747 118.433 19.437V19.5892C119.319 18.4516 120.487 17.4144 122.441 17.4144C124.217 17.4144 125.561 18.1974 126.272 19.5641C127.464 18.1738 128.886 17.4144 130.737 17.4144C133.605 17.4144 135.33 19.1341 135.33 22.3963V29.4494C135.33 30.5117 134.467 31.3716 133.401 31.3716C132.89 31.3723 132.401 31.1705 132.039 30.8103C131.678 30.4502 131.474 29.9612 131.473 29.4509V23.6594C131.473 21.8393 130.66 20.9041 129.215 20.9041C127.767 20.9041 126.881 21.8393 126.881 23.6594V29.4509C126.881 30.5117 126.018 31.3716 124.953 31.3716C124.7 31.3721 124.45 31.3229 124.216 31.2267C123.982 31.1305 123.77 30.9891 123.591 30.8108C123.412 30.6324 123.27 30.4205 123.172 30.1872C123.075 29.9538 123.025 29.7037 123.025 29.4509V23.6594C123.025 21.8393 122.212 20.9041 120.766 20.9041C119.319 20.9041 118.431 21.8393 118.431 23.6594V29.4509C118.431 30.5117 117.57 31.3716 116.503 31.3716C116.251 31.3721 116 31.3229 115.767 31.2267C115.533 31.1305 115.32 30.9891 115.141 30.8108C114.962 30.6324 114.82 30.4205 114.723 30.1872C114.626 29.9538 114.576 29.7037 114.575 29.4509V19.437ZM136.599 27.3264V27.2762C136.599 24.3169 138.858 22.9518 142.08 22.9518C143.212 22.9415 144.337 23.1296 145.403 23.5073V23.2798C145.403 21.6886 144.413 20.8021 142.485 20.8021C141.42 20.8021 140.557 20.9543 139.821 21.1818C139.643 21.2479 139.455 21.2824 139.265 21.2838C139.056 21.2881 138.848 21.2507 138.654 21.1738C138.46 21.0968 138.284 20.9819 138.134 20.8358C137.985 20.6896 137.867 20.5152 137.786 20.3227C137.706 20.1302 137.664 19.9235 137.664 19.7147C137.664 19.0322 138.097 18.4516 138.705 18.2226C139.923 17.7675 141.243 17.5164 143.044 17.5164C145.151 17.5164 146.672 18.0719 147.636 19.0322C148.651 20.0427 149.107 21.5364 149.107 23.3566V29.5248C149.107 29.7698 149.058 30.0124 148.964 30.2384C148.869 30.4644 148.73 30.6693 148.556 30.8412C148.381 31.0131 148.174 31.1485 147.947 31.2396C147.719 31.3306 147.476 31.3755 147.231 31.3716C146.114 31.3716 145.378 30.5885 145.378 29.7789V29.7523C144.44 30.7895 143.144 31.472 141.268 31.472C138.705 31.472 136.599 30.0064 136.599 27.3264ZM145.455 26.4399V25.7589C144.679 25.4182 143.841 25.2455 142.994 25.2521C141.343 25.2521 140.33 25.9096 140.33 27.124V27.1742C140.33 28.2114 141.191 28.8186 142.435 28.8186C144.236 28.8186 145.455 27.8317 145.455 26.4399ZM151.164 19.437C151.164 18.3747 152.026 17.5164 153.092 17.5164C154.158 17.5164 155.02 18.3747 155.02 19.437V20.0427C155.578 18.7293 156.491 17.5164 157.635 17.5164C158.826 17.5164 159.511 18.2994 159.511 19.3868C159.511 20.3973 158.851 21.0045 158.065 21.1818C156.111 21.6383 155.02 23.1291 155.02 25.8593V29.4494C155.02 30.5117 154.158 31.3716 153.092 31.3716C152.581 31.3723 152.092 31.1705 151.73 30.8103C151.369 30.4502 151.165 29.9612 151.164 29.4509V19.437ZM160.678 14.532C160.678 13.4682 161.541 12.6113 162.606 12.6113C163.673 12.6113 164.536 13.4682 164.536 14.532V29.4494C164.536 30.5117 163.673 31.3716 162.606 31.3716C162.096 31.3723 161.606 31.1705 161.245 30.8103C160.883 30.4502 160.679 29.9612 160.678 29.4509V14.5305V14.532ZM167.606 34.9868C167.047 34.7859 166.387 34.3293 166.387 33.3956C166.383 33.1922 166.419 32.99 166.493 32.8007C166.568 32.6114 166.679 32.4388 166.821 32.2928C166.962 32.1468 167.132 32.0305 167.319 31.9504C167.506 31.8704 167.707 31.8283 167.91 31.8266C168.214 31.8266 168.392 31.8768 168.544 31.9285C168.873 32.029 169.077 32.0807 169.357 32.0807C170.041 32.0807 170.372 31.9537 170.726 31.2711L170.853 30.9667L166.211 20.2466C166.095 19.9643 166.026 19.6648 166.007 19.3602C166.007 18.2743 166.845 17.5164 167.91 17.5164C168.873 17.5164 169.432 18.0467 169.761 18.9568L172.706 26.8462L175.547 18.9819C175.851 18.1738 176.408 17.5164 177.4 17.5164C178.388 17.5164 179.224 18.2743 179.224 19.2863C179.224 19.5892 179.124 20.0191 179.048 20.1964L174.303 31.5489C173.161 34.3042 172.02 35.3414 169.711 35.3414C168.848 35.3414 168.24 35.2158 167.606 34.9868Z" fill="#4C4C4C"/>
<path fill-rule="evenodd" clip-rule="evenodd" d="M42.1448 24.4277C42.1448 36.0255 32.71 45.4277 21.0724 45.4277C9.43478 45.4277 0 36.0255 0 24.4277C0 12.83 9.43478 3.42773 21.0724 3.42773C32.71 3.42773 42.1448 12.83 42.1448 24.4277Z" fill="#15C39A"/>
<path fill-rule="evenodd" clip-rule="evenodd" d="M23.8267 28.963C23.9508 29.65 24.5994 30.1213 25.3011 30.1213H27.5084L28.7879 29.944C26.7402 32.9372 23.1855 34.3142 19.2984 33.707C16.1338 33.212 13.4153 31.0772 12.2674 28.0972C9.66417 21.3321 14.6209 14.8743 21.0816 14.8743C24.4487 14.8743 27.4006 16.8378 29.0937 19.2091C29.5428 19.8547 30.4352 20.0911 31.0838 19.6434C31.3784 19.4439 31.5862 19.1399 31.6652 18.7929C31.7442 18.4459 31.6885 18.0819 31.5093 17.7745C30.3093 15.9057 28.6285 14.3943 26.6433 13.3987C24.6581 12.4031 22.4416 11.9601 20.2262 12.116C14.0654 12.5282 9.07912 17.5529 8.72454 23.696C8.31381 30.8467 14.0033 36.6825 21.0816 36.6825C22.8465 36.6898 24.5922 36.3162 26.1996 35.5872C27.8069 34.8583 29.238 33.7911 30.3953 32.4585L30.1264 33.9566V35.31C30.1264 36.0073 30.5992 36.6544 31.2891 36.7785C31.4951 36.8173 31.7071 36.8103 31.9101 36.758C32.1131 36.7057 32.3021 36.6094 32.4636 36.4758C32.6252 36.3423 32.7554 36.1749 32.8451 35.9854C32.9347 35.7959 32.9815 35.589 32.9822 35.3794V27.2743H25.2302C25.0205 27.274 24.8133 27.3199 24.6234 27.4088C24.4335 27.4977 24.2655 27.6274 24.1315 27.7887C23.9975 27.95 23.9006 28.1388 23.848 28.3418C23.7953 28.5448 23.788 28.7569 23.8267 28.963Z" fill="white"/>
</svg>
