<svg width="125" height="48" viewBox="0 0 125 48" fill="none" xmlns="http://www.w3.org/2000/svg">
<path d="M6.42617 10.2853C3.8706 11.3551 1.06117 14.3772 0.173863 18.1706C-0.949845 22.977 3.72643 25.0094 4.10998 24.343C4.56141 23.56 3.27204 23.2952 3.00664 20.8014C2.66362 17.5805 4.16102 13.9814 6.04556 12.4023C6.39586 12.1089 6.37919 12.5172 6.37919 13.2726C6.37919 14.6233 6.30456 26.7485 6.30456 29.2791C6.30456 32.7032 6.16313 33.7845 5.90912 34.853C5.65176 35.9357 5.238 36.6673 5.55153 36.9492C5.90181 37.2644 7.3974 36.5146 8.26322 35.3062C9.30147 33.8568 9.6649 32.1163 9.73015 30.2261C9.80896 27.9476 9.8056 24.3319 9.80896 22.2696C9.81212 20.3782 9.84082 14.8396 9.77581 11.51C9.75987 10.6933 7.49492 9.83649 6.42605 10.2843L6.42617 10.2853ZM97.1745 26.3101C97.0921 28.0903 96.698 29.4817 96.209 30.4631C95.2622 32.3631 93.2976 32.9531 92.4635 30.2218C92.0089 28.7329 91.9877 26.2464 92.3145 24.1687C92.6472 22.0522 93.5761 20.4537 95.1143 20.5978C96.6314 20.7403 97.3416 22.6954 97.1745 26.3101ZM71.5978 37.3545C71.5772 40.3123 71.1117 42.9057 70.1135 43.6589C68.6976 44.727 66.7946 43.9258 67.1887 41.7675C67.5373 39.8576 69.1862 37.907 71.6018 35.5238C71.6018 35.5238 71.6068 36.0673 71.5978 37.3545ZM71.2111 26.2929C71.1246 27.9142 70.7042 29.543 70.2457 30.4633C69.2991 32.3633 67.3202 32.9573 66.5002 30.222C65.9395 28.3531 66.0737 25.9343 66.3512 24.4102C66.7112 22.4328 67.5838 20.5983 69.1509 20.5983C70.6746 20.5983 71.4259 22.2698 71.2111 26.2929ZM56.3946 26.2681C56.3017 27.9853 55.9667 29.4207 55.4291 30.4633C54.4564 32.3503 52.5322 32.9487 51.6836 30.222C51.0718 28.2558 51.2801 25.5749 51.5346 24.1267C51.9122 21.9776 52.858 20.4539 54.3343 20.5983C55.8509 20.7464 56.5881 22.6954 56.3946 26.2681ZM124.296 28.2738C123.925 28.2738 123.756 28.656 123.616 29.2992C123.13 31.5357 122.62 32.0407 121.962 32.0407C121.227 32.0407 120.566 30.9333 120.396 28.7164C120.263 26.9732 120.284 23.764 120.455 20.5716C120.49 19.9157 120.309 19.2667 118.55 18.6276C117.793 18.3527 116.692 17.9479 116.144 19.2705C114.596 23.0069 113.991 25.9734 113.848 27.1785C113.841 27.2408 113.764 27.2536 113.751 27.1078C113.66 26.1427 113.457 24.3888 113.432 20.7038C113.427 19.9848 113.275 19.3728 112.481 18.8718C111.966 18.5467 110.403 17.9717 109.84 18.6558C109.352 19.2152 108.787 20.7208 108.2 22.5055C107.723 23.956 107.391 24.9373 107.391 24.9373C107.391 24.9373 107.397 21.0235 107.403 19.5389C107.405 18.9788 107.021 18.7922 106.905 18.7583C106.384 18.607 105.356 18.3542 104.92 18.3542C104.382 18.3542 104.251 18.6549 104.251 19.0931C104.251 19.1505 104.166 24.2461 104.166 27.8091C104.166 27.9639 104.166 28.1328 104.167 28.3121C103.87 29.9498 102.905 32.1728 101.855 32.1728C100.804 32.1728 100.309 31.2434 100.309 26.9957C100.309 24.5177 100.383 23.4402 100.419 21.6479C100.441 20.6156 100.482 19.8229 100.479 19.643C100.472 19.0913 99.5177 18.8133 99.0738 18.7105C98.6279 18.6069 98.2403 18.5667 97.9377 18.584C97.5094 18.6081 97.2063 18.8891 97.2063 19.2756C97.2063 19.4828 97.2087 19.8769 97.2087 19.8769C96.657 19.01 95.7697 18.4066 95.1794 18.2318C93.5893 17.7595 91.9301 18.1779 90.6786 19.9292C89.6839 21.3207 89.0843 22.8967 88.8483 25.161C88.6757 26.8163 88.7321 28.495 89.0387 29.9146C88.6682 31.5165 87.9803 32.1728 87.2271 32.1728C86.1336 32.1728 85.3409 30.388 85.4329 27.3013C85.4937 25.271 85.8999 23.8462 86.344 21.7849C86.5333 20.9063 86.3795 20.4462 85.9936 20.0053C85.6397 19.601 84.8857 19.3944 83.8017 19.6485C83.0295 19.8296 81.9256 20.0244 80.9155 20.1741C80.9155 20.1741 80.9765 19.9309 81.0265 19.5022C81.2892 17.2539 78.8461 17.4363 78.0666 18.1544C77.6013 18.5831 77.2846 19.0888 77.1644 19.998C76.9737 21.4407 78.1504 22.1212 78.1504 22.1212C77.7644 23.8885 76.818 26.1971 75.841 27.8662C75.3177 28.7604 74.9173 29.4231 74.4005 30.1275C74.3986 29.8652 74.3972 29.6029 74.3963 29.3419C74.3844 25.6264 74.4339 22.7022 74.4557 21.6483C74.477 20.616 74.5184 19.8443 74.516 19.6644C74.5102 19.2609 74.2746 19.1085 73.7845 18.9156C73.3511 18.7449 72.8387 18.6268 72.3073 18.5856C71.6364 18.5333 71.2323 18.8891 71.2428 19.3098C71.2448 19.3893 71.2448 19.8771 71.2448 19.8771C70.6931 19.0101 69.8058 18.4068 69.2155 18.2319C67.6254 17.7599 65.9662 18.1783 64.7147 19.9294C63.7202 21.3209 63.0689 23.2735 62.8844 25.1439C62.7125 26.8872 62.7442 28.3686 62.9785 29.6165C62.7257 30.8662 61.9988 32.173 61.1768 32.173C60.126 32.173 59.5281 31.2436 59.5281 26.9958C59.5281 24.5178 59.6025 23.4403 59.6391 21.6483C59.6603 20.616 59.7013 19.823 59.699 19.6433C59.6912 19.0917 58.7373 18.8136 58.2934 18.7107C57.829 18.6033 57.428 18.5638 57.1201 18.5864C56.7138 18.6167 56.4282 18.9805 56.4282 19.2518V19.8771C55.8766 19.0101 54.9893 18.4068 54.3989 18.2319C52.8088 17.7599 51.1589 18.185 49.8981 19.9294C49.076 21.0668 48.4104 22.3277 48.0678 25.1191C47.9688 25.9258 47.9251 26.6811 47.9308 27.3872C47.6029 29.3922 46.1549 31.703 44.9704 31.703C44.2773 31.703 43.6172 30.3587 43.6172 27.4935C43.6172 23.677 43.8534 18.243 43.8934 17.7193C43.8934 17.7193 45.3899 17.6939 45.6797 17.6905C46.4262 17.6823 47.1023 17.7 48.0966 17.6491C48.5953 17.6237 49.0757 15.834 48.561 15.6125C48.3278 15.5122 46.6791 15.4244 46.0255 15.4105C45.4759 15.398 43.9459 15.2848 43.9459 15.2848C43.9459 15.2848 44.0831 11.678 44.1151 11.297C44.1422 10.9794 43.7313 10.8159 43.4957 10.7167C42.9228 10.4744 42.4103 10.3584 41.8027 10.2332C40.9633 10.06 40.5825 10.2294 40.5081 10.9378C40.3961 12.013 40.3381 15.1623 40.3381 15.1623C39.7221 15.1623 37.6179 15.0419 37.0018 15.0419C36.4293 15.0419 35.8114 17.5039 36.6029 17.5342C37.5135 17.5695 39.1004 17.6 40.1525 17.6317C40.1525 17.6317 40.1056 23.1551 40.1056 24.8604C40.1056 25.0418 40.1072 25.2165 40.1075 25.3861C39.5285 28.404 37.4891 30.0342 37.4891 30.0342C37.9271 28.0377 37.0324 26.5384 35.4209 25.2692C34.8272 24.8015 33.6551 23.9161 32.3437 22.9459C32.3437 22.9459 33.1033 22.1973 33.7768 20.6913C34.2541 19.6245 34.2747 18.4036 33.1033 18.1344C31.1677 17.6893 29.5717 19.1108 29.0957 20.6284C28.7269 21.8041 28.9236 22.6764 29.6461 23.5826C29.6989 23.6489 29.756 23.7165 29.8151 23.7846C29.3781 24.6268 28.7779 25.7606 28.2695 26.6399C26.8585 29.0811 25.7926 31.0121 24.987 31.0121C24.3431 31.0121 24.3517 29.0516 24.3517 27.2161C24.3517 25.6338 24.4686 23.2548 24.5619 20.7917C24.5928 19.9771 24.1855 19.5131 23.5027 19.0928C23.0878 18.8374 22.2024 18.3353 21.6896 18.3353C20.9221 18.3353 18.7076 18.4398 16.6153 24.4922C16.3516 25.2551 15.8335 26.6451 15.8335 26.6451L15.8781 19.3668C15.8781 19.1962 15.7872 19.0312 15.5791 18.9183C15.2266 18.7269 14.2848 18.3353 13.4475 18.3353C13.0485 18.3353 12.8494 18.5209 12.8494 18.8908L12.7764 30.2778C12.7764 31.143 12.7989 32.1523 12.8845 32.5937C12.9697 33.0357 13.1078 33.3953 13.2788 33.6093C13.4495 33.8228 13.647 33.9857 13.9727 34.0529C14.2758 34.1153 15.9355 34.3284 16.0218 33.6941C16.1251 32.934 16.1291 32.1119 17.0006 29.0456C18.3574 24.2718 20.1263 21.9426 20.9579 21.1154C21.1033 20.9708 21.2694 20.9621 21.2614 21.1988C21.2259 22.2454 21.101 24.8606 21.017 27.0825C20.7917 33.0284 21.8734 34.1304 23.4191 34.1304C24.6017 34.1304 26.2687 32.9554 28.0557 29.981C29.1698 28.1274 30.2515 26.3099 31.0286 25C31.5702 25.5013 32.178 26.041 32.7854 26.6174C34.1968 27.957 34.6602 29.2299 34.3528 30.4375C34.1176 31.3607 33.232 32.312 31.6558 31.3873C31.1964 31.1176 31.0003 30.9091 30.5383 30.605C30.2901 30.4416 29.9112 30.3928 29.684 30.5639C29.0939 31.0089 28.7564 31.5748 28.5637 32.2755C28.3762 32.9573 29.059 33.3177 29.7668 33.6329C30.3763 33.9043 31.6862 34.1501 32.5216 34.1781C35.7766 34.287 38.3841 32.6065 40.1992 28.2717C40.5242 32.0154 41.907 34.1338 44.3096 34.1338C45.9159 34.1338 47.5263 32.0575 48.2306 30.015C48.4328 30.8476 48.732 31.5716 49.1185 32.1839C50.9698 35.1171 54.5613 34.4858 56.3653 31.995C56.9231 31.2254 57.008 30.9488 57.008 30.9488C57.2711 33.3007 59.1651 34.1225 60.2495 34.1225C61.464 34.1225 62.718 33.5483 63.5969 31.5696C63.6999 31.7844 63.8124 31.9894 63.9351 32.1838C65.7864 35.1171 69.3779 34.4857 71.1819 31.995C71.267 31.8781 71.3408 31.7721 71.4053 31.677L71.4582 33.2218C71.4582 33.2218 70.4291 34.1659 69.7973 34.7451C67.0169 37.296 64.9027 39.2314 64.7472 41.4852C64.5475 44.3589 66.8782 45.427 68.6414 45.5669C70.514 45.7155 72.1175 44.6811 73.1032 43.2335C73.9701 41.9593 74.5375 39.2169 74.4959 36.5084C74.4793 35.4237 74.452 34.0446 74.4305 32.5664C75.4078 31.4315 76.5088 29.9971 77.5227 28.3182C78.6275 26.4884 79.8115 24.0313 80.4178 22.119C80.4178 22.119 81.4466 22.1279 82.5445 22.056C82.8956 22.0331 82.9965 22.1047 82.9316 22.3622C82.8532 22.6732 81.5445 27.7209 82.7389 31.0835C83.5564 33.3854 85.3993 34.126 86.4919 34.126C87.771 34.126 88.9945 33.16 89.6502 31.7257C89.7292 31.8856 89.8118 32.0404 89.902 32.1832C91.7533 35.1164 95.3322 34.4813 97.1488 31.9943C97.5588 31.4332 97.7915 30.9481 97.7915 30.9481C98.1813 33.3822 100.074 34.1342 101.158 34.1342C102.288 34.1342 103.36 33.6711 104.229 31.6135C104.266 32.5195 104.323 33.2603 104.413 33.4939C104.468 33.6367 104.789 33.816 105.023 33.9026C106.056 34.2857 107.11 34.1045 107.499 34.0257C107.769 33.9711 107.98 33.7544 108.009 33.1949C108.085 31.7259 108.038 29.2578 108.483 27.4235C109.231 24.345 109.928 23.1509 110.259 22.5597C110.444 22.2285 110.653 22.1739 110.661 22.5244C110.676 23.2337 110.712 25.3166 111.001 28.1151C111.214 30.1733 111.498 31.3899 111.716 31.7749C112.339 32.8759 113.109 32.9281 113.736 32.9281C114.134 32.9281 114.968 32.8179 114.894 32.1172C114.857 31.7757 114.921 29.6651 115.658 26.6322C116.139 24.6517 116.942 22.8621 117.231 22.2079C117.338 21.9666 117.387 22.1568 117.386 22.1939C117.325 23.5578 117.188 28.0191 117.744 30.4591C118.497 33.7645 120.676 34.1344 121.435 34.1344C123.056 34.1344 124.382 32.9014 124.828 29.6569C124.936 28.8761 124.777 28.2732 124.299 28.2732" fill="#262626"/>
</svg>
