<svg width="123" height="48" viewBox="0 0 123 48" fill="none" xmlns="http://www.w3.org/2000/svg">
<path d="M52.2211 18.3362H56.8903L50.2551 35.0471H46.0774L39.3193 18.3362H44.1114L48.1663 29.5177L52.2211 18.3362ZM58.3648 34.9242H62.9111V18.3362H58.3648V34.9242ZM65 29.5177H69.5463C69.6692 30.6236 70.4064 31.7295 72.3724 31.7295C74.0927 31.7295 74.9528 31.1151 74.9528 30.255C74.9528 27.4289 65.7372 30.1321 65.7372 23.4969C65.7372 20.4251 68.3176 17.9676 72.3724 17.9676C77.4103 17.9676 79.1305 21.1623 79.2534 23.6198H74.9528C74.8299 22.5139 74.0927 21.6538 72.4953 21.6538C71.0208 21.6538 70.1607 22.3911 70.1607 23.2512C70.1607 26.0773 79.3762 23.2512 79.3762 30.1321C79.3762 33.0811 76.7959 35.4157 72.3724 35.4157C67.0888 35.2928 65.2457 32.7125 65 29.5177ZM81.588 34.9242H86.1343V18.3362H81.588V34.9242ZM96.8243 31.3609C99.1589 31.3609 101.002 29.6406 101.002 26.5688C101.002 23.6198 99.1589 21.7767 96.8243 21.7767C94.4897 21.7767 92.6466 23.4969 92.6466 26.5688C92.6466 29.6406 94.4897 31.3609 96.8243 31.3609ZM88.1003 26.5688C88.1003 21.7767 91.5408 17.8447 96.8243 17.8447C102.108 17.8447 105.548 21.7767 105.548 26.5688C105.548 31.3609 102.108 35.2928 96.8243 35.2928C91.5408 35.2928 88.1003 31.3609 88.1003 26.5688ZM111.815 20.3022C112.552 18.8277 114.272 17.8447 116.73 17.8447C120.785 17.8447 122.874 20.548 122.874 24.4799V34.9242H118.327V24.9714C118.327 23.0054 117.467 21.6538 115.501 21.6538C113.289 21.6538 112.061 23.0054 112.061 25.34V34.9242H107.514V18.3362H111.815V20.3022Z" fill="#FF3366"/>
<path d="M0 45.0001H41.9V3.1001H0V45.0001Z" fill="#FF3366"/>
<path d="M14.7448 16.248C16.0964 16.248 17.2022 15.265 17.2022 13.7905C17.2022 12.4389 16.0964 11.333 14.7448 11.333C13.3932 11.333 12.2873 12.316 12.2873 13.7905C12.2873 15.265 13.3932 16.248 14.7448 16.248ZM9.58407 29.2726C9.46119 29.887 9.33832 30.5013 9.33832 31.1157C9.33832 33.2046 10.4442 34.6791 12.9017 34.6791C14.9905 34.6791 16.5879 33.4503 17.8166 31.4843L17.0794 34.4333H21.1342L23.4688 25.2178C24.0832 22.8832 25.1891 21.6544 26.9093 21.6544C28.2609 21.6544 29.121 22.5145 29.121 23.8661C29.121 24.2348 29.121 24.7263 28.9981 25.2178L27.7694 29.5183C27.6465 30.1327 27.5237 30.7471 27.5237 31.3615C27.5237 33.3274 28.7524 34.8019 31.2099 34.8019C33.2987 34.8019 35.019 33.4503 36.002 30.1327L34.4046 29.5183C33.6674 31.7301 32.9301 32.0987 32.4386 32.0987C31.9471 32.0987 31.5785 31.7301 31.5785 30.9928C31.5785 30.6242 31.7014 30.2556 31.7014 29.887L32.8072 25.7093C33.053 24.7263 33.1759 23.8661 33.1759 23.1289C33.1759 20.0571 31.3327 18.4597 28.9981 18.4597C26.9093 18.4597 24.6976 20.4257 23.5917 22.3917L24.3289 18.8283H18.1852L17.3251 22.023H20.1512L18.431 28.7811C17.0794 31.853 14.499 31.9758 14.1304 31.853C13.6389 31.7301 13.2703 31.4843 13.2703 30.87C13.2703 30.5013 13.3932 29.887 13.516 29.2726L16.2193 18.5826H9.46119L8.60107 21.7773H11.4272L9.58407 29.2726Z" fill="white"/>
</svg>
