<svg width="151" height="48" viewBox="0 0 151 48" fill="none" xmlns="http://www.w3.org/2000/svg">
<path fill-rule="evenodd" clip-rule="evenodd" d="M11.6605 29.9924L4.96996 23.2712C3.83309 22.129 1.98988 22.129 0.852648 23.2712C-0.284216 24.4132 -0.284216 26.2648 0.852648 27.4072L9.60185 36.1967C10.7387 37.3387 12.5824 37.3387 13.7192 36.1967L21.9542 27.9235L17.8372 23.7873L11.6605 29.9924Z" fill="#16B8A2"/>
<path fill-rule="evenodd" clip-rule="evenodd" d="M36.879 17.0678L24.0136 29.9922L11.1467 17.0663C10.0095 15.9239 8.16627 15.9239 7.0294 17.0663C5.89254 18.2084 5.89254 20.0601 7.0294 21.2025L21.9549 36.1965C23.0918 37.3386 24.9351 37.3386 26.0722 36.1965L40.9964 21.204C42.1332 20.0615 42.1332 18.2099 40.9964 17.0678C39.8591 15.9257 38.0158 15.9257 36.879 17.0678Z" fill="#FFB41F"/>
<path fill-rule="evenodd" clip-rule="evenodd" d="M47.1726 27.4087L38.4248 36.1966C37.288 37.3387 35.4448 37.3387 34.3079 36.1966L13.2057 14.9976C12.0688 13.8555 12.0688 12.0038 13.2057 10.8617C14.3429 9.71927 16.1861 9.71927 17.3229 10.8617L36.3662 29.9923L43.0553 23.2725C44.1925 22.1305 46.0357 22.1305 47.1726 23.2725C48.3094 24.415 48.3094 26.2667 47.1726 27.4087Z" fill="#F56358"/>
<path fill-rule="evenodd" clip-rule="evenodd" d="M34.8196 10.8629C33.6827 9.72083 31.8396 9.72083 30.7023 10.8629L17.8369 23.7874L21.9543 27.9236L34.8196 14.9991C35.9566 13.8567 35.9566 12.005 34.8196 10.8629Z" fill="#16B8A2"/>
<path fill-rule="evenodd" clip-rule="evenodd" d="M63.0967 12.883H59.5166V34.0098H72.6342V30.8193H63.0967V12.883ZM80.3826 19.2355C82.5594 19.2355 84.02 20.1265 84.822 21.2188L84.9938 19.5229H88.0871V34.0098H84.9938L84.822 32.314C84.02 33.4062 82.5594 34.2972 80.3826 34.2972C76.4587 34.2972 73.7951 31.1067 73.7951 26.7663C73.7951 22.3972 76.4587 19.2355 80.3826 19.2355ZM81.1273 22.2823C78.8932 22.2823 77.2893 24.0357 77.2893 26.7663C77.2893 29.4971 78.8932 31.2505 81.1273 31.2505C82.8457 31.2505 83.8769 30.3306 84.6501 29.0946V24.4381C83.8769 23.2022 82.8457 22.2823 81.1273 22.2823ZM96.752 14.6652H93.3151V19.5229H90.5941V22.4548H93.3151V28.8935C93.3151 32.4002 95.4058 34.2972 98.6996 34.2972C100.132 34.2972 101.191 33.8949 101.907 33.435L100.991 30.7331C100.561 30.9918 99.9311 31.1929 99.0146 31.1929C97.6684 31.1929 96.752 30.3306 96.752 28.8646V22.4548H101.105V19.5229H96.752V14.6652ZM108.596 14.6652H105.159V19.5229H102.438V22.4548H105.159V28.8935C105.159 32.4002 107.25 34.2972 110.544 34.2972C111.976 34.2972 113.035 33.8949 113.751 33.435L112.835 30.7331C112.405 30.9918 111.775 31.1929 110.859 31.1929C109.512 31.1929 108.596 30.3306 108.596 28.8646V22.4548H112.95V19.5229H108.596V14.6652ZM119.495 19.5229H116.058V34.0098H119.495V19.5229ZM117.776 12.7681C116.573 12.7681 115.657 13.6591 115.657 14.8951C115.657 16.1311 116.573 17.0222 117.776 17.0222C119.008 17.0222 119.924 16.1311 119.924 14.8951C119.924 13.6591 119.008 12.7681 117.776 12.7681ZM129.879 19.2355C125.439 19.2355 122.489 22.3972 122.489 26.7663C122.489 31.1067 125.468 34.2972 129.907 34.2972C132.513 34.2972 134.489 33.1188 135.778 31.1067L133.315 29.1809C132.627 30.3306 131.511 31.2792 129.936 31.2792C127.387 31.2792 125.983 29.2958 125.983 26.7663C125.983 24.2081 127.329 22.2536 129.907 22.2536C131.511 22.2536 132.57 23.1733 133.229 24.3232L135.721 22.4261C134.432 20.414 132.513 19.2355 129.879 19.2355ZM144.185 19.2355C148.625 19.2355 150.802 22.5697 150.802 26.6227V27.8299H140.605C140.691 30.1294 142.066 31.3941 144.471 31.3941C146.161 31.3941 147.393 30.6468 148.052 29.727L150.429 31.6816C148.996 33.4062 147.107 34.2972 144.443 34.2972C139.976 34.2972 137.111 31.1354 137.111 26.7951C137.111 22.4261 140.033 19.2355 144.185 19.2355ZM144.128 21.9949C142.095 21.9949 140.719 23.3458 140.605 25.3579H147.422C147.336 23.3746 146.19 21.9949 144.128 21.9949Z" fill="#0E0E29"/>
</svg>
