<svg width="128" height="48" viewBox="0 0 128 48" fill="none" xmlns="http://www.w3.org/2000/svg">
<path fill-rule="evenodd" clip-rule="evenodd" d="M99.5917 31.6174C102.891 31.6174 105.574 28.9874 105.574 25.7548C105.574 22.5221 102.891 19.8921 99.5917 19.8921C96.2933 19.8921 93.6095 22.5221 93.6095 25.7548C93.6095 28.9874 96.2933 31.6174 99.5917 31.6174ZM105.574 11.1851H105.736H108.408V34.4147H105.574V32.0953C103.938 33.581 101.829 34.3948 99.5917 34.3948C94.7307 34.3948 90.7757 30.5189 90.7757 25.7548C90.7757 20.9905 94.7307 17.1147 99.5917 17.1147C101.829 17.1147 103.938 17.9284 105.574 19.4142V11.1851ZM40.8164 31.5151C44.115 31.5151 46.7986 28.8851 46.7986 25.6524C46.7986 22.4198 44.115 19.7899 40.8164 19.7899C37.5177 19.7899 34.8341 22.4198 34.8341 25.6524C34.8341 28.8851 37.5177 31.5151 40.8164 31.5151ZM34.8341 19.3122C36.4697 17.8264 38.5793 17.0125 40.8164 17.0125C45.6776 17.0125 49.6327 20.8884 49.6327 25.6524C49.6327 30.4166 45.6776 34.2925 40.8164 34.2925C38.5793 34.2925 36.4697 33.4788 34.8341 31.9928V40.2221H32V16.9925H34.8341V19.3122ZM55.0402 24.3035C55.678 21.678 58.0547 19.7929 60.7656 19.7929C63.4412 19.7929 65.6824 21.6378 66.2797 24.3035H55.0402ZM60.7656 16.9925C55.9772 16.9925 52.0817 20.9004 52.0817 25.7036C52.0817 30.5069 55.9772 34.4147 60.7656 34.4147C63.4471 34.4147 65.9081 33.4076 67.5188 31.6518L68.3556 30.7391L68.4634 30.6213L68.3461 30.5127L66.5268 28.8341L66.4095 28.7256L66.301 28.8434L65.4643 29.7562C64.397 30.9197 62.6406 31.6145 60.7656 31.6145C58.0547 31.6145 55.6782 29.7293 55.0402 27.1037H69.2243V25.7036C69.2243 20.8188 65.5087 16.9925 60.7656 16.9925ZM125.166 25.7036C125.166 28.9628 122.482 31.6144 119.183 31.6144C115.885 31.6144 113.201 28.9628 113.201 25.7036C113.201 22.4443 115.885 19.7928 119.183 19.7928C122.482 19.7928 125.166 22.4443 125.166 25.7036ZM119.183 16.9925C114.322 16.9925 110.367 20.9003 110.367 25.7036C110.367 30.5069 114.322 34.4147 119.183 34.4147C124.045 34.4147 128 30.5069 128 25.7036C128 20.9003 124.045 16.9925 119.183 16.9925ZM79.7547 16.9925C77.7855 16.9925 75.9093 17.7424 74.4326 19.1121V16.9925H71.6735V34.4147H74.4326V25.5238C74.4326 22.3518 76.8201 19.771 79.7547 19.771C82.6898 19.771 85.0779 22.3518 85.0779 25.5238V34.4147H87.8364V25.5238C87.8364 20.8197 84.211 16.9925 79.7547 16.9925Z" fill="#1A2022"/>
<path fill-rule="evenodd" clip-rule="evenodd" d="M0 27.7777H13.3333V40.8148L26.6667 27.7777V14.7407H13.3333L0 27.7777Z" fill="#FF4876"/>
</svg>
