<svg width="171" height="48" viewBox="0 0 171 48" fill="none" xmlns="http://www.w3.org/2000/svg">
<path fill-rule="evenodd" clip-rule="evenodd" d="M63.5316 21.8291L60.427 21.1555C58.8734 20.8188 58.0182 19.8605 58.0182 18.4564C58.0182 16.6719 59.6025 15.3257 61.7039 15.3257C64.6118 15.3257 65.4703 17.465 65.6648 18.1215C65.7265 18.3398 65.8783 18.5248 66.0823 18.6267C66.2815 18.7287 66.5044 18.7439 66.7179 18.6694L68.3544 18.0921C68.5509 18.0224 68.7134 17.8802 68.8086 17.6947C68.9038 17.5092 68.9246 17.2944 68.8668 17.0941C68.4446 15.6093 66.8934 12.156 61.6328 12.156C57.7383 12.156 54.451 15.135 54.451 18.6618C54.451 21.693 56.44 23.932 59.7733 24.6577L62.7333 25.3029C64.515 25.6776 65.5794 26.7639 65.5794 28.2059C65.5794 30.0465 64.0662 31.1897 61.628 31.1897C58.7629 31.1897 57.3825 29.3112 57.0457 27.5513C57.0244 27.4379 56.9793 27.3302 56.9132 27.2355C56.8472 27.1408 56.7618 27.0612 56.6627 27.002C56.5635 26.9428 56.453 26.9054 56.3383 26.8921C56.2236 26.8789 56.1074 26.8901 55.9974 26.9252L54.1996 27.4992C54.0106 27.5567 53.8495 27.6819 53.7471 27.8509C53.6447 28.0198 53.6082 28.2205 53.6446 28.4147C54.2043 31.332 56.6013 34.4438 61.6612 34.4438C65.9371 34.4438 69.1618 31.6593 69.1618 27.9688C69.1618 24.8522 67.105 22.6133 63.5169 21.8211L63.5316 21.8291ZM81.8993 24.6672C81.9088 24.7289 81.8803 24.7763 81.8613 24.7953C81.8456 24.8147 81.8258 24.8304 81.8032 24.841C81.7806 24.8517 81.7559 24.8572 81.7309 24.857H75.1373C75.1111 24.857 75.0852 24.851 75.0616 24.8395C75.038 24.828 75.0173 24.8112 75.0012 24.7906C74.9861 24.7732 74.9753 24.7526 74.9696 24.7304C74.9638 24.7082 74.9633 24.6849 74.968 24.6625C75.2692 23.2878 76.448 21.9017 78.4023 21.9017C80.3221 21.9017 81.628 22.9311 81.896 24.6592L81.8993 24.6672ZM78.3767 18.8231C74.9044 18.8231 71.3135 21.7262 71.3135 26.5884C71.3135 28.9317 72.082 30.9335 73.5382 32.3708C74.8873 33.7038 76.7307 34.439 78.7277 34.439C81.702 34.439 84.1117 32.885 85.1743 30.2836C85.2597 30.0702 85.2549 29.833 85.1629 29.6243C85.1175 29.523 85.0518 29.4322 84.9697 29.3574C84.8877 29.2827 84.7912 29.2256 84.6862 29.1898L83.2346 28.6869C83.0404 28.6202 82.8281 28.6292 82.6402 28.7121C82.4523 28.7951 82.3026 28.9458 82.2209 29.1343C81.5948 30.6095 80.4183 31.3543 78.7249 31.3543C76.6757 31.3543 75.115 29.9739 74.8446 27.9185C74.8412 27.8955 74.8431 27.872 74.8501 27.8498C74.857 27.8276 74.869 27.8073 74.8849 27.7904C74.9039 27.7667 74.9466 27.7287 75.013 27.7287H84.6349C85.0666 27.7287 85.4271 27.3919 85.4508 26.9622C85.4603 26.8246 85.4651 26.6728 85.4651 26.5229C85.4651 21.7698 82.747 18.8179 78.3734 18.8179L78.3767 18.8231ZM94.7611 30.3595C92.4509 30.3595 91.0136 28.7562 91.0136 26.1757C91.0136 23.6331 92.4841 21.9899 94.7611 21.9899C96.9668 21.9899 98.4487 23.6692 98.4487 26.1738C98.4487 28.6756 96.9659 30.3576 94.7606 30.3576L94.7611 30.3595ZM100.918 19.2595H99.1773C98.7267 19.2595 98.3591 19.6262 98.3591 20.0991C98.3589 20.1326 98.3489 20.1653 98.3304 20.1931C98.3118 20.2209 98.2855 20.2427 98.2547 20.2557C98.2215 20.2699 98.1551 20.2889 98.0953 20.232C97.1988 19.4123 95.937 18.9963 94.3479 18.9963C90.4093 18.9963 87.5503 22.0179 87.5503 26.1781C87.5503 30.3202 90.4093 33.3267 94.3479 33.3267C95.8042 33.3267 97.1229 32.8485 98.0621 31.9804C98.1238 31.9235 98.1902 31.9377 98.2234 31.952C98.2471 31.9614 98.3278 32.0041 98.3278 32.1085V32.7062C98.3278 35.5998 97.0612 36.9493 94.3479 36.9493C92.626 36.9493 91.2741 35.882 90.9088 34.2322C90.8614 34.0187 90.7333 33.8385 90.5483 33.7232C90.3633 33.6079 90.1403 33.5714 89.9269 33.6189L88.2173 34.0126C88.0073 34.0625 87.8254 34.1929 87.7106 34.3757C87.5958 34.5584 87.5573 34.7789 87.6035 34.9898C88.2154 37.9877 90.9268 40.0037 94.3441 40.0037C96.8914 40.0037 98.8315 39.2282 100.112 37.6983C101.17 36.4337 101.73 34.6781 101.73 32.6213V20.0901C101.73 19.6395 101.365 19.2742 100.914 19.2742L100.918 19.2595ZM121.615 18.8497C119.689 18.8497 118.122 19.5764 117.083 20.9558C117.065 20.9814 117.041 21.002 117.013 21.0156C116.985 21.0292 116.955 21.0354 116.924 21.0336C116.901 21.0339 116.878 21.0281 116.858 21.0169C116.838 21.0056 116.821 20.9893 116.81 20.9696C115.938 19.6224 114.434 18.8492 112.683 18.8492C111.29 18.8492 109.951 19.3388 109.007 20.194C108.985 20.2178 108.955 20.2338 108.923 20.2398C108.89 20.2457 108.857 20.2413 108.827 20.2272C108.798 20.2153 108.773 20.1947 108.756 20.1682C108.739 20.1417 108.731 20.1106 108.732 20.0792C108.732 19.6286 108.365 19.2633 107.915 19.2633H106.261C105.81 19.2633 105.445 19.6286 105.445 20.0792V33.1858C105.445 33.6364 105.812 34.0026 106.263 34.0026H108.004C108.454 34.0026 108.82 33.6345 108.82 33.1839V25.1942C108.82 23.2527 110.006 21.9477 111.775 21.9477C114.09 21.9477 114.436 23.7631 114.436 24.8446V33.1981C114.436 33.6487 114.801 34.014 115.252 34.014H117.023C117.473 34.014 117.839 33.6468 117.839 33.1962V25.1658C117.839 23.2702 119.044 21.9468 120.765 21.9468C123.082 21.9468 123.427 23.7636 123.427 24.8451V33.1986C123.427 33.6492 123.792 34.0145 124.242 34.0145H125.983C126.434 34.0145 126.799 33.6473 126.799 33.1967V24.5491C126.799 20.6214 124.195 18.8649 121.615 18.8649V18.8497ZM133.383 24.8684C133.357 24.8683 133.331 24.8623 133.308 24.851C133.284 24.8397 133.264 24.8233 133.247 24.8029C133.233 24.7856 133.223 24.7653 133.217 24.7434C133.212 24.7215 133.211 24.6987 133.216 24.6767C133.518 23.3011 134.696 21.9159 136.652 21.9159C138.571 21.9159 139.878 22.9453 140.145 24.672C140.155 24.7336 140.125 24.7811 140.107 24.8C140.091 24.8177 140.07 24.8318 140.048 24.8416C140.026 24.8514 140.001 24.8566 139.977 24.857H133.383V24.8684ZM136.623 18.8345C133.151 18.8345 129.56 21.7395 129.56 26.5998C129.56 28.9459 130.328 30.9463 131.783 32.385C133.13 33.718 134.971 34.4485 136.972 34.4485C139.942 34.4485 142.352 32.8926 143.419 30.2884C143.504 30.0749 143.5 29.8377 143.405 29.629C143.31 29.4203 143.139 29.2685 142.926 29.1926L141.474 28.6907C141.071 28.5518 140.625 28.7477 140.46 29.1376C139.834 30.609 138.657 31.3576 136.964 31.3576C134.915 31.3576 133.354 29.9744 133.084 27.9185C133.08 27.8952 133.081 27.8714 133.088 27.8488C133.095 27.8262 133.106 27.8053 133.122 27.7876C133.141 27.7638 133.183 27.7283 133.25 27.7283H142.874C143.306 27.7283 143.665 27.3915 143.69 26.9612C143.698 26.8237 143.704 26.6719 143.704 26.5201C143.704 21.767 140.986 18.8117 136.613 18.8117L136.623 18.8345ZM154.065 18.8644C152.593 18.8644 151.301 19.3663 150.332 20.3159C150.31 20.3383 150.282 20.3535 150.251 20.3594C150.22 20.3653 150.188 20.3617 150.159 20.3491C150.129 20.3361 150.103 20.3146 150.086 20.2873C150.068 20.2599 150.059 20.228 150.059 20.1954V20.0911C150.059 19.6404 149.692 19.2752 149.241 19.2752H147.534C147.083 19.2752 146.716 19.6404 146.716 20.0911V33.1953C146.716 33.6459 147.081 34.0126 147.532 34.0126H149.301C149.752 34.0126 150.119 33.6449 150.119 33.1943V25.5443C150.119 23.8328 150.895 22.0037 153.074 22.0037C155.034 22.0037 156.028 23.0867 156.028 25.2222V33.1915C156.028 33.6421 156.393 34.0074 156.844 34.0074H158.613C159.064 34.0074 159.43 33.6374 159.43 33.1867V24.7531C159.43 21.1195 157.372 18.8615 154.065 18.8615L154.065 18.8644ZM167.674 22.4135H169.738C170.188 22.4135 170.554 22.0459 170.554 21.5958V20.0901C170.554 19.6395 170.188 19.2742 169.738 19.2742H167.674C167.653 19.2742 167.631 19.2699 167.611 19.2616C167.591 19.2533 167.572 19.241 167.557 19.2256C167.541 19.2102 167.529 19.1919 167.521 19.1717C167.513 19.1516 167.508 19.13 167.508 19.1082V15.6387C167.508 15.1881 167.14 14.8219 166.69 14.8219H165.153C164.702 14.8219 164.337 15.1881 164.337 15.6387V17.4318C164.337 18.2714 164.016 19.2738 162.493 19.2738H162.231C161.78 19.2738 161.415 19.639 161.415 20.0897V21.5934C161.415 22.044 161.781 22.4093 162.231 22.4093H163.943C164.035 22.4093 164.109 22.4804 164.109 22.5753V29.8188C164.109 32.4942 165.738 34.1544 168.359 34.1544C169.09 34.1544 169.658 34.0501 169.932 33.9884C170.302 33.903 170.562 33.5757 170.562 33.1915V31.7973C170.562 31.6826 170.537 31.5693 170.491 31.4645C170.444 31.3598 170.375 31.2661 170.29 31.1895C170.205 31.1129 170.104 31.0551 169.995 31.0198C169.886 30.9845 169.771 30.9726 169.657 30.9847C169.472 31.0037 169.292 31.0146 169.152 31.0146C167.961 31.0146 167.515 30.5782 167.515 29.4065V22.5758C167.515 22.4847 167.591 22.4107 167.681 22.4107" fill="#43AF79"/>
<path fill-rule="evenodd" clip-rule="evenodd" d="M19.757 41.0001C17.9051 41.0001 16.0759 40.7249 14.3208 40.1809C13.8402 40.0319 13.4384 39.6982 13.2038 39.253C12.9693 38.8079 12.9211 38.2878 13.0699 37.8072C13.3802 36.8015 14.4456 36.2418 15.4441 36.5549C16.8349 36.9865 18.2855 37.2047 19.757 37.2047C26.1954 37.2047 31.7858 33.0731 33.6685 26.9206C33.7414 26.6824 33.8605 26.4609 34.019 26.2687C34.1776 26.0766 34.3725 25.9176 34.5926 25.8008C34.8126 25.6841 35.0536 25.6118 35.3016 25.5883C35.5496 25.5647 35.7998 25.5903 36.0379 25.6636C37.0398 25.9672 37.6033 27.0297 37.2969 28.0306C34.9232 35.7869 27.8742 41.0001 19.757 41.0001Z" fill="#43AF79"/>
<path fill-rule="evenodd" clip-rule="evenodd" d="M4.03197 19.7374C3.73521 19.7375 3.44257 19.6679 3.17758 19.5343C2.91258 19.4007 2.68261 19.2068 2.50615 18.9682C2.32969 18.7296 2.21166 18.4529 2.16154 18.1604C2.11141 17.8679 2.1306 17.5678 2.21755 17.284C4.59172 9.52826 11.6407 4.31885 19.757 4.31885C21.6103 4.31885 23.4394 4.59398 25.1931 5.13854C25.4312 5.21228 25.6523 5.33219 25.844 5.49142C26.0357 5.65064 26.1942 5.84607 26.3103 6.06653C26.4265 6.287 26.4981 6.52819 26.521 6.77632C26.5439 7.02446 26.5178 7.27468 26.444 7.51271C26.3705 7.75087 26.2507 7.9722 26.0915 8.164C25.9323 8.3558 25.7369 8.51432 25.5163 8.63047C25.2958 8.74662 25.0545 8.81813 24.8063 8.84089C24.5581 8.86365 24.3078 8.83722 24.0698 8.76312C22.68 8.33619 21.2284 8.11799 19.757 8.11799C13.3199 8.11799 7.72865 12.2497 5.84592 18.4021C5.72693 18.7904 5.48659 19.1302 5.16019 19.3719C4.8338 19.6135 4.43854 19.7441 4.03245 19.7445" fill="#43AF79"/>
<path fill-rule="evenodd" clip-rule="evenodd" d="M24.6316 29.3765H1.89744C0.849102 29.3765 0 28.5274 0 27.479C0 26.4307 0.849102 25.5816 1.89744 25.5816H24.6316C25.6799 25.5816 26.529 26.4307 26.529 27.479C26.529 28.5274 25.6799 29.3765 24.6316 29.3765Z" fill="#93C8A2"/>
<path fill-rule="evenodd" clip-rule="evenodd" d="M37.6167 19.7365H14.8835C13.8352 19.7365 12.9861 18.8874 12.9861 17.839C12.9861 16.7907 13.8352 15.9416 14.8835 15.9416H37.6167C38.665 15.9416 39.5141 16.7907 39.5141 17.839C39.5141 18.8874 38.665 19.7365 37.6167 19.7365Z" fill="#93C8A2"/>
<path fill-rule="evenodd" clip-rule="evenodd" d="M32.9167 10.6084C32.9167 11.1116 32.7168 11.5942 32.361 11.9501C32.0051 12.3059 31.5225 12.5058 31.0193 12.5058C30.5161 12.5058 30.0334 12.3059 29.6776 11.9501C29.3218 11.5942 29.1218 11.1116 29.1218 10.6084C29.1218 10.1051 29.3218 9.62252 29.6776 9.26668C30.0334 8.91085 30.5161 8.71094 31.0193 8.71094C31.5225 8.71094 32.0051 8.91085 32.361 9.26668C32.7168 9.62252 32.9167 10.1051 32.9167 10.6084ZM10.3918 34.7125C10.3918 35.2157 10.1919 35.6983 9.83604 36.0541C9.4802 36.41 8.99758 36.6099 8.49435 36.6099C7.99111 36.6099 7.50849 36.41 7.15266 36.0541C6.79682 35.6983 6.59691 35.2157 6.59691 34.7125C6.59691 34.2092 6.79682 33.7266 7.15266 33.3708C7.50849 33.0149 7.99111 32.815 8.49435 32.815C8.99758 32.815 9.4802 33.0149 9.83604 33.3708C10.1919 33.7266 10.3918 34.2092 10.3918 34.7125Z" fill="#93C8A2"/>
</svg>
