<svg width="165" height="48" viewBox="0 0 165 48" fill="none" xmlns="http://www.w3.org/2000/svg">
<g clip-path="url(#clip0_23421_3607)">
<path d="M50.825 30.0561C50.35 30.1748 49.7563 30.2936 49.1625 30.2936C47.975 30.2936 47.5 29.5811 47.5 28.3936V23.0498H50.825C51.6562 23.0498 52.4875 22.4561 52.4875 21.5061C52.4875 20.5561 51.775 19.9623 50.825 19.9623H47.5V18.1811C47.5 17.1123 46.6688 16.3998 45.7188 16.3998C44.7688 16.3998 43.9375 17.2311 43.9375 18.1811V28.5123C43.9375 31.4811 45.3625 33.6186 48.6875 33.6186C49.6375 33.6186 50.9438 33.4998 51.8938 33.0248C52.725 32.6686 52.9625 32.0748 52.9625 31.4811C52.9625 30.6498 52.1312 29.8186 50.825 30.0561ZM62.7 19.4873C62.225 19.3686 61.275 19.2498 60.4438 19.2498C57.475 19.2498 55.8125 21.0311 55.8125 23.7623V31.8373C55.8125 32.7873 56.6438 33.6186 57.5938 33.6186C58.5437 33.6186 59.375 32.7873 59.375 31.8373V24.4748C59.375 23.2873 59.85 22.8123 60.6812 22.8123C61.5125 22.8123 61.9875 23.0498 62.7 23.0498C63.7687 23.0498 64.3625 22.0998 64.3625 21.3873C64.2438 20.4373 63.7687 19.8436 62.7 19.4873ZM72.5562 19.2498C69.2312 19.2498 66.8563 21.3873 66.5 24.8311C66.5 25.6623 66.3813 27.0873 66.5 28.1561C66.7375 31.4811 69.1125 33.7373 72.675 33.7373C74.3375 33.7373 75.8812 33.3811 76.8312 32.7873C77.5437 32.3123 77.6625 31.8373 77.6625 31.3623C77.6625 30.4123 76.8312 29.4623 75.4062 29.9373C74.575 30.2936 73.625 30.5311 72.675 30.5311C71.0125 30.5311 69.7063 29.6998 69.7063 28.0373V27.6811H76.475C77.6625 27.6811 78.2563 26.9686 78.2563 25.8998V25.3061C78.375 21.6248 76 19.2498 72.5562 19.2498ZM74.8125 25.3061H69.825C69.825 23.5248 70.6562 22.3373 72.5562 22.3373C74.2187 22.3373 75.1688 23.4061 75.05 24.9498C75.05 25.1873 75.05 25.3061 74.8125 25.3061ZM86.8062 19.2498C83.4812 19.2498 81.1063 21.3873 80.75 24.8311C80.75 25.6623 80.6312 27.0873 80.75 28.1561C80.9875 31.4811 83.3625 33.7373 86.925 33.7373C88.5875 33.7373 90.1312 33.3811 91.0812 32.7873C91.7937 32.3123 91.9125 31.8373 91.9125 31.3623C91.9125 30.4123 91.0812 29.4623 89.6562 29.9373C88.825 30.2936 87.875 30.5311 86.925 30.5311C85.2625 30.5311 83.9562 29.6998 83.9562 28.0373V27.6811H90.725C91.9125 27.6811 92.5063 26.9686 92.5063 25.8998V25.3061C92.625 21.6248 90.25 19.2498 86.8062 19.2498ZM89.0625 25.3061H84.075C84.075 23.5248 84.9062 22.3373 86.8062 22.3373C88.4688 22.3373 89.4187 23.4061 89.3 24.9498C89.3 25.1873 89.3 25.3061 89.0625 25.3061ZM146.775 25.1873L144.875 24.7123C143.688 24.4748 143.331 24.1186 143.331 23.5248C143.331 22.9311 143.925 22.4561 145.231 22.4561C145.944 22.4561 146.775 22.6936 147.487 23.0498C148.319 23.5248 149.269 23.4061 149.744 22.8123C150.338 22.2186 150.338 21.1498 149.625 20.4373C148.675 19.7248 147.013 19.2498 145.35 19.2498C142.263 19.2498 140.006 20.7936 140.006 23.6436C140.006 25.8998 141.669 27.0873 143.806 27.6811C144.875 27.9186 144.756 27.9186 145.706 28.1561C146.775 28.3936 147.25 28.8686 147.25 29.3436C147.25 30.0561 146.656 30.5311 145.231 30.5311C144.044 30.5311 142.975 30.1748 142.144 29.6998C141.312 29.1061 140.363 29.3436 139.888 30.0561C139.413 30.7686 139.531 31.7186 140.244 32.1936C141.194 33.0248 142.738 33.7373 145.231 33.7373C148.319 33.7373 150.694 32.0748 150.694 29.2248C150.694 27.0873 149.387 25.7811 146.775 25.1873ZM163.281 27.6811C164.469 27.6811 165.062 26.9686 165.062 25.8998V25.3061C165.062 21.6248 162.688 19.2498 159.244 19.2498C155.919 19.2498 153.544 21.3873 153.188 24.8311C153.188 25.6623 153.069 27.0873 153.188 28.1561C153.425 31.4811 155.8 33.7373 159.362 33.7373C161.025 33.7373 162.569 33.3811 163.519 32.7873C164.231 32.3123 164.35 31.8373 164.35 31.3623C164.35 30.4123 163.519 29.4623 162.094 29.9373C161.262 30.2936 160.312 30.5311 159.362 30.5311C157.7 30.5311 156.394 29.6998 156.394 28.0373V27.6811H163.281ZM159.244 22.3373C160.906 22.3373 161.856 23.4061 161.737 24.9498C161.737 25.1873 161.619 25.3061 161.5 25.3061H156.513C156.513 23.5248 157.463 22.3373 159.244 22.3373ZM115.781 19.2498C112.219 19.2498 109.606 21.5061 109.25 24.5936C109.131 25.6623 109.131 27.3248 109.25 28.3936C109.488 31.4811 112.219 33.7373 115.781 33.7373C119.344 33.7373 121.956 31.4811 122.194 28.3936C122.312 27.3248 122.312 25.7811 122.194 24.7123C121.956 21.5061 119.344 19.2498 115.781 19.2498ZM118.631 27.7998C118.513 29.3436 117.444 30.2936 115.781 30.2936C114.119 30.2936 113.05 29.2248 112.931 27.7998C112.931 27.0873 112.931 25.8998 112.931 25.1873C113.05 23.6436 114.119 22.6936 115.781 22.6936C117.444 22.6936 118.513 23.7623 118.631 25.1873C118.75 25.8998 118.75 27.0873 118.631 27.7998ZM101.65 19.2498C100.344 19.2498 98.9188 19.7248 98.4438 20.3186V16.5186C98.4438 15.4498 97.7313 14.7373 96.7812 14.7373C95.8312 14.7373 95.1187 15.5686 95.1187 16.5186V31.8373C95.1187 32.7873 95.95 33.6186 96.9 33.6186C97.85 33.6186 98.5625 32.7873 98.5625 31.8373V23.8811C99.1562 23.2873 100.106 22.8123 101.294 22.8123C102.719 22.8123 103.55 23.6436 103.55 25.3061V31.8373C103.55 32.9061 104.262 33.7373 105.212 33.7373C106.281 33.7373 106.994 32.9061 106.994 31.8373V25.0686C106.875 21.2686 104.975 19.2498 101.65 19.2498ZM134.9 19.3686C133.95 19.3686 133.119 20.1998 133.119 21.1498V29.5811C132.525 29.9373 131.694 30.2936 130.625 30.2936C129.2 30.2936 128.131 29.4623 128.131 27.7998V21.1498C128.131 20.0811 127.3 19.2498 126.35 19.2498C125.281 19.2498 124.688 20.0811 124.688 21.1498V27.9186C124.688 31.5998 126.825 33.6186 130.506 33.6186C133.238 33.6186 135.137 32.6686 135.969 32.0748C136.444 31.8373 136.562 31.4811 136.562 30.8873V21.1498C136.562 20.1998 135.85 19.3686 134.9 19.3686Z" fill="#3E474F"/>
<path d="M30.875 12.0063C29.5688 11.2938 27.55 12.4813 26.3625 14.6188L24.1062 18.4188C23.275 19.9626 23.3938 21.8626 24.4625 23.4063L24.5813 23.5251C25.65 24.9501 26.9563 26.3751 27.4312 26.8501C27.6688 27.0876 27.9062 27.4438 28.025 27.9188C28.3813 29.2251 27.6688 30.6501 26.2437 31.0063C24.9375 31.3626 23.5125 30.6501 23.1562 29.2251C23.0375 28.8689 23.0375 28.5126 23.0375 28.2751C23.1562 27.6814 22.9188 26.8501 22.0875 25.9001C21.2563 25.0689 19.7125 26.7314 19.1187 28.3939V28.5126C18.6438 30.1751 18.2875 31.7189 18.4062 31.8376C18.4062 31.9564 18.525 31.9564 18.525 32.0751C19.2375 33.5001 18.7625 35.1626 17.3375 35.8751C15.9125 36.5876 14.25 36.1126 13.5375 34.6876C12.825 33.2626 13.3 31.6001 14.725 30.8876C14.8438 30.8876 14.8438 30.7689 14.9625 30.7689C15.0813 30.7689 15.3187 30.0563 15.675 29.1063C15.9125 28.2751 16.0312 27.9188 16.15 27.5626C16.2688 27.0876 16.5063 25.9001 16.3875 25.4251C16.2688 24.8314 15.675 24.8314 15.0813 25.1876C14.725 25.4251 14.0125 26.0189 13.775 26.2563C13.1813 26.7313 12.7063 27.4438 12.4688 28.0376C12.35 28.2751 12.1125 28.6314 11.875 28.8689C10.8062 29.7001 9.2625 29.5814 8.3125 28.5126C7.48125 27.4438 7.6 25.9001 8.66875 24.9501C9.025 24.7126 9.38125 24.4751 9.7375 24.4751C10.3313 24.3563 12.4688 23.0501 13.775 22.1001C14.0125 21.9813 14.3687 21.6251 14.4875 21.5063C14.8438 21.0313 14.4875 20.6751 14.1312 20.6751C13.0625 20.7938 11.875 20.9126 11.6375 21.2689C11.5188 21.3876 11.4 21.6251 11.1625 21.7439C10.2125 22.4564 8.7875 22.2188 8.075 21.2689C7.3625 20.3188 7.6 18.8939 8.55 18.1813C8.90625 17.8251 9.5 17.7063 9.85625 17.7063C10.6875 17.7063 12.825 18.1813 14.4875 17.8251L14.9625 17.7063C16.7437 17.3501 18.8813 15.8063 19.7125 14.2626C19.7125 14.2626 20.5438 12.8376 21.4937 11.0563C22.5625 9.2751 22.4438 7.25635 21.375 6.6626L19.3562 5.4751C18.2875 4.88135 16.7437 4.88135 15.675 5.4751L1.9 13.3126C0.83125 13.9063 0 15.3313 0 16.5188V31.7189C0 32.9064 0.83125 34.3314 1.9 34.9251L15.675 42.7626C16.7437 43.3563 18.4062 43.3563 19.3562 42.7626L33.1312 34.9251C34.2 34.3314 35.0312 32.9064 35.0312 31.7189V16.5188C35.0312 15.3313 34.2 13.9063 33.1312 13.3126C33.1312 13.3126 32.1813 12.7188 30.875 12.0063Z" fill="#5FCF80"/>
</g>
<defs>
<clipPath id="clip0_23421_3607">
<rect width="165" height="48" fill="white"/>
</clipPath>
</defs>
</svg>
