<svg width="48" height="48" viewBox="0 0 48 48" fill="none" xmlns="http://www.w3.org/2000/svg">
<g clip-path="url(#clip0_23421_3642)">
<path d="M23.9993 0.0478516C10.7432 0.0478516 0 10.6522 0 23.732C0 36.8108 10.7432 47.4163 23.9993 47.4163C37.2514 47.4163 48 36.8108 48 23.732C48 10.6522 37.2514 0.0478516 23.9993 0.0478516Z" fill="#13B5EA"/>
<path d="M17.5926 22.739C18.0233 21.0566 19.5416 19.8823 21.2859 19.8823C23.0393 19.8823 24.5503 21.0536 24.983 22.739H17.5926ZM26.3247 23.7612C26.5719 23.4577 26.6649 23.0607 26.586 22.6422C26.2644 21.1256 25.4372 19.9109 24.1941 19.1292C23.3403 18.5885 22.3438 18.3029 21.3123 18.3029C20.1742 18.3029 19.0908 18.644 18.1788 19.2894C16.7535 20.2989 15.9027 21.9478 15.9027 23.7007C15.9027 24.1407 15.9573 24.5775 16.0649 24.9988C16.6127 27.1333 18.455 28.7476 20.6494 29.0159C20.8616 29.0411 21.074 29.054 21.2808 29.054C21.7204 29.054 22.1481 28.9982 22.5877 28.8843C23.1592 28.7475 23.7037 28.5169 24.2065 28.1994C24.6815 27.8928 25.1191 27.4798 25.5791 26.9037L25.6093 26.8726C25.7624 26.6821 25.8337 26.4373 25.8046 26.2011C25.7785 25.9897 25.677 25.8072 25.5188 25.6874C25.3688 25.5723 25.1901 25.5089 25.0158 25.5089C24.8458 25.5089 24.5963 25.5702 24.3705 25.8632L24.3529 25.8866C24.2783 25.9857 24.2012 26.088 24.1125 26.1896C23.8084 26.5298 23.4588 26.81 23.0744 27.0223C22.5239 27.3147 21.9291 27.4651 21.308 27.4695C19.3567 27.4482 18.1618 26.1549 17.6948 24.9536C17.6216 24.7373 17.5692 24.5399 17.5355 24.3569C17.535 24.3383 17.5335 24.3188 17.5323 24.2998L25.087 24.2984C25.6117 24.2873 26.0513 24.0965 26.3247 23.7612Z" fill="white"/>
<path d="M37.334 22.2409C36.5755 22.2409 35.9583 22.8539 35.9583 23.6073C35.9583 24.3609 36.5755 24.9741 37.334 24.9741C38.0911 24.9741 38.7071 24.3609 38.7071 23.6073C38.7071 22.8539 38.0911 22.2409 37.334 22.2409Z" fill="white"/>
<path d="M32.3223 19.1605C32.3223 18.7314 31.9701 18.3823 31.5382 18.3823L31.3174 18.379C30.6472 18.379 30.0136 18.5836 29.4797 18.9714C29.3777 18.6574 29.0787 18.4366 28.7415 18.4366C28.307 18.4366 27.9646 18.7758 27.9619 19.209L27.9645 28.1753C27.9674 28.6024 28.3164 28.9499 28.7429 28.9499C29.1719 28.9499 29.5211 28.6023 29.5211 28.1749V22.6607C29.5211 20.8741 29.6756 20.1273 31.2301 19.9359C31.3591 19.9206 31.4974 19.9197 31.5326 19.9197C31.9901 19.9032 32.3223 19.5839 32.3223 19.1605Z" fill="white"/>
<path d="M11.8209 23.6651L15.8524 19.6377C15.9999 19.4936 16.0812 19.2999 16.0812 19.0924C16.0812 18.664 15.7295 18.3154 15.2975 18.3154C15.0884 18.3154 14.8911 18.3979 14.7424 18.5473L10.7105 22.5544L6.66265 18.5399C6.51506 18.3952 6.31947 18.3154 6.11171 18.3154C5.68175 18.3154 5.33203 18.664 5.33203 19.0924C5.33203 19.3004 5.41549 19.4977 5.56701 19.6478L9.60148 23.6619L5.57309 27.6811C5.41765 27.8288 5.33203 28.0271 5.33203 28.2392C5.33203 28.6675 5.68175 29.0161 6.11171 29.0161C6.31631 29.0161 6.5119 28.9368 6.66295 28.792L10.7066 24.7688L14.7327 28.7731C14.8871 28.9311 15.0876 29.0181 15.2975 29.0181C15.7295 29.0181 16.0812 28.6687 16.0812 28.2392C16.0812 28.0342 16 27.8398 15.8527 27.6917L11.8209 23.6651Z" fill="white"/>
<path d="M37.3328 27.3652C35.2501 27.3652 33.5558 25.6795 33.5558 23.6073C33.5558 21.5329 35.2501 19.8451 37.3328 19.8451C39.4133 19.8451 41.1058 21.5329 41.1058 23.6073C41.1058 25.6795 39.4133 27.3652 37.3328 27.3652ZM37.3337 18.2437C34.363 18.2437 31.9461 20.6497 31.9461 23.6071C31.9461 26.5637 34.363 28.9691 37.3337 28.9691C40.303 28.9691 42.7187 26.5637 42.7187 23.6071C42.7187 20.6497 40.303 18.2437 37.3337 18.2437Z" fill="white"/>
</g>
<defs>
<clipPath id="clip0_23421_3642">
<rect width="48" height="48" fill="white"/>
</clipPath>
</defs>
</svg>
